<svg width="24" height="24" viewBox="0 0 24 24" fill="none" xmlns="http://www.w3.org/2000/svg">
<g id="icon/outlined/list_search" clip-path="url(#clip0_4999_90724)">
<g id="icon">
<path fill-rule="evenodd" clip-rule="evenodd" d="M0.000488281 3.91771C0.000488281 3.41087 0.398458 3 0.889378 3H9.89264C10.3836 3 10.7815 3.41087 10.7815 3.91771C10.7815 4.42455 10.3836 4.83542 9.89264 4.83542H0.889378C0.398458 4.83542 0.000488281 4.42455 0.000488281 3.91771ZM0.000488281 12C0.000488281 11.4932 0.398458 11.0823 0.889378 11.0823H6.51642C7.00734 11.0823 7.40531 11.4932 7.40531 12C7.40531 12.5068 7.00734 12.9177 6.51642 12.9177H0.889378C0.398458 12.9177 0.000488281 12.5068 0.000488281 12ZM0.000488281 20.0823C0.000488281 19.5755 0.398458 19.1646 0.889378 19.1646H12.971C13.4619 19.1646 13.8599 19.5755 13.8599 20.0823C13.8599 20.5891 13.4619 21 12.971 21H0.889378C0.398458 21 0.000488281 20.5891 0.000488281 20.0823Z" fill="#fff"/>
<path fill-rule="evenodd" clip-rule="evenodd" d="M15.5197 5.94632C12.9029 5.94632 10.7815 8.13644 10.7815 10.8381C10.7815 13.5397 12.9029 15.7299 15.5197 15.7299C18.1365 15.7299 20.2578 13.5397 20.2578 10.8381C20.2578 8.13644 18.1365 5.94632 15.5197 5.94632ZM9.00375 10.8381C9.00375 7.12276 11.921 4.1109 15.5197 4.1109C19.1183 4.1109 22.0356 7.12276 22.0356 10.8381C22.0356 14.5534 19.1183 17.5653 15.5197 17.5653C11.921 17.5653 9.00375 14.5534 9.00375 10.8381Z" fill="#fff"/>
<path fill-rule="evenodd" clip-rule="evenodd" d="M22.4831 19.6159L18.4069 15.4077L19.664 14.1098L23.7401 18.3181C24.0873 18.6765 24.0873 19.2576 23.7401 19.6159C23.393 19.9743 22.8302 19.9743 22.4831 19.6159Z" fill="#fff"/>
</g>
</g>
<defs>
<clipPath id="clip0_4999_90724">
<rect width="24" height="24" fill="white" transform="translate(0.000488281)"/>
</clipPath>
</defs>
</svg>
