<svg width="16" height="16" viewBox="0 0 16 16" fill="none" xmlns="http://www.w3.org/2000/svg">
<g id="icon/outlined/x">
<path id="icon" fill-rule="evenodd" clip-rule="evenodd" d="M3.64645 3.64657C3.84171 3.45131 4.15829 3.45131 4.35355 3.64657L8 7.29302L11.6464 3.64657C11.8417 3.45131 12.1583 3.45131 12.3536 3.64657C12.5488 3.84183 12.5488 4.15841 12.3536 4.35368L8.70711 8.00012L12.3536 11.6466C12.5488 11.8418 12.5488 12.1584 12.3536 12.3537C12.1583 12.5489 11.8417 12.5489 11.6464 12.3537L8 8.70723L4.35355 12.3537C4.15829 12.5489 3.84171 12.5489 3.64645 12.3537C3.45118 12.1584 3.45118 11.8418 3.64645 11.6466L7.29289 8.00012L3.64645 4.35368C3.45118 4.15841 3.45118 3.84183 3.64645 3.64657Z" fill="black" fill-opacity="0.3"/>
</g>
</svg>
