<svg width="66" height="26" viewBox="0 0 66 26" fill="none" xmlns="http://www.w3.org/2000/svg">
<rect y="0.00012207" width="66.001" height="26" rx="13" fill="#EC2A38"/>
<path d="M20.8262 7.49622V11.5626H22.5137V12.4767H20.8262V18.0197H19.7129V7.49622H20.8262ZM18.002 8.50403V9.40637H14.2051V14.4806C15.9688 14.4747 17.293 14.3986 18.7871 14.129L18.9277 15.0665C17.2871 15.3595 15.8926 15.4181 13.9355 15.4064H13.0918V8.50403H18.002ZM32.6152 12.7579V13.6603H28.4551V15.6993H27.3301V13.6603H23.0059V12.7579H32.6152ZM31.5488 16.8595V17.7736H24.2129V14.6915H25.3262V16.8595H31.5488ZM27.7988 7.74231C30.0605 7.74231 31.5254 8.56262 31.5254 9.87512C31.5254 11.1876 30.0605 11.9962 27.7988 11.9962C25.5488 11.9962 24.0605 11.1876 24.0605 9.87512C24.0605 8.56262 25.5488 7.74231 27.7988 7.74231ZM27.7988 8.63293C26.2637 8.63293 25.2441 9.10168 25.2559 9.87512C25.2441 10.6368 26.2637 11.0939 27.7988 11.0939C29.3457 11.0939 30.3535 10.6368 30.3535 9.87512C30.3535 9.10168 29.3457 8.63293 27.7988 8.63293ZM42.998 15.8048V16.7423H33.3887V15.8048H37.6191V13.965H34.5605V10.6251H40.7246V9.14856H34.5371V8.2345H41.8262V11.5157H35.6621V13.0509H42.0723V13.965H38.7207V15.8048H42.998ZM52.2676 12.4767V13.3907H44.9551V8.43372H52.1738V9.34778H46.0566V12.4767H52.2676ZM53.3691 15.6876V16.6134H43.7598V15.6876H53.3691Z" fill="white"/>
</svg>
