<svg width="110" height="22" viewBox="0 0 110 22" fill="none" xmlns="http://www.w3.org/2000/svg">
<g id="bp_logo">
<g id="Vector">
<path fill-rule="evenodd" clip-rule="evenodd" d="M13.4144 11.7268C13.0846 11.1794 12.6846 10.7303 12.2285 10.4005C12.6144 10.0426 12.9372 9.61459 13.1899 9.10934C13.5056 8.4848 13.66 7.74798 13.66 6.91994C13.66 6.14804 13.5407 5.43227 13.3021 4.80071C13.0565 4.15512 12.6986 3.60777 12.2495 3.16568C11.7934 2.72359 11.239 2.37273 10.5513 2.11309C9.92681 1.88151 9.22508 1.76222 8.46721 1.76222H0.734131V16.5126C0.734131 16.66 0.776235 17.0319 1.07096 17.3336L2.91651 19.2283L3.55509 19.8809C3.65333 19.9792 3.96911 20.1476 4.36208 20.1476H8.57247C9.26718 20.1476 9.92681 20.0423 10.5373 19.8388L10.6215 19.8107C10.7127 19.7827 10.797 19.7476 10.8812 19.7195C11.5618 19.4318 12.1443 19.0248 12.6074 18.5125C13.0706 18.0073 13.4284 17.3898 13.667 16.688C13.8986 15.9933 14.0179 15.2355 14.0179 14.4355C14.0179 13.3267 13.8144 12.4215 13.4074 11.7408L13.4144 11.7268ZM4.43927 5.64981H8.87421C9.4777 5.64981 9.96891 6.33049 9.96891 7.15853C9.96891 7.98657 9.48472 8.65322 8.87421 8.67427H4.43927V5.64981ZM9.35139 16.2109C9.24613 16.26 9.1128 16.2951 9.06368 16.2951H4.44629V12.5759H9.06368C9.14788 12.5759 9.28823 12.5969 9.35139 12.625C9.83558 12.8355 10.3549 13.5864 10.3549 14.4355C10.3549 15.2846 9.83558 16.0003 9.35139 16.2109Z" fill="white"/>
<path fill-rule="evenodd" clip-rule="evenodd" d="M58.7886 10.8566C58.9009 10.7514 67.3919 2.21834 67.3919 2.21834L67.855 1.7552H62.3675L56.4449 7.70588V1.7552H52.5432V15.6144C52.5432 15.8249 52.5643 16.5968 53.2871 17.3406L56.4168 20.5546V13.9653L62.585 20.1405H68.0796L67.6164 19.6774C66.1638 18.2178 58.9009 10.9479 58.7816 10.8566H58.7886Z" fill="white"/>
<path fill-rule="evenodd" clip-rule="evenodd" d="M81.1669 5.49543C80.5213 3.52356 78.9774 2.11309 77.1459 1.81836C76.9073 1.78327 76.6617 1.76222 76.4302 1.76222H72.5847C72.5847 1.76222 71.9251 1.81134 71.5531 2.16922C71.0058 2.69552 69.5813 4.09898 69.1602 4.51301C68.8164 4.85685 68.6129 4.94106 68.6129 5.74805L68.5918 16.1617V20.1476H72.4935V13.0741H76.4302C77.7284 13.0741 78.9634 12.639 79.9108 11.6145C80.4721 11.011 80.9072 10.2672 81.1669 9.45319C81.3774 8.8076 81.4826 8.18306 81.4826 7.50238C81.4826 6.8217 81.3774 6.14804 81.1669 5.50245V5.49543ZM72.4794 9.2146L72.4584 5.65683C72.4584 5.65683 72.4654 5.65683 72.4864 5.65683H76.1074C76.9284 5.65683 77.595 6.46382 77.595 7.46027C77.595 8.45673 76.9424 9.19355 76.1144 9.2146H72.4794Z" fill="white"/>
<path fill-rule="evenodd" clip-rule="evenodd" d="M89.0262 1.7552H86.0649L79.3704 20.1335H82.5001C83.0826 20.1335 83.5738 19.7897 83.7562 19.2915C83.8755 18.9757 84.3878 17.495 84.8088 16.288H90.2964C90.6753 17.3617 91.2367 18.9827 91.363 19.3265C91.5384 19.8248 91.9595 20.1335 92.4787 20.1335H95.7348L89.0262 1.7552ZM86.107 12.5689L87.5456 8.46375L88.9841 12.5689H86.107Z" fill="white"/>
<path fill-rule="evenodd" clip-rule="evenodd" d="M31.6946 7.20061C31.2665 6.07082 30.649 5.08138 29.8701 4.26737C29.0912 3.45336 28.1579 2.81479 27.1053 2.3727C26.0457 1.93061 24.8808 1.70605 23.6387 1.70605C22.3967 1.70605 21.2248 1.93061 20.1581 2.3727C19.0985 2.81479 18.1582 3.45336 17.3793 4.26737C16.6004 5.08138 15.9899 6.0638 15.5548 7.20061C15.1267 8.33039 14.9092 9.58649 14.9092 10.9479C14.9092 12.3092 15.1267 13.5864 15.5548 14.7161C15.9899 15.8459 16.6004 16.8284 17.3793 17.6353C18.1582 18.4423 19.0915 19.0739 20.1581 19.516C21.2248 19.9581 22.3967 20.1826 23.6387 20.1826C24.8808 20.1826 26.0457 19.9581 27.1053 19.516C28.1649 19.0739 29.0912 18.4423 29.8701 17.6353C30.649 16.8284 31.2665 15.8459 31.6946 14.7161C32.1227 13.5864 32.3402 12.3162 32.3402 10.9479C32.3402 9.57947 32.1227 8.33039 31.6946 7.20061ZM28.1017 13.0039C27.9123 13.6355 27.6105 14.1969 27.2176 14.667C26.8246 15.1372 26.3334 15.5161 25.7439 15.8038C25.1615 16.0845 24.4668 16.2249 23.6668 16.2249C22.8668 16.2249 22.137 16.0845 21.5335 15.8038C20.93 15.5231 20.4248 15.1442 20.0388 14.667C19.6459 14.1969 19.3441 13.6285 19.1547 13.0039C18.9582 12.3653 18.8599 11.6776 18.8599 10.9479C18.8599 10.2181 18.9582 9.55141 19.1547 8.91283C19.3512 8.28127 19.6459 7.71287 20.0388 7.23569C20.4248 6.75852 20.93 6.37256 21.5335 6.09187C22.137 5.81118 22.8528 5.67083 23.6668 5.67083C24.4808 5.67083 25.1615 5.81118 25.7439 6.09187C26.3264 6.37256 26.8246 6.75852 27.2176 7.23569C27.6105 7.71989 27.9123 8.28127 28.1017 8.91283C28.2982 9.55141 28.3965 10.2321 28.3965 10.9479C28.3965 11.6636 28.2982 12.3653 28.1017 13.0039Z" fill="white"/>
<path fill-rule="evenodd" clip-rule="evenodd" d="M50.4027 7.20061C49.9746 6.07082 49.3641 5.0884 48.5852 4.26737C47.7992 3.45336 46.8659 2.81479 45.8133 2.3727C44.7537 1.93061 43.5889 1.70605 42.3468 1.70605C41.1047 1.70605 39.9328 1.93061 38.8662 2.3727C37.8066 2.81479 36.8663 3.45336 36.0874 4.26737C35.3084 5.08138 34.6979 6.07082 34.2699 7.20061C33.8418 8.33039 33.6243 9.59351 33.6243 10.9479C33.6243 12.3022 33.8418 13.5864 34.2699 14.7161C34.6979 15.8459 35.3155 16.8284 36.0944 17.6353C36.8733 18.4423 37.8066 19.0739 38.8732 19.516C39.9399 19.9581 41.1118 20.1826 42.3538 20.1826C43.5959 20.1826 44.7678 19.9581 45.8204 19.516C46.873 19.0739 47.8063 18.4423 48.5852 17.6353C49.3641 16.8284 49.9746 15.8459 50.4027 14.7161C50.8307 13.5793 51.0483 12.3162 51.0483 10.9479C51.0483 9.57947 50.8307 8.33741 50.4027 7.20061ZM46.8098 13.0039C46.6133 13.6355 46.3186 14.1969 45.9256 14.674C45.5327 15.1442 45.0414 15.5231 44.452 15.8108C43.8696 16.0915 43.1678 16.2319 42.3749 16.2319C41.5819 16.2319 40.8451 16.0915 40.2486 15.8108C39.6451 15.5302 39.1399 15.1512 38.7539 14.674C38.3539 14.1969 38.0592 13.6355 37.8627 13.0109C37.6663 12.3724 37.568 11.6847 37.568 10.9549C37.568 10.2251 37.6663 9.55842 37.8627 8.91985C38.0592 8.28829 38.3539 7.71989 38.7539 7.24271C39.1399 6.76553 39.6451 6.37958 40.2486 6.09889C40.8451 5.8182 41.5609 5.67785 42.3749 5.67785C43.1889 5.67785 43.8696 5.8182 44.452 6.09889C45.0414 6.37958 45.5327 6.76553 45.9256 7.24271C46.3186 7.72691 46.6203 8.28829 46.8098 8.91985C47.0063 9.55842 47.1045 10.2461 47.1045 10.9549C47.1045 11.6636 47.0063 12.3653 46.8098 13.0109V13.0039Z" fill="white"/>
<path fill-rule="evenodd" clip-rule="evenodd" d="M95.7765 1.75518V16.5056C95.7765 16.6529 95.8186 17.0248 96.1133 17.3266L97.9589 19.2213L98.5975 19.8739C98.6957 19.9721 99.0115 20.1405 99.4044 20.1405H108.85V16.295H99.6501C99.6501 15.5091 99.6501 1.9657 99.6501 1.9657V1.75518H95.7765Z" fill="white"/>
</g>
</g>
</svg>
