<svg width="16" height="16" viewBox="0 0 16 16" fill="none" xmlns="http://www.w3.org/2000/svg">
<g id="icon">
<path id="icon_2" fill-rule="evenodd" clip-rule="evenodd" d="M3.64938 3.64645C3.84464 3.45118 4.16122 3.45118 4.35648 3.64645L8.00293 7.29289L11.6494 3.64645C11.8446 3.45118 12.1612 3.45118 12.3565 3.64645C12.5517 3.84171 12.5517 4.15829 12.3565 4.35355L8.71004 8L12.3565 11.6464C12.5517 11.8417 12.5517 12.1583 12.3565 12.3536C12.1612 12.5488 11.8446 12.5488 11.6494 12.3536L8.00293 8.70711L4.35648 12.3536C4.16122 12.5488 3.84464 12.5488 3.64938 12.3536C3.45411 12.1583 3.45411 11.8417 3.64938 11.6464L7.29582 8L3.64938 4.35355C3.45411 4.15829 3.45411 3.84171 3.64938 3.64645Z" fill="white"/>
</g>
</svg>
