<svg width="18" height="18" viewBox="0 0 18 18" fill="none" xmlns="http://www.w3.org/2000/svg">
<g id="icon">
<path id="icon_2" fill-rule="evenodd" clip-rule="evenodd" d="M4.10616 4.10225C4.32583 3.88258 4.68198 3.88258 4.90165 4.10225L9.00391 8.20451L13.1062 4.10225C13.3258 3.88258 13.682 3.88258 13.9017 4.10225C14.1213 4.32192 14.1213 4.67808 13.9017 4.89775L9.7994 9L13.9017 13.1023C14.1213 13.3219 14.1213 13.6781 13.9017 13.8977C13.682 14.1174 13.3258 14.1174 13.1062 13.8977L9.00391 9.7955L4.90165 13.8977C4.68198 14.1174 4.32583 14.1174 4.10616 13.8977C3.88649 13.6781 3.88649 13.3219 4.10616 13.1023L8.20841 9L4.10616 4.89775C3.88649 4.67808 3.88649 4.32192 4.10616 4.10225Z" fill="#A9A5A5"/>
</g>
</svg>
