<svg width="24" height="24" viewBox="0 0 24 24" fill="none" xmlns="http://www.w3.org/2000/svg">
<g id="icon/filled/coupon_color">
<g id="icon">
<path d="M23 14.6786C21.6389 14.6786 20.5357 13.5754 20.5357 12.2143C20.5357 10.8532 21.6389 9.75 23 9.75V4.82143C23 4.368 22.632 4 22.1786 4H0.821429C0.368 4 0 4.368 0 4.82143V15.9814C0 16.199 0.0870714 16.4085 0.240679 16.5629C1.61904 17.9413 2.48729 18.8095 3.86564 20.1879C4.02007 20.3423 4.22871 20.4286 4.44721 20.4286H22.1786C22.632 20.4286 23 20.0606 23 19.6071V14.6786Z" fill="#785445"/>
<path d="M23 9.75V4.82143C23 4.368 22.632 4 22.1786 4H0.821429C0.368 4 0 4.368 0 4.82143V15.9814C0 16.199 0.0870714 16.4085 0.240679 16.5629C1.61904 17.9413 2.48729 18.8095 3.86564 20.1879C4.02007 20.3423 4.22871 20.4286 4.44721 20.4286H22.1786C22.632 20.4286 23 20.0606 23 19.6071V14.6786C21.6389 14.6786 20.5357 13.5754 20.5357 12.2143C20.5357 10.8532 21.6389 9.75 23 9.75ZM10.8388 15.0474C10.5784 15.2914 10.2868 15.4992 9.97132 15.6635C9.42261 15.9493 8.80407 16.0996 8.18143 16.0996C7.1415 16.0996 6.164 15.6939 5.42964 14.957C4.69529 14.2202 4.29279 13.2411 4.29607 12.2011C4.29936 11.1941 4.69282 10.2371 5.40336 9.50686C6.11389 8.77661 7.06018 8.35932 8.06725 8.32975C8.10586 8.32893 8.14364 8.32811 8.18225 8.32811C8.79504 8.32811 9.38071 8.46693 9.9245 8.74046C10.2572 8.90804 10.5644 9.12243 10.8371 9.37789C11.0039 9.53396 11.0975 9.74671 11.1016 9.97754C11.1057 10.2075 11.0137 10.4334 10.8511 10.5961L10.7689 10.6782C10.6096 10.8376 10.3976 10.9255 10.1726 10.9255C9.9475 10.9255 9.74461 10.8425 9.58114 10.693C9.47354 10.5936 9.35525 10.5057 9.22957 10.4318C8.91332 10.2445 8.55107 10.1459 8.18225 10.1459C7.59822 10.1459 7.038 10.3956 6.64536 10.831C6.2445 11.2762 6.05968 11.852 6.12704 12.4517C6.17879 12.915 6.39318 13.3536 6.73079 13.6863C7.06839 14.019 7.5095 14.2268 7.97443 14.2728C8.04343 14.2794 8.11407 14.2826 8.18307 14.2826C8.51822 14.2826 8.85172 14.1997 9.14661 14.0436C9.30761 13.9582 9.45793 13.8514 9.59182 13.7265C9.74872 13.5803 9.95243 13.4998 10.1676 13.4998C10.3944 13.4998 10.6071 13.5877 10.7673 13.7471L10.8519 13.8317C11.0145 13.9943 11.1065 14.2202 11.1024 14.4502C11.0991 14.6794 11.0055 14.8913 10.8404 15.0466L10.8388 15.0474ZM16.4286 19.5759C15.9751 19.5759 15.6071 19.2079 15.6071 18.7545C15.6071 18.3011 15.9751 17.9331 16.4286 17.9331C16.882 17.9331 17.25 18.3011 17.25 18.7545C17.25 19.2079 16.882 19.5759 16.4286 19.5759ZM16.4286 16.2902C15.9751 16.2902 15.6071 15.9222 15.6071 15.4688C15.6071 15.0154 15.9751 14.6474 16.4286 14.6474C16.882 14.6474 17.25 15.0154 17.25 15.4688C17.25 15.9222 16.882 16.2902 16.4286 16.2902ZM16.4286 13.0045C15.9751 13.0045 15.6071 12.6365 15.6071 12.1831C15.6071 11.7296 15.9751 11.3616 16.4286 11.3616C16.882 11.3616 17.25 11.7296 17.25 12.1831C17.25 12.6365 16.882 13.0045 16.4286 13.0045ZM16.4286 9.71879C15.9751 9.71879 15.6071 9.35079 15.6071 8.89736C15.6071 8.44393 15.9751 8.07593 16.4286 8.07593C16.882 8.07593 17.25 8.44393 17.25 8.89736C17.25 9.35079 16.882 9.71879 16.4286 9.71879ZM16.4286 6.43307C15.9751 6.43307 15.6071 6.06507 15.6071 5.61164C15.6071 5.15821 15.9751 4.79021 16.4286 4.79021C16.882 4.79021 17.25 5.15821 17.25 5.61164C17.25 6.06507 16.882 6.43307 16.4286 6.43307Z" fill="url(#paint0_linear_1024_15454)"/>
</g>
</g>
<defs>
<linearGradient id="paint0_linear_1024_15454" x1="3.83333" y1="6.34694" x2="14.9337" y2="21.8875" gradientUnits="userSpaceOnUse">
<stop stop-color="#FFD951"/>
<stop offset="1" stop-color="#FFA945"/>
</linearGradient>
</defs>
</svg>
