<svg width="17" height="14" viewBox="0 0 17 14" fill="none" xmlns="http://www.w3.org/2000/svg">
<g id="Group 816">
<path id="Vector" d="M4.1718 5.42285C3.9913 5.42285 3.83672 5.48867 3.70907 5.61831C3.58043 5.74895 3.5166 5.90752 3.5166 6.09301C3.5166 6.2785 3.58043 6.43706 3.70907 6.5677C3.83772 6.69834 3.9913 6.76416 4.1718 6.76416C4.3523 6.76416 4.51186 6.69834 4.6425 6.5677C4.77314 6.43706 4.83797 6.27949 4.83797 6.09301C4.83797 5.90652 4.77314 5.74895 4.6425 5.61831C4.51186 5.48767 4.35529 5.42285 4.1718 5.42285Z" fill="white"/>
<path id="Vector_2" d="M9.76897 5.41602C9.58846 5.41602 9.43389 5.48084 9.30624 5.61148C9.17759 5.74212 9.11377 5.90068 9.11377 6.08617C9.11377 6.27166 9.17859 6.43022 9.30624 6.56086C9.43389 6.6915 9.58846 6.75633 9.76897 6.75633C9.94947 6.75633 10.109 6.69051 10.2397 6.56086C10.3703 6.43022 10.4351 6.27166 10.4351 6.08617C10.4351 5.90068 10.3703 5.74212 10.2397 5.61148C10.109 5.48084 9.95246 5.41602 9.76897 5.41602Z" fill="white"/>
<path id="Vector_3" d="M13.5019 5.42285C13.3214 5.42285 13.1668 5.48867 13.0382 5.61831C12.9105 5.74895 12.8457 5.90752 12.8457 6.09301C12.8457 6.2785 12.9105 6.43706 13.0382 6.5677C13.1668 6.69834 13.3214 6.76416 13.5019 6.76416C13.6824 6.76416 13.842 6.69834 13.9726 6.5677C14.1032 6.43706 14.1681 6.27949 14.1681 6.09301C14.1681 5.90652 14.1022 5.74895 13.9726 5.61831C13.842 5.48767 13.6854 5.42285 13.5019 5.42285Z" fill="white"/>
<path id="Vector_4" d="M15.1613 0.5H2.51315C1.54382 0.5 0.75 1.29382 0.75 2.26315V9.41646C0.75 10.3858 1.54382 11.1796 2.51315 11.1796H7.47948C7.47948 11.1796 8.43884 13.7984 8.78788 13.7984C9.13692 13.7984 10.1751 11.1796 10.1751 11.1796H15.1613C16.1317 11.1796 16.9245 10.3858 16.9245 9.41646V2.26315C16.9245 1.29382 16.1307 0.5 15.1613 0.5ZM5.45106 7.10382C5.20075 7.38605 4.81681 7.50472 4.39796 7.50472C4.02 7.50472 3.74376 7.39103 3.53932 7.23546H3.52736V7.43691H2.57797V3.29531H3.52736V4.87895H3.53932C3.79661 4.65955 4.13768 4.58476 4.53957 4.57179C4.88362 4.55983 5.24164 4.77523 5.45605 5.02355C5.66946 5.27087 5.82603 5.6588 5.82603 6.08762C5.82603 6.55434 5.70237 6.8216 5.45106 7.10382ZM7.48945 7.46782H6.52111V4.90488C6.52111 4.3135 6.0534 4.23572 6.0534 4.23572V3.21054C6.0534 3.21054 7.41067 3.29331 7.48945 4.93779V7.46782ZM11.289 6.68198C11.2072 6.86747 11.0895 7.03302 10.933 7.17862C10.7794 7.32222 10.6029 7.43292 10.4024 7.50971C10.203 7.58649 9.99156 7.62539 9.76918 7.62539C9.54679 7.62539 9.34335 7.58649 9.14589 7.50971C8.94744 7.43292 8.77092 7.32222 8.61535 7.17862C8.45479 7.02703 8.33413 6.8595 8.25135 6.676C8.16958 6.49251 8.12769 6.29804 8.12769 6.09161C8.12769 5.88518 8.16858 5.69071 8.25135 5.50722C8.33413 5.32372 8.45479 5.15618 8.61535 5.0046C8.77192 4.86 8.94843 4.7503 9.14589 4.67351C9.34335 4.59672 9.55078 4.55883 9.76918 4.55883C9.98757 4.55883 10.202 4.59672 10.4024 4.67351C10.6019 4.7503 10.7784 4.861 10.933 5.0046C11.0895 5.1502 11.2072 5.31574 11.289 5.50123C11.3698 5.68672 11.4107 5.88318 11.4107 6.09161C11.4107 6.30004 11.3698 6.4955 11.289 6.68099V6.68198ZM15.0975 7.09285C15.0975 7.81985 14.9599 8.26363 14.6348 8.57178C14.2488 8.93778 13.6994 8.9637 13.2366 8.89789V8.14595C13.6226 8.18485 14.1541 7.93055 14.1531 7.42993V7.23745H14.1411C13.9247 7.53663 13.6086 7.64533 13.1878 7.64533C12.7978 7.64533 12.4598 7.50173 12.2314 7.23347C12.002 6.9652 11.8883 6.60619 11.8883 6.15543C11.8883 5.65082 12.016 5.24893 12.2713 4.95274C12.5256 4.65556 12.8896 4.51694 13.3054 4.51694C13.6784 4.51694 13.9128 4.6067 14.1421 4.81612H14.1541V4.58875H15.0975V7.09385V7.09285Z" fill="white"/>
</g>
</svg>
