<svg width="27" height="20" viewBox="0 0 27 20" fill="none" xmlns="http://www.w3.org/2000/svg">
<path d="M0 4C0 1.79086 1.79086 0 4 0H23C25.2091 0 27 1.79086 27 4V16C27 18.2091 25.2091 20 23 20H4C1.79086 20 0 18.2091 0 16V4Z" fill="black" fill-opacity="0.8"/>
<g clip-path="url(#clip0_930_11296)">
<path d="M8.08777 13.9222C8.08777 14.2036 7.99828 14.4372 7.82192 14.6204C7.64293 14.8036 7.41919 14.8938 7.14544 14.8938C6.87169 14.8938 6.64795 14.8036 6.46896 14.6204C6.28997 14.4372 6.20311 14.2036 6.20311 13.9222V7.58827H5.63719C5.44767 7.58827 5.295 7.5219 5.17655 7.38651C5.0581 7.25378 4.99756 7.08389 4.99756 6.87948C4.99756 6.6618 5.05283 6.49456 5.16076 6.37775C5.26868 6.26095 5.38449 6.18662 5.51084 6.14946C5.82407 6.06451 6.07676 5.87603 6.26365 5.57871C6.36894 5.4035 6.49529 5.27874 6.64532 5.20972C6.79536 5.1407 6.98488 5.10353 7.21651 5.10353C7.48763 5.10353 7.70084 5.18052 7.85614 5.33714C8.00881 5.49111 8.08777 5.70082 8.08777 5.96098V13.9222Z" fill="white"/>
<path d="M9 7.24582C9 6.77329 9.11582 6.36979 9.34482 6.03265C9.57645 5.69551 9.88969 5.43801 10.2872 5.26281C10.6846 5.0876 11.1321 5 11.6269 5C12.1218 5 12.5693 5.0876 12.9667 5.26281C13.3642 5.43801 13.6801 5.69551 13.9091 6.03265C14.1407 6.36979 14.2539 6.77595 14.2539 7.24582V12.7489C14.2539 13.2214 14.1381 13.6249 13.9091 13.962C13.6774 14.2992 13.3642 14.5567 12.9667 14.7319C12.5693 14.9071 12.1218 14.9947 11.6269 14.9947C11.1321 14.9947 10.6846 14.9071 10.2872 14.7319C9.88969 14.5567 9.57382 14.2992 9.34482 13.962C9.11319 13.6249 9 13.2187 9 12.7489V7.24582ZM10.8004 12.7489C10.8004 12.9745 10.8794 13.1603 11.0373 13.309C11.1953 13.4577 11.3927 13.5293 11.6296 13.5293C11.8665 13.5293 12.0639 13.455 12.2218 13.309C12.3798 13.1603 12.4587 12.9745 12.4587 12.7489V7.24582C12.4587 7.02018 12.3798 6.83435 12.2218 6.68569C12.0639 6.53703 11.8665 6.46536 11.6296 6.46536C11.3927 6.46536 11.1953 6.53969 11.0373 6.68569C10.8794 6.83435 10.8004 7.02018 10.8004 7.24582V12.7489Z" fill="white"/>
<path d="M15 7.26966C15 6.89412 15.1245 6.59905 15.3734 6.38201C15.6224 6.16498 15.9478 6.05768 16.3474 6.05768C16.747 6.05768 17.0724 6.16498 17.3258 6.38201C17.5791 6.59905 17.7035 6.89412 17.7035 7.26966V9.6668C17.7035 10.0472 17.5769 10.3447 17.3258 10.5593C17.0746 10.7739 16.747 10.8788 16.3474 10.8788C15.9478 10.8788 15.6224 10.7715 15.3734 10.5593C15.1245 10.3447 15 10.0497 15 9.6668V7.26966ZM15.8255 9.46195C15.8255 9.6229 15.8713 9.75215 15.9609 9.84481C16.0504 9.93748 16.1793 9.98625 16.3474 9.98625C16.5156 9.98625 16.6466 9.93748 16.7383 9.83993C16.83 9.74239 16.8781 9.61558 16.8781 9.46195V7.47206C16.8781 7.31599 16.8322 7.19162 16.7383 7.09408C16.6466 6.99654 16.5156 6.94776 16.3474 6.94776C16.1793 6.94776 16.0504 6.9941 15.9609 7.0892C15.8713 7.18431 15.8255 7.31112 15.8255 7.47206V9.45951V9.46195ZM17.4502 14.6513C17.4153 14.761 17.3629 14.8464 17.2886 14.9073C17.2166 14.9683 17.1314 15 17.0331 15C16.8999 15 16.7951 14.9634 16.7208 14.8878C16.6444 14.8147 16.6073 14.7147 16.6073 14.5928C16.6073 14.5342 16.6226 14.4562 16.651 14.3586L19.4025 6.20156C19.4899 5.95526 19.634 5.83333 19.8371 5.83333C19.9638 5.83333 20.0642 5.86991 20.1363 5.94063C20.2084 6.01135 20.2455 6.10889 20.2455 6.23082C20.2455 6.29422 20.2302 6.37713 20.2018 6.47224L17.448 14.6488L17.4502 14.6513ZM19.1449 11.169C19.1449 10.7934 19.2715 10.4984 19.5227 10.2813C19.7738 10.0643 20.1014 9.95699 20.501 9.95699C20.9006 9.95699 21.226 10.0643 21.4793 10.2813C21.7305 10.4984 21.8571 10.7934 21.8571 11.169V13.5661C21.8571 13.9465 21.7305 14.244 21.4793 14.4586C21.2282 14.6732 20.9006 14.7781 20.501 14.7781C20.1014 14.7781 19.776 14.6708 19.5227 14.4586C19.2715 14.244 19.1449 13.949 19.1449 13.5661V11.169ZM19.9703 13.3613C19.9703 13.5173 20.0162 13.6417 20.1101 13.7392C20.2018 13.8368 20.3328 13.8856 20.501 13.8856C20.6692 13.8856 20.8002 13.8368 20.8919 13.7392C20.9836 13.6417 21.0317 13.5149 21.0317 13.3613V11.3738C21.0317 11.2177 20.9858 11.0934 20.8919 10.9958C20.8002 10.8983 20.6692 10.8495 20.501 10.8495C20.3328 10.8495 20.2018 10.8983 20.1101 10.9958C20.0184 11.0934 19.9703 11.2202 19.9703 11.3738V13.3613Z" fill="white"/>
</g>
<defs>
<clipPath id="clip0_930_11296">
<rect width="17" height="10" fill="white" transform="translate(5 5)"/>
</clipPath>
</defs>
</svg>
