<svg width="20" height="20" viewBox="0 0 20 20" fill="none" xmlns="http://www.w3.org/2000/svg">
<g id="icon/outlined/heart">
<path id="icon" fill-rule="evenodd" clip-rule="evenodd" d="M10 7.0874L8.99956 5.75185C8.46715 5.04111 7.61589 4.58203 6.67 4.58203C5.06222 4.58203 3.75 5.89067 3.75 7.51929C3.75 8.27455 3.8703 8.96872 4.07916 9.6135L4.0818 9.62163L4.08177 9.62164C4.58459 11.2108 5.62626 12.5223 6.79322 13.524C7.95996 14.5255 9.1803 15.1551 9.92636 15.4107C9.92674 15.4108 9.92715 15.4108 9.92757 15.4109C9.94388 15.4132 9.96935 15.4154 10 15.4154C10.0306 15.4154 10.0561 15.4132 10.0724 15.4109C10.0729 15.4108 10.0733 15.4108 10.0736 15.4107C10.8197 15.1551 12.04 14.5255 13.2068 13.524C14.3737 12.5223 15.4154 11.2108 15.9182 9.62164L15.9208 9.61349L15.9208 9.6135C16.1297 8.96872 16.25 8.27455 16.25 7.51929C16.25 5.89067 14.9378 4.58203 13.33 4.58203C12.3841 4.58203 11.5328 5.04111 11.0004 5.75185L10 7.0874ZM9.10222 4.12034C8.41712 3.62516 7.57524 3.33203 6.67 3.33203C4.3675 3.33203 2.5 5.20469 2.5 7.51929C2.5 8.41067 2.6425 9.23467 2.89 9.99871C4.075 13.744 7.7275 15.9837 9.535 16.5979C9.79 16.6878 10.21 16.6878 10.465 16.5979C12.2725 15.9837 15.925 13.744 17.11 9.99871C17.3575 9.23467 17.5 8.41067 17.5 7.51929C17.5 5.20469 15.6325 3.33203 13.33 3.33203C12.4248 3.33203 11.5829 3.62516 10.8978 4.12034C10.5555 4.36772 10.2524 4.66554 10 5.00244C9.74764 4.66554 9.44449 4.36772 9.10222 4.12034Z" fill="#534C4C"/>
</g>
</svg>
