<svg width="18" height="18" viewBox="0 0 18 18" fill="none" xmlns="http://www.w3.org/2000/svg">
<g id="Component 1">
<path id="Vector" opacity="0.5" d="M18 9C18 4.02944 13.9706 3.20402e-06 9 3.42129e-06C4.02944 3.63856e-06 -6.10673e-07 4.02944 -3.93402e-07 9C-1.76132e-07 13.9706 4.02944 18 9 18C13.9706 18 18 13.9706 18 9Z" fill="white" fill-opacity="0.7"/>
<path id="Vector_2" d="M16.5005 9C16.5005 4.85787 13.1426 1.5 9.00049 1.5C4.85835 1.5 1.50049 4.85787 1.50049 9C1.50049 13.1421 4.85835 16.5 9.00049 16.5C13.1426 16.5 16.5005 13.1421 16.5005 9Z" fill="white" stroke="#EC2A38" stroke-width="0.5"/>
<g id="Vector_3">
<path d="M4.61527 7.09033C4.53879 7.1234 4.49951 7.09653 4.49951 7.01385V6.31311C4.76823 6.19736 5.01834 6.04853 5.24779 5.86663C5.47723 5.68473 5.68601 5.48215 5.87204 5.25685H7.0606V12.6817H5.87204V6.41027H5.86171C5.67567 6.55703 5.4731 6.68932 5.25192 6.80301C5.03075 6.91876 4.81784 7.01385 4.6132 7.09033H4.61527Z" fill="#3E3636"/>
<path d="M12.3745 9.35413C12.2981 9.48229 12.1988 9.59391 12.0769 9.68899C11.9549 9.78408 11.8268 9.86883 11.6883 9.93911C11.5498 10.0094 11.4072 10.0631 11.2563 10.0983C11.1054 10.1334 10.9607 10.152 10.8201 10.152C10.4625 10.152 10.1462 10.0941 9.87546 9.97838C9.60261 9.86263 9.37316 9.69933 9.18506 9.48435C8.99696 9.26938 8.85433 9.01306 8.75924 8.71127C8.66416 8.40948 8.61455 8.07255 8.61455 7.69428C8.61455 7.316 8.67036 6.97081 8.78198 6.65868C8.8936 6.34449 9.05277 6.07577 9.26154 5.84839C9.47031 5.62101 9.71836 5.44531 10.0098 5.32129C10.3013 5.19727 10.6258 5.13525 10.9834 5.13525C11.4113 5.13525 11.7834 5.21173 12.1017 5.3647C12.4179 5.51766 12.6805 5.7409 12.8892 6.03236C13.098 6.32382 13.251 6.67728 13.3502 7.0969C13.4494 7.51651 13.499 7.98987 13.499 8.5211C13.499 9.05234 13.4411 9.54016 13.3275 10.0466C13.2117 10.551 13.0319 11.0057 12.7859 11.4088C12.5399 11.8119 12.2236 12.1385 11.8371 12.3865C11.4506 12.6366 10.9875 12.7606 10.4501 12.7606C10.169 12.7606 9.90233 12.7338 9.65015 12.68C9.39797 12.6263 9.16025 12.525 8.93494 12.3782V11.4295C8.93494 11.3902 8.94941 11.3633 8.97835 11.3488C9.00729 11.3344 9.0383 11.3385 9.0693 11.3633C9.31322 11.5493 9.5468 11.6734 9.77417 11.7375C10.0015 11.8015 10.2165 11.8325 10.4212 11.8325C10.7023 11.8325 10.9586 11.7726 11.188 11.6506C11.4175 11.5287 11.618 11.3571 11.7875 11.138C11.957 10.9168 12.0934 10.6564 12.1947 10.3525C12.296 10.0487 12.3642 9.71793 12.3952 9.36033H12.3766L12.3745 9.35413ZM12.2981 7.64674C12.2981 7.42969 12.267 7.22505 12.2071 7.03282C12.1472 6.84058 12.0603 6.67315 11.9487 6.52845C11.8371 6.38376 11.7027 6.27007 11.5456 6.18739C11.3885 6.10471 11.2108 6.06337 11.0123 6.06337C10.8015 6.06337 10.6196 6.10884 10.4646 6.20186C10.3116 6.29488 10.1855 6.41683 10.0863 6.56566C9.98708 6.71656 9.91266 6.88812 9.86099 7.08449C9.80931 7.2788 9.78451 7.4793 9.78451 7.68394C9.78451 7.90719 9.80518 8.11389 9.84652 8.30199C9.88786 8.4901 9.95607 8.65546 10.0532 8.79602C10.1504 8.93658 10.2703 9.04614 10.417 9.12262C10.5638 9.1991 10.7436 9.23837 10.9545 9.23837C11.1653 9.23837 11.3513 9.1991 11.5105 9.11848C11.6697 9.03787 11.8061 8.92625 11.9177 8.78362C12.0293 8.63893 12.1162 8.47149 12.1761 8.27512C12.236 8.08082 12.2774 7.86998 12.296 7.64674H12.2981Z" fill="#3E3636"/>
</g>
</g>
</svg>
