<svg width="24" height="24" viewBox="0 0 24 24" fill="none" xmlns="http://www.w3.org/2000/svg">
<g id="icon/outlined/edit">
<path id="icon" fill-rule="evenodd" clip-rule="evenodd" d="M19.7374 4.26256C19.054 3.57915 17.9459 3.57915 17.2625 4.26256L16.2928 5.23223L18.7677 7.70711L19.7374 6.73744C20.4208 6.05402 20.4208 4.94598 19.7374 4.26256ZM20.798 7.7981C22.0672 6.52889 22.0672 4.47111 20.798 3.2019C19.5288 1.9327 17.4711 1.9327 16.2018 3.2019L2.46967 16.9341C2.32902 17.0747 2.25 17.2655 2.25 17.4644V21.0355C2.25 21.4497 2.58579 21.7855 3 21.7855H6.5C6.69891 21.7855 6.88968 21.7065 7.03033 21.5658L20.798 7.7981ZM17.7071 8.76777L15.2322 6.29289L3.75 17.7751V20.2855H6.18934L17.7071 8.76777Z" fill="#121212"/>
</g>
</svg>
