<svg width="20" height="20" viewBox="0 0 20 20" fill="none" xmlns="http://www.w3.org/2000/svg">
<g id="icon/outlined/event">
<g id="icon">
<path d="M16.0979 3.675L17.2772 4.03062C17.5004 4.09812 17.5866 4.36812 17.4435 4.5525L16.6866 5.52375L16.7129 6.755C16.7179 6.98813 16.4872 7.15375 16.2679 7.07375L15.1097 6.65375L13.9466 7.05937C13.7266 7.13625 13.4979 6.96812 13.506 6.735L13.5472 5.50437L12.8022 4.52375C12.661 4.33812 12.7504 4.06875 12.9747 4.00437L14.1585 3.66313L14.861 2.65125C14.9941 2.46 15.2779 2.46125 15.4085 2.65438L16.0985 3.67438L16.0979 3.675Z" fill="#fff"/>
<path d="M17.4997 10C17.4997 9.30964 16.9401 8.75 16.2497 8.75C15.5594 8.75 14.9997 9.30964 14.9997 10C14.9997 10.6904 15.5594 11.25 16.2497 11.25C16.9401 11.25 17.4997 10.6904 17.4997 10Z" fill="#fff"/>
<path d="M11.2497 3.75C11.2497 3.05964 10.6901 2.5 9.99973 2.5C9.30938 2.5 8.74973 3.05964 8.74973 3.75C8.74973 4.44036 9.30938 5 9.99973 5C10.6901 5 11.2497 4.44036 11.2497 3.75Z" fill="#fff"/>
<path d="M6.74036 6.00812L13.956 13.2237L2.89723 17.0675L6.74098 6.00875M6.58786 4.44938C6.23286 4.44938 5.88536 4.6625 5.75411 5.04063L1.46473 17.3787C1.25786 17.9744 1.71786 18.5494 2.29161 18.5494C2.38723 18.5494 2.48598 18.5331 2.58473 18.4988L14.9235 14.2106C15.5366 13.9975 15.716 13.2163 15.2566 12.7575L7.20661 4.70687C7.03098 4.53125 6.80786 4.44875 6.58723 4.44875L6.58786 4.44938Z" fill="#fff"/>
<path d="M5.31744 8.1838L4.43356 9.06768L10.9204 15.5545L11.8043 14.6706L5.31744 8.1838Z" fill="#fff"/>
</g>
</g>
</svg>
