<svg width="24" height="24" viewBox="0 0 24 24" fill="none" xmlns="http://www.w3.org/2000/svg">
<g id="icon/filled/novel">
<path id="icon" d="M20.251 3H3.75098C3.33698 3 3.00098 3.336 3.00098 3.75V16.9395C3.00098 17.1383 3.07973 17.3295 3.22073 17.4698L4.87598 19.125L6.53123 20.7803C6.67223 20.9213 6.86273 21 7.06148 21H20.251C20.665 21 21.001 20.664 21.001 20.25V3.75C21.001 3.336 20.665 3 20.251 3ZM12.151 16.5H8.25098C7.83698 16.5 7.50098 16.164 7.50098 15.75C7.50098 15.336 7.83698 15 8.25098 15H12.151C12.565 15 12.901 15.336 12.901 15.75C12.901 16.164 12.565 16.5 12.151 16.5ZM15.751 12.75H8.25098C7.83698 12.75 7.50098 12.414 7.50098 12C7.50098 11.586 7.83698 11.25 8.25098 11.25H15.751C16.165 11.25 16.501 11.586 16.501 12C16.501 12.414 16.165 12.75 15.751 12.75ZM15.751 9H8.25098C7.83698 9 7.50098 8.664 7.50098 8.25C7.50098 7.836 7.83698 7.5 8.25098 7.5H15.751C16.165 7.5 16.501 7.836 16.501 8.25C16.501 8.664 16.165 9 15.751 9Z" fill="#EC2A38"/>
</g>
</svg>
