<svg width="20" height="20" viewBox="0 0 20 20" fill="none" xmlns="http://www.w3.org/2000/svg">
<g id="icon/outlined/alarm">
<path id="icon" fill-rule="evenodd" clip-rule="evenodd" d="M7.71261 4.02643C7.78507 2.82609 8.7815 1.875 10.0001 1.875C11.2186 1.875 12.215 2.82609 12.2875 4.02643C14.2534 4.90259 15.6251 6.87374 15.6251 9.16667V11.7987C15.6251 12.082 15.7376 12.3536 15.9379 12.554L17.1087 13.7247C17.2874 13.9035 17.3409 14.1723 17.2442 14.4058C17.1474 14.6394 16.9195 14.7917 16.6667 14.7917H13.1251V15C13.1251 16.7259 11.7259 18.125 10.0001 18.125C8.27417 18.125 6.87506 16.7259 6.87506 15V14.7917H3.33339C3.0806 14.7917 2.85271 14.6394 2.75597 14.4058C2.65923 14.1723 2.7127 13.9035 2.89145 13.7247L4.06223 12.554C4.26253 12.3536 4.37506 12.082 4.37506 11.7987V9.16667C4.37506 6.87374 5.74669 4.90259 7.71261 4.02643ZM8.12506 14.7917V15C8.12506 16.0355 8.96453 16.875 10.0001 16.875C11.0356 16.875 11.8751 16.0355 11.8751 15V14.7917H8.12506ZM10.0001 3.125C9.42476 3.125 8.95839 3.59137 8.95839 4.16667V4.45118C8.95839 4.71607 8.79142 4.95218 8.54167 5.04045C6.84159 5.64135 5.62506 7.26274 5.62506 9.16667V11.7987C5.62506 12.4135 5.38083 13.0031 4.94611 13.4378L4.84228 13.5417H15.1578L15.054 13.4378C14.6193 13.0031 14.3751 12.4135 14.3751 11.7987V9.16667C14.3751 7.26274 13.1585 5.64135 11.4584 5.04045C11.2087 4.95218 11.0417 4.71607 11.0417 4.45118V4.16667C11.0417 3.59137 10.5754 3.125 10.0001 3.125Z" fill="#fff"/>
</g>
</svg>
