<svg width="24" height="24" viewBox="0 0 24 24" fill="none" xmlns="http://www.w3.org/2000/svg">
<g id="icon/outlined/storage">
<g id="icon">
<path d="M13.6539 10.65H10.3539C10.0225 10.65 9.75391 10.9186 9.75391 11.25C9.75391 11.5814 10.0225 11.85 10.3539 11.85H13.6539C13.9853 11.85 14.2539 11.5814 14.2539 11.25C14.2539 10.9186 13.9853 10.65 13.6539 10.65Z" fill="#121212"/>
<path d="M20.2539 3H3.75391C3.33991 3 3.00391 3.336 3.00391 3.75V8.25C3.00391 8.664 3.33991 9 3.75391 9V16.9342C3.75391 17.136 3.8349 17.3302 3.9774 17.4735C5.2329 18.729 6.0249 19.5218 7.2804 20.7765C7.4229 20.919 7.61715 21 7.8189 21H19.5039C19.9179 21 20.2539 20.664 20.2539 20.25V9C20.6679 9 21.0039 8.664 21.0039 8.25V3.75C21.0039 3.336 20.6679 3 20.2539 3ZM4.57891 4.2H19.4289C19.6359 4.2 19.8039 4.368 19.8039 4.575V7.425C19.8039 7.632 19.6359 7.8 19.4289 7.8H4.57891C4.37191 7.8 4.20391 7.632 4.20391 7.425V4.575C4.20391 4.368 4.37191 4.2 4.57891 4.2ZM18.6789 19.8H8.1564C8.05665 19.8 7.9614 19.7603 7.8909 19.6905L5.06415 16.8638C4.99365 16.7933 4.95465 16.698 4.95465 16.5983V9.00075H19.0546V19.4258C19.0546 19.6328 18.8866 19.8008 18.6796 19.8008L18.6789 19.8Z" fill="#121212"/>
</g>
</g>
</svg>
