<svg width="24" height="24" viewBox="0 0 24 24" fill="none" xmlns="http://www.w3.org/2000/svg">
<g id="icon/outlined/storage">
<g id="icon">
<path d="M13.65 10.65H10.35C10.0186 10.65 9.75 10.9186 9.75 11.25C9.75 11.5814 10.0186 11.85 10.35 11.85H13.65C13.9814 11.85 14.25 11.5814 14.25 11.25C14.25 10.9186 13.9814 10.65 13.65 10.65Z" fill="#817B7B"/>
<path d="M20.25 3H3.75C3.336 3 3 3.336 3 3.75V8.25C3 8.664 3.336 9 3.75 9V16.9342C3.75 17.136 3.831 17.3302 3.9735 17.4735C5.229 18.729 6.02099 19.5218 7.27649 20.7765C7.41899 20.919 7.61325 21 7.815 21H19.5C19.914 21 20.25 20.664 20.25 20.25V9C20.664 9 21 8.664 21 8.25V3.75C21 3.336 20.664 3 20.25 3ZM4.575 4.2H19.425C19.632 4.2 19.8 4.368 19.8 4.575V7.425C19.8 7.632 19.632 7.8 19.425 7.8H4.575C4.368 7.8 4.2 7.632 4.2 7.425V4.575C4.2 4.368 4.368 4.2 4.575 4.2ZM18.675 19.8H8.1525C8.05275 19.8 7.95749 19.7603 7.88699 19.6905L5.06025 16.8638C4.98975 16.7933 4.95074 16.698 4.95074 16.5983V9.00075H19.0507V19.4258C19.0507 19.6328 18.8827 19.8008 18.6757 19.8008L18.675 19.8Z" fill="#817B7B"/>
</g>
</g>
</svg>
