<svg width="24" height="24" viewBox="0 0 24 24" fill="none" xmlns="http://www.w3.org/2000/svg">
<g id="icon/filled/webtoon">
<g id="icon">
<path d="M21.002 10.2172V3.75C21.002 3.336 20.666 3 20.252 3H10.877C10.67 3 10.502 3.168 10.502 3.375V13.0027C10.502 13.2517 10.7405 13.4317 10.9797 13.3635L20.7297 10.578C20.891 10.5322 21.002 10.3845 21.002 10.2172Z" fill="#EC2A38"/>
<path d="M3.00195 3.75V16.9395C3.00195 17.1383 3.08145 17.3295 3.2217 17.4705C4.4802 18.729 5.27295 19.5218 6.53145 20.7803C6.67245 20.9213 6.86295 21 7.06245 21H8.62695C8.83395 21 9.00195 20.832 9.00195 20.625V3.375C9.00195 3.168 8.83395 3 8.62695 3H3.75195C3.33795 3 3.00195 3.336 3.00195 3.75Z" fill="#EC2A38"/>
<path d="M10.502 15.2827V20.625C10.502 20.832 10.67 21 10.877 21H20.252C20.666 21 21.002 20.664 21.002 20.25V12.4972C21.002 12.2482 20.7635 12.0682 20.5242 12.1365L10.7742 14.922C10.613 14.9677 10.502 15.1155 10.502 15.2827Z" fill="#EC2A38"/>
</g>
</g>
</svg>
