<svg width="24" height="24" viewBox="0 0 24 24" fill="none" xmlns="http://www.w3.org/2000/svg">
<g id="icon/outlined/novel">
<g id="icon">
<path d="M3 3.75V16.9395C3 17.1383 3.0795 17.3295 3.21975 17.4705C4.47825 18.729 5.271 19.5218 6.5295 20.7803C6.6705 20.9213 6.861 21 7.0605 21H20.25C20.664 21 21 20.664 21 20.25V3.75C21 3.336 20.664 3 20.25 3H3.75C3.336 3 3 3.336 3 3.75ZM19.425 19.8H7.4025C7.30275 19.8 7.2075 19.7603 7.137 19.6905L4.3095 16.863C4.239 16.7925 4.2 16.6973 4.2 16.5975V4.575C4.2 4.368 4.368 4.2 4.575 4.2H19.425C19.632 4.2 19.8 4.368 19.8 4.575V19.425C19.8 19.632 19.632 19.8 19.425 19.8Z" fill="#938F8F"/>
<path d="M15.9 7.65H8.1C7.76863 7.65 7.5 7.91863 7.5 8.25C7.5 8.58137 7.76863 8.85 8.1 8.85H15.9C16.2314 8.85 16.5 8.58137 16.5 8.25C16.5 7.91863 16.2314 7.65 15.9 7.65Z" fill="#938F8F"/>
<path d="M15.9 11.4H8.1C7.76863 11.4 7.5 11.6686 7.5 12C7.5 12.3314 7.76863 12.6 8.1 12.6H15.9C16.2314 12.6 16.5 12.3314 16.5 12C16.5 11.6686 16.2314 11.4 15.9 11.4Z" fill="#938F8F"/>
<path d="M12.3 15.15H8.1C7.76863 15.15 7.5 15.4186 7.5 15.75C7.5 16.0814 7.76863 16.35 8.1 16.35H12.3C12.6314 16.35 12.9 16.0814 12.9 15.75C12.9 15.4186 12.6314 15.15 12.3 15.15Z" fill="#938F8F"/>
</g>
</g>
</svg>
