<svg width="24" height="24" viewBox="0 0 24 24" fill="none" xmlns="http://www.w3.org/2000/svg">
<g id="icon/outlined/gift">
<path id="icon" d="M20.2529 6H18.2257C18.5962 5.4795 18.7964 4.83075 18.7447 4.1325C18.6367 2.682 17.3069 1.5 15.8527 1.5H15.6779C14.1149 1.5 12.7484 2.33925 12.0029 3.591C11.2574 2.33925 9.89093 1.5 8.32793 1.5H8.15317C6.69892 1.5 5.36918 2.682 5.26118 4.1325C5.20943 4.83075 5.40967 5.4795 5.78017 6H3.75293C3.33893 6 3.00293 6.336 3.00293 6.75V10.95C3.00293 11.364 3.33893 11.7 3.75293 11.7V16.9395C3.75293 17.1383 3.83242 17.3295 3.97267 17.4705C5.23117 18.729 6.02393 19.5218 7.28242 20.7803C7.42343 20.9213 7.61392 21 7.81342 21H19.5029C19.9169 21 20.2529 20.664 20.2529 20.25V11.7C20.6669 11.7 21.0029 11.364 21.0029 10.95V6.75C21.0029 6.336 20.6669 6 20.2529 6ZM15.6779 2.7H15.8647C16.7234 2.7 17.4682 3.3405 17.5462 4.19625C17.6354 5.175 16.8637 6 15.9029 6H12.6029V5.775C12.6029 4.077 13.9799 2.7 15.6779 2.7ZM6.45968 4.19625C6.53768 3.34125 7.28242 2.7 8.14117 2.7H8.32793C10.0259 2.7 11.4029 4.077 11.4029 5.775V6H8.10293C7.14218 6 6.37043 5.175 6.45968 4.19625ZM4.20293 7.575C4.20293 7.368 4.37093 7.2 4.57793 7.2H19.4279C19.6349 7.2 19.8029 7.368 19.8029 7.575V10.125C19.8029 10.332 19.6349 10.5 19.4279 10.5H4.57793C4.37093 10.5 4.20293 10.332 4.20293 10.125V7.575ZM18.6779 19.8H8.15543C8.05568 19.8 7.96042 19.7603 7.88992 19.6905L5.28593 17.0865L5.06243 16.863C4.99193 16.7925 4.95293 16.6973 4.95293 16.5975V11.7H11.4029V15.9C11.4029 16.2315 11.6714 16.5 12.0029 16.5C12.3344 16.5 12.6029 16.2315 12.6029 15.9V11.7H19.0529V19.425C19.0529 19.632 18.8849 19.8 18.6779 19.8Z" fill="#121212"/>
</g>
</svg>
