<svg width="24" height="24" viewBox="0 0 24 24" fill="none" xmlns="http://www.w3.org/2000/svg">
<g id="icon/filled/webtoon">
<g id="icon">
<path d="M21 10.2172V3.75C21 3.336 20.664 3 20.25 3H10.875C10.668 3 10.5 3.168 10.5 3.375V13.0027C10.5 13.2517 10.7385 13.4317 10.9777 13.3635L20.7277 10.578C20.889 10.5322 21 10.3845 21 10.2172Z" fill="#FF3746"/>
<path d="M3 3.75V16.9395C3 17.1383 3.0795 17.3295 3.21975 17.4705C4.47825 18.729 5.271 19.5218 6.5295 20.7803C6.6705 20.9213 6.861 21 7.0605 21H8.625C8.832 21 9 20.832 9 20.625V3.375C9 3.168 8.832 3 8.625 3H3.75C3.336 3 3 3.336 3 3.75Z" fill="#FF3746"/>
<path d="M10.5 15.2827V20.625C10.5 20.832 10.668 21 10.875 21H20.25C20.664 21 21 20.664 21 20.25V12.4972C21 12.2482 20.7615 12.0682 20.5223 12.1365L10.7723 14.922C10.611 14.9677 10.5 15.1155 10.5 15.2827Z" fill="#FF3746"/>
</g>
</g>
</svg>
