<svg width="24" height="24" viewBox="0 0 24 24" fill="none" xmlns="http://www.w3.org/2000/svg">
<g id="icon/outlined/home_logo">
<g id="icon">
<path d="M18.66 12.26C18.42 11.85 18.14 11.49 17.83 11.19C18.07 10.9 18.28 10.57 18.46 10.21C18.81 9.49 18.99 8.67 18.99 7.76C18.99 6.92 18.86 6.14 18.6 5.43C18.33 4.7 17.93 4.07 17.41 3.58C16.91 3.08 16.28 2.68 15.53 2.39C14.84 2.13 14.07 2 13.26 2H5.6C5.27 2 5 2.27 5 2.6V17.36C5 17.52 5.04 18.1 5.5 18.59L7.86 21.04C7.86 21.04 7.93 21.11 7.97 21.14C7.97 21.14 8.03 21.2 8.06 21.22C8.29 21.4 8.66 21.58 9.18 21.58H13.35C14.11 21.58 14.82 21.47 15.48 21.24L15.56 21.21H15.58C15.6 21.21 15.63 21.19 15.65 21.18C15.71 21.16 15.78 21.13 15.86 21.1C16.62 20.77 17.26 20.31 17.78 19.74C18.3 19.16 18.69 18.48 18.95 17.7C19.2 16.93 19.33 16.11 19.33 15.26C19.33 14.05 19.1 13.04 18.65 12.27L18.66 12.26ZM17.82 17.32C17.61 17.94 17.3 18.49 16.89 18.94C16.5 19.38 15.99 19.74 15.39 20C15.35 20.02 15.3 20.03 15.25 20.05C15.23 20.05 15.2 20.07 15.18 20.08L15.11 20.1C14.58 20.28 13.99 20.38 13.37 20.38H9.2C8.99 20.38 8.86 20.31 8.78 20.25C8.78 20.25 8.76 20.24 8.76 20.23C8.76 20.23 8.75 20.22 8.74 20.21L6.37 17.75C6.2 17.57 6.2 17.36 6.2 17.35V3.28C6.2 3.28 6.2 3.19 6.29 3.19H13.24C13.91 3.19 14.53 3.3 15.08 3.5C15.68 3.73 16.16 4.04 16.55 4.43C16.94 4.81 17.24 5.28 17.45 5.84C17.66 6.41 17.77 7.05 17.77 7.75C17.77 8.45 17.63 9.13 17.37 9.67C17.15 10.11 16.87 10.49 16.55 10.79C16.42 10.91 16.35 11.09 16.36 11.27C16.37 11.45 16.46 11.61 16.61 11.72C17 12 17.34 12.39 17.63 12.87C17.97 13.46 18.15 14.26 18.15 15.26C18.15 15.99 18.04 16.68 17.83 17.33L17.82 17.32Z" fill="#938F8F"/>
<path d="M13.59 5.95H9.35C8.88 5.95 8.77 6.26 8.77 6.6C8.77 6.86 8.77 8.68 8.77 9.56C8.77 9.9 8.9 10.03 9.32 10.03H13.61C14.51 10 15.22 9.1 15.22 7.98C15.22 6.86 14.5 5.94 13.59 5.94V5.95ZM13.63 8.97C13.63 8.97 9.93 8.97 9.88 8.97C9.83 8.97 9.78 8.97 9.78 8.84C9.78 8.74 9.78 7.52 9.78 7.16C9.78 7.09 9.82 7.06 9.88 7.06H13.64C13.84 7.06 14.14 7.43 14.14 8.02C14.14 8.55 13.87 8.96 13.63 8.98V8.97Z" fill="#938F8F"/>
<path d="M14.26 13C14.11 12.93 13.93 12.9 13.76 12.9H9.14C9.03 12.9 8.78 12.87 8.78 13.28C8.78 13.61 8.78 16.25 8.78 17.26C8.78 17.57 8.95 17.65 9.09 17.65H13.76C13.97 17.65 14.2 17.55 14.27 17.52C14.92 17.23 15.57 16.37 15.57 15.28C15.57 14.3 15.01 13.33 14.27 13H14.26ZM13.83 16.51H13.81C13.81 16.51 13.77 16.54 13.75 16.54H9.94C9.88 16.54 9.82 16.54 9.82 16.42C9.82 15.93 9.82 14.19 9.82 14.14C9.82 14.08 9.8 14.01 9.93 14.01H13.79C13.79 14.01 13.83 14.01 13.85 14.01C14.08 14.12 14.47 14.62 14.47 15.27C14.47 15.92 14.09 16.39 13.83 16.5V16.51Z" fill="#938F8F"/>
</g>
</g>
</svg>
