<svg width="24" height="24" viewBox="0 0 24 24" fill="none" xmlns="http://www.w3.org/2000/svg">
<g id="icon/filled/home_logo">
<path id="icon" fill-rule="evenodd" clip-rule="evenodd" d="M18.381 12.8087C18.0353 12.2244 17.6145 11.7519 17.127 11.3987C17.538 11.0207 17.874 10.5609 18.1425 10.0247C18.4657 9.36241 18.6368 8.58166 18.6368 7.69816C18.6368 6.87391 18.5078 6.11941 18.2587 5.44741C18.0037 4.76041 17.6318 4.17691 17.1465 3.70891C16.671 3.23941 16.083 2.86816 15.3683 2.58841C14.709 2.34016 13.9688 2.21191 13.1798 2.21191H5.0625V17.8892C5.0625 18.0414 5.10825 18.4292 5.415 18.7547L7.36125 20.7782L7.956 21.4029C7.956 21.4097 7.96275 21.4097 7.96875 21.4127L8.0205 21.4614H8.02725C8.1855 21.5919 8.46375 21.7494 8.874 21.7494H13.3027C14.0302 21.7494 14.7218 21.6414 15.3585 21.4224L15.4493 21.3932C15.5363 21.3602 15.627 21.3309 15.7178 21.2919C16.4355 20.9814 17.0468 20.5524 17.5313 20.0109C18.0158 19.4694 18.3945 18.8184 18.6465 18.0662C18.8888 17.3282 19.0185 16.5219 19.0185 15.6684C19.0185 14.4924 18.8018 13.5287 18.3818 12.8094L18.381 12.8087ZM8.95125 6.34741H13.6065C14.2432 6.34741 14.7607 7.06666 14.7607 7.95541C14.7607 8.84416 14.2568 9.54391 13.6103 9.56341H8.949L8.952 6.34741H8.95125ZM14.1075 17.5734C13.9973 17.6274 13.8653 17.6634 13.8098 17.6634H8.961L8.95125 13.7102L8.958 13.7049H13.8105C13.9012 13.7049 14.043 13.7312 14.1083 13.7604C14.619 13.9817 15.1658 14.7812 15.1658 15.6872C15.1658 16.5932 14.6258 17.3477 14.1083 17.5734H14.1075Z" fill="#FF3746"/>
</g>
</svg>
