<svg width="24" height="24" viewBox="0 0 24 24" fill="none" xmlns="http://www.w3.org/2000/svg">
<g id="icon/filled/home_logo">
<path id="icon" fill-rule="evenodd" clip-rule="evenodd" d="M18.8153 12.8891C18.6293 12.5749 18.4237 12.2914 18.1988 12.0386C18.0668 11.8909 17.9288 11.7529 17.784 11.6261C17.6243 11.4859 17.6085 11.2444 17.7518 11.0869C17.8635 10.9639 17.97 10.8349 18.0697 10.6991C18.2513 10.4531 18.414 10.1854 18.558 9.89664C18.732 9.54038 18.8648 9.15263 18.954 8.73563C19.0433 8.31788 19.0898 7.87088 19.0898 7.39688C19.0898 6.95363 19.0553 6.52988 18.987 6.12563C18.9188 5.72213 18.8175 5.33888 18.6832 4.97738C18.546 4.60838 18.3773 4.26638 18.1785 3.95438C17.9798 3.64238 17.7487 3.35963 17.4885 3.10838C17.2327 2.85638 16.947 2.62988 16.6298 2.42963C16.3125 2.22938 15.9615 2.05388 15.5775 1.90388C15.2228 1.77038 14.847 1.66913 14.4532 1.60163C14.0595 1.53413 13.6485 1.49963 13.2247 1.49963H5.25C4.836 1.49963 4.5 1.83563 4.5 2.24963V18.3506C4.5 18.4324 4.512 18.5771 4.566 18.7459C4.62 18.9146 4.7145 19.1059 4.87875 19.2806L5.92425 20.3681L6.96975 21.4556L7.28925 21.7916L7.60875 22.1276C7.60875 22.1276 7.61025 22.1329 7.61325 22.1344C7.61625 22.1359 7.61925 22.1366 7.623 22.1381L7.65075 22.1644L7.6785 22.1906H7.68525C7.77075 22.2611 7.88775 22.3384 8.0385 22.3984C8.18925 22.4584 8.3745 22.5004 8.595 22.5004H13.3553C13.746 22.5004 14.1278 22.4711 14.4968 22.4126C14.8658 22.3541 15.2228 22.2664 15.5655 22.1486L15.6143 22.1329L15.663 22.1171C15.7102 22.0991 15.7575 22.0826 15.8063 22.0654C15.855 22.0481 15.903 22.0294 15.9518 22.0084C16.3373 21.8411 16.6943 21.6424 17.0205 21.4129C17.3468 21.1834 17.6408 20.9224 17.9018 20.6314C18.162 20.3404 18.3945 20.0201 18.5948 19.6714C18.795 19.3226 18.9645 18.9454 19.1003 18.5411C19.2308 18.1444 19.3305 17.7296 19.398 17.2991C19.4655 16.8686 19.5 16.4224 19.5 15.9634C19.5 15.3311 19.4415 14.7566 19.3268 14.2429C19.212 13.7291 19.041 13.2769 18.8153 12.8899V12.8891ZM8.67975 6.31913C8.67975 6.21563 8.72175 6.12188 8.79 6.05438C8.85825 5.98688 8.95125 5.94488 9.05475 5.94488H13.6838C14.0258 5.94488 14.3362 6.13838 14.5605 6.45113C14.7847 6.76388 14.9242 7.19588 14.9242 7.67363C14.9242 8.15138 14.7885 8.56763 14.5665 8.88038C14.3445 9.19313 14.0347 9.39188 13.6875 9.40238H9.0525C8.949 9.40238 8.85525 9.36038 8.787 9.29213C8.71875 9.22388 8.6775 9.13013 8.6775 9.02663L8.679 7.67363L8.6805 6.32063L8.67975 6.31913ZM14.2223 18.0109C14.163 18.0401 14.0978 18.0641 14.04 18.0806C13.9823 18.0971 13.932 18.1069 13.902 18.1069H9.0645C8.8575 18.1069 8.69025 17.9396 8.6895 17.7326L8.685 15.9821L8.6805 14.2316C8.6805 14.0246 8.847 13.8566 9.054 13.8559C9.777 13.8536 11.2943 13.8521 11.2943 13.8521H13.902C13.9507 13.8521 14.013 13.8589 14.0723 13.8701C14.1315 13.8814 14.187 13.8964 14.2215 13.9121C14.496 14.0306 14.7803 14.3051 14.9955 14.6719C15.2108 15.0386 15.3577 15.4969 15.3577 15.9836C15.3577 16.4704 15.213 16.9241 14.9978 17.2766C14.7825 17.6291 14.499 17.8894 14.2215 18.0109H14.2223Z" fill="#EC2A38"/>
</g>
</svg>
