<svg width="24" height="24" viewBox="0 0 24 24" fill="none" xmlns="http://www.w3.org/2000/svg">
<g id="icon/outlined/gift">
<path id="icon" d="M20.25 6H18.2227C18.5932 5.4795 18.7935 4.83075 18.7417 4.1325C18.6337 2.682 17.304 1.5 15.8497 1.5H15.675C14.112 1.5 12.7455 2.33925 12 3.591C11.2545 2.33925 9.888 1.5 8.325 1.5H8.15024C6.69599 1.5 5.36625 2.682 5.25825 4.1325C5.2065 4.83075 5.40674 5.4795 5.77724 6H3.75C3.336 6 3 6.336 3 6.75V10.95C3 11.364 3.336 11.7 3.75 11.7V16.9395C3.75 17.1383 3.82949 17.3295 3.96974 17.4705C5.22825 18.729 6.021 19.5218 7.2795 20.7803C7.4205 20.9213 7.61099 21 7.81049 21H19.5C19.914 21 20.25 20.664 20.25 20.25V11.7C20.664 11.7 21 11.364 21 10.95V6.75C21 6.336 20.664 6 20.25 6ZM15.675 2.7H15.8617C16.7205 2.7 17.4652 3.3405 17.5432 4.19625C17.6325 5.175 16.8608 6 15.9 6H12.6V5.775C12.6 4.077 13.977 2.7 15.675 2.7ZM6.45675 4.19625C6.53475 3.34125 7.27949 2.7 8.13824 2.7H8.325C10.023 2.7 11.4 4.077 11.4 5.775V6H8.1C7.13925 6 6.3675 5.175 6.45675 4.19625ZM4.2 7.575C4.2 7.368 4.368 7.2 4.575 7.2H19.425C19.632 7.2 19.8 7.368 19.8 7.575V10.125C19.8 10.332 19.632 10.5 19.425 10.5H4.575C4.368 10.5 4.2 10.332 4.2 10.125V7.575ZM18.675 19.8H8.1525C8.05275 19.8 7.95749 19.7603 7.88699 19.6905L5.283 17.0865L5.0595 16.863C4.989 16.7925 4.95 16.6973 4.95 16.5975V11.7H11.4V15.9C11.4 16.2315 11.6685 16.5 12 16.5C12.3315 16.5 12.6 16.2315 12.6 15.9V11.7H19.05V19.425C19.05 19.632 18.882 19.8 18.675 19.8Z" fill="#938F8F"/>
</g>
</svg>
