<svg width="24" height="24" viewBox="0 0 24 24" fill="none" xmlns="http://www.w3.org/2000/svg">
<g id="icon/outlined/home_logo_4">
<g id="icon">
<path d="M18.5281 12.4575L18.5266 12.4545C18.2858 12.0473 18.0076 11.6888 17.6963 11.3835C17.9333 11.091 18.1433 10.764 18.3241 10.4025C18.6736 9.68702 18.8506 8.86127 18.8506 7.94927C18.8506 7.11002 18.7186 6.32702 18.4568 5.62127C18.1838 4.88777 17.7826 4.26227 17.2696 3.76652C16.7663 3.26927 16.1356 2.87027 15.3931 2.58002C15.3908 2.57927 15.3886 2.57852 15.3863 2.57702C14.6948 2.31602 13.9306 2.18402 13.1146 2.18402H5.4728C5.1413 2.18402 4.8728 2.45252 4.8728 2.78402V17.5433C4.8728 17.7075 4.9088 18.282 5.3723 18.774L7.2023 20.6768L7.72955 21.231C7.7603 21.2693 7.7963 21.3045 7.8368 21.3345L7.84505 21.3428C7.87355 21.3698 7.9043 21.3938 7.93805 21.414C8.1698 21.5895 8.53955 21.7785 9.06155 21.7785H13.2308C13.9861 21.7785 14.7008 21.6645 15.3571 21.4395L15.4381 21.4133C15.4463 21.4103 15.4546 21.4073 15.4628 21.4043C15.4861 21.3953 15.5093 21.387 15.5333 21.3788C15.5963 21.3563 15.6676 21.3308 15.7426 21.2978C16.5023 20.9685 17.1473 20.5125 17.6588 19.9418C18.1763 19.3635 18.5701 18.6773 18.8318 17.898C19.0838 17.1308 19.2121 16.3088 19.2121 15.453C19.2121 14.2403 18.9826 13.233 18.5303 12.459L18.5281 12.4575ZM17.6903 17.5185C17.4826 18.1388 17.1698 18.6848 16.7626 19.14C16.3681 19.581 15.8633 19.9358 15.2626 20.196C15.2228 20.2133 15.1756 20.2305 15.1253 20.2485C15.1006 20.2575 15.0758 20.2665 15.0511 20.2755L14.9783 20.2995C14.9783 20.2995 14.9723 20.3018 14.9693 20.3025C14.4383 20.4855 13.8526 20.5778 13.2293 20.5778H9.06005C8.8508 20.5778 8.7188 20.505 8.64455 20.4443C8.63705 20.4383 8.6288 20.4323 8.6213 20.4263C8.61605 20.4203 8.6093 20.415 8.60405 20.4098L8.06855 19.8473L6.2408 17.9468C6.0743 17.7705 6.0728 17.553 6.0728 17.544V3.38477H13.1146C13.7843 3.38477 14.4053 3.49052 14.9596 3.69902C15.5558 3.93302 16.0358 4.23452 16.4318 4.62602C16.8203 5.00102 17.1233 5.47652 17.3326 6.03902C17.5441 6.61052 17.6513 7.25327 17.6513 7.95002C17.6513 8.64677 17.5148 9.32627 17.2493 9.87152C17.0273 10.3155 16.7498 10.692 16.4243 10.992C16.2916 11.1135 16.2211 11.289 16.2316 11.469C16.2421 11.649 16.3328 11.814 16.4791 11.9198C16.8698 12.2025 17.2118 12.588 17.4946 13.065C17.8373 13.653 18.0113 14.4563 18.0113 15.453C18.0113 16.1813 17.9033 16.8773 17.6926 17.52L17.6903 17.5185Z" fill="#121212"/>
<path d="M13.5361 10.305C14.4698 10.2765 15.2011 9.34802 15.2011 8.19152C15.2011 7.03502 14.4601 6.07802 13.5143 6.07802H8.5328L8.5283 10.3058H13.5353L13.5361 10.305ZM9.7298 9.10502L9.7313 7.27727H13.5143C13.7123 7.27727 14.0011 7.63352 14.0011 8.19077C14.0011 8.70077 13.7408 9.09077 13.5053 9.10427L9.7298 9.10502Z" fill="#121212"/>
<path d="M14.2283 13.107C14.0686 13.0358 13.8466 13.0035 13.7063 13.0035H8.53055L8.54255 17.9303H13.7063C13.9253 17.9303 14.1653 17.8245 14.2373 17.7908C14.9071 17.4915 15.5813 16.602 15.5813 15.4703C15.5813 14.4585 15.0008 13.443 14.2283 13.107ZM13.7468 16.6958L13.7228 16.707C13.7033 16.7168 13.6793 16.725 13.6621 16.7303H9.7403L9.7343 14.2035H13.7041C13.7176 14.2035 13.7438 14.208 13.7603 14.2125C13.9898 14.3235 14.3813 14.823 14.3813 15.4703C14.3813 16.1175 14.0033 16.584 13.7468 16.6958Z" fill="#121212"/>
</g>
</g>
</svg>
