<svg width="20" height="20" viewBox="0 0 20 20" fill="none" xmlns="http://www.w3.org/2000/svg">
<g id="icon/outlined/exclamation_circle">
<g id="icon">
<path fill-rule="evenodd" clip-rule="evenodd" d="M10 16.25C13.4518 16.25 16.25 13.4518 16.25 10C16.25 6.54822 13.4518 3.75 10 3.75C6.54822 3.75 3.75 6.54822 3.75 10C3.75 13.4518 6.54822 16.25 10 16.25ZM10 17.5C14.1421 17.5 17.5 14.1421 17.5 10C17.5 5.85786 14.1421 2.5 10 2.5C5.85786 2.5 2.5 5.85786 2.5 10C2.5 14.1421 5.85786 17.5 10 17.5Z" fill="#fff"/>
<path d="M10.8333 6.66667C10.8333 7.1269 10.4627 7.5 10.0055 7.5H9.99448C9.53729 7.5 9.16667 7.1269 9.16667 6.66667C9.16667 6.20643 9.53729 5.83333 9.99448 5.83333H10.0055C10.4627 5.83333 10.8333 6.20643 10.8333 6.66667Z" fill="#fff"/>
<path d="M10 14.5833C9.58579 14.5833 9.25 14.2475 9.25 13.8333L9.25 9.83333C9.25 9.41912 9.58579 9.08333 10 9.08333C10.4142 9.08333 10.75 9.41912 10.75 9.83333L10.75 13.8333C10.75 14.2475 10.4142 14.5833 10 14.5833Z" fill="#fff"/>
</g>
</g>
</svg>
