<svg width="20" height="20" viewBox="0 0 20 20" fill="none" xmlns="http://www.w3.org/2000/svg">
<g id="icon/outlined/webtoon">
<path id="icon" d="M8.62695 2.5H3.12695C2.78195 2.5 2.50195 2.78 2.50195 3.125V14.1163C2.50195 14.2819 2.5682 14.4412 2.68508 14.5588C3.73383 15.6075 4.39445 16.2681 5.4432 17.3169C5.5607 17.4344 5.71945 17.5 5.8857 17.5H16.877C17.222 17.5 17.502 17.22 17.502 16.875V3.125C17.502 2.78 17.222 2.5 16.877 2.5H8.62695ZM6.1707 16.5C6.08758 16.5 6.0082 16.4669 5.94945 16.4088L4.77133 15.2306L3.5932 14.0525C3.53445 13.9937 3.50195 13.9144 3.50195 13.8313V3.8125C3.50195 3.64 3.64195 3.5 3.81445 3.5H7.62695V16.5H6.1707ZM16.1895 16.5H8.62695V12.5L16.502 10.1706V16.1875C16.502 16.36 16.362 16.5 16.1895 16.5ZM8.62695 11.5V3.5H16.1895C16.362 3.5 16.502 3.64 16.502 3.8125V9.17062L8.62695 11.5Z" fill="white"/>
</g>
</svg>
