<svg width="20" height="20" viewBox="0 0 20 20" fill="none" xmlns="http://www.w3.org/2000/svg">
<g id="icon/outlined/chat">
<g id="icon">
<path fill-rule="evenodd" clip-rule="evenodd" d="M10 3.125C6.20304 3.125 3.125 6.20304 3.125 10C3.125 10.8437 3.27667 11.6505 3.5537 12.3956C3.77651 12.9949 3.90032 13.6853 3.76024 14.3857L3.48058 15.784C3.39312 16.2213 3.77869 16.6069 4.21602 16.5194L5.61432 16.2398C6.3147 16.0997 7.00511 16.2235 7.60442 16.4463C8.34954 16.7233 9.15635 16.875 10 16.875C13.797 16.875 16.875 13.797 16.875 10C16.875 6.20304 13.797 3.125 10 3.125ZM1.875 10C1.875 5.51269 5.51269 1.875 10 1.875C14.4873 1.875 18.125 5.51269 18.125 10C18.125 14.4873 14.4873 18.125 10 18.125C9.00543 18.125 8.05123 17.946 7.16882 17.6179C6.71149 17.4479 6.26449 17.3845 5.85946 17.4655L4.46116 17.7451C3.14918 18.0075 1.99246 16.8508 2.25485 15.5388L2.53452 14.1405C2.61552 13.7355 2.55208 13.2885 2.38205 12.8312C2.05399 11.9488 1.875 10.9946 1.875 10Z" fill="#121212"/>
<path d="M7.5 10C7.5 10.4602 7.1269 10.8333 6.66667 10.8333C6.20643 10.8333 5.83333 10.4602 5.83333 10C5.83333 9.53976 6.20643 9.16667 6.66667 9.16667C7.1269 9.16667 7.5 9.53976 7.5 10Z" fill="#121212"/>
<path fill-rule="evenodd" clip-rule="evenodd" d="M6.66667 9.33333C6.29848 9.33333 6 9.63181 6 10C6 10.3682 6.29848 10.6667 6.66667 10.6667C7.03486 10.6667 7.33333 10.3682 7.33333 10C7.33333 9.63181 7.03486 9.33333 6.66667 9.33333ZM5.66667 10C5.66667 9.44772 6.11438 9 6.66667 9C7.21895 9 7.66667 9.44772 7.66667 10C7.66667 10.5523 7.21895 11 6.66667 11C6.11438 11 5.66667 10.5523 5.66667 10Z" fill="#121212"/>
<path d="M10.8333 10C10.8333 10.4602 10.4602 10.8333 10 10.8333C9.53976 10.8333 9.16667 10.4602 9.16667 10C9.16667 9.53976 9.53976 9.16667 10 9.16667C10.4602 9.16667 10.8333 9.53976 10.8333 10Z" fill="#121212"/>
<path fill-rule="evenodd" clip-rule="evenodd" d="M10 9.33333C9.63181 9.33333 9.33333 9.63181 9.33333 10C9.33333 10.3682 9.63181 10.6667 10 10.6667C10.3682 10.6667 10.6667 10.3682 10.6667 10C10.6667 9.63181 10.3682 9.33333 10 9.33333ZM9 10C9 9.44772 9.44772 9 10 9C10.5523 9 11 9.44772 11 10C11 10.5523 10.5523 11 10 11C9.44772 11 9 10.5523 9 10Z" fill="#121212"/>
<path d="M14.1667 10C14.1667 10.4602 13.7936 10.8333 13.3333 10.8333C12.8731 10.8333 12.5 10.4602 12.5 10C12.5 9.53976 12.8731 9.16667 13.3333 9.16667C13.7936 9.16667 14.1667 9.53976 14.1667 10Z" fill="#121212"/>
<path fill-rule="evenodd" clip-rule="evenodd" d="M13.3333 9.33333C12.9651 9.33333 12.6667 9.63181 12.6667 10C12.6667 10.3682 12.9651 10.6667 13.3333 10.6667C13.7015 10.6667 14 10.3682 14 10C14 9.63181 13.7015 9.33333 13.3333 9.33333ZM12.3333 10C12.3333 9.44772 12.781 9 13.3333 9C13.8856 9 14.3333 9.44772 14.3333 10C14.3333 10.5523 13.8856 11 13.3333 11C12.781 11 12.3333 10.5523 12.3333 10Z" fill="#121212"/>
</g>
</g>
</svg>
