<svg width="20" height="20" viewBox="0 0 20 20" fill="none" xmlns="http://www.w3.org/2000/svg">
<g id="icon/outlined/edit">
<path id="icon" fill-rule="evenodd" clip-rule="evenodd" d="M16.4478 3.55214C15.8783 2.98262 14.9549 2.98262 14.3854 3.55214L13.5774 4.36019L15.6398 6.42259L16.4478 5.61453C17.0173 5.04502 17.0173 4.12165 16.4478 3.55214ZM17.3317 6.49841C18.3894 5.44074 18.3894 3.72592 17.3317 2.66825C16.274 1.61058 14.5592 1.61058 13.5015 2.66825L2.05806 14.1117C1.94085 14.2289 1.875 14.3879 1.875 14.5537V17.5296C1.875 17.8747 2.15482 18.1546 2.5 18.1546H5.41667C5.58243 18.1546 5.7414 18.0887 5.85861 17.9715L17.3317 6.49841ZM14.7559 7.30647L12.6935 5.24408L3.125 14.8126V16.9046H5.15778L14.7559 7.30647Z" fill="#121212"/>
</g>
</svg>
