<svg width="20" height="20" viewBox="0 0 20 20" fill="none" xmlns="http://www.w3.org/2000/svg">
<g id="icon/outlined/home_logo_4">
<g id="icon">
<path d="M15.4399 10.3811L15.4387 10.3786C15.238 10.0392 15.0062 9.74045 14.7468 9.48607C14.9443 9.24232 15.1193 8.96982 15.2699 8.66857C15.5612 8.07232 15.7087 7.3842 15.7087 6.6242C15.7087 5.92482 15.5987 5.27232 15.3805 4.6842C15.153 4.07295 14.8187 3.5517 14.3912 3.13857C13.9718 2.7242 13.4462 2.3917 12.8274 2.14982C12.8255 2.1492 12.8237 2.14857 12.8218 2.14732C12.2455 1.92982 11.6087 1.81982 10.9287 1.81982H4.56055C4.2843 1.81982 4.06055 2.04357 4.06055 2.31982V14.6192C4.06055 14.7561 4.09055 15.2348 4.4768 15.6448L6.0018 17.2305L6.44117 17.6923C6.4668 17.7242 6.4968 17.7536 6.53055 17.7786L6.53742 17.7855C6.56117 17.808 6.5868 17.8279 6.61492 17.8448C6.80805 17.9911 7.11617 18.1486 7.55117 18.1486H11.0255C11.6549 18.1486 12.2505 18.0536 12.7974 17.8661L12.8649 17.8442C12.8718 17.8417 12.8787 17.8392 12.8855 17.8367C12.9049 17.8292 12.9243 17.8223 12.9443 17.8154C12.9968 17.7967 13.0562 17.7754 13.1187 17.7479C13.7518 17.4736 14.2893 17.0936 14.7155 16.618C15.1468 16.1361 15.4749 15.5642 15.693 14.9148C15.903 14.2754 16.0099 13.5904 16.0099 12.8773C16.0099 11.8667 15.8187 11.0273 15.4418 10.3823L15.4399 10.3811ZM14.7418 14.5986C14.5687 15.1154 14.308 15.5704 13.9687 15.9498C13.6399 16.3173 13.2193 16.6129 12.7187 16.8298C12.6855 16.8442 12.6462 16.8586 12.6043 16.8736C12.5837 16.8811 12.563 16.8886 12.5424 16.8961L12.4818 16.9161C12.4818 16.9161 12.4768 16.918 12.4743 16.9186C12.0318 17.0711 11.5437 17.148 11.0243 17.148H7.54992C7.37555 17.148 7.26555 17.0873 7.20367 17.0367C7.19742 17.0317 7.19055 17.0267 7.1843 17.0217C7.17992 17.0167 7.1743 17.0123 7.16992 17.008L6.72367 16.5392L5.20055 14.9554C5.0618 14.8086 5.06055 14.6273 5.06055 14.6198V2.82045H10.9287C11.4868 2.82045 12.0043 2.90857 12.4662 3.08232C12.963 3.27732 13.363 3.52857 13.693 3.85482C14.0168 4.16732 14.2693 4.56357 14.4437 5.03232C14.6199 5.50857 14.7093 6.0442 14.7093 6.62482C14.7093 7.20545 14.5955 7.7717 14.3743 8.22607C14.1893 8.59607 13.958 8.90982 13.6868 9.15982C13.5762 9.26107 13.5174 9.40732 13.5262 9.55732C13.5349 9.70732 13.6105 9.84482 13.7324 9.93295C14.058 10.1686 14.343 10.4898 14.5787 10.8873C14.8643 11.3773 15.0093 12.0467 15.0093 12.8773C15.0093 13.4842 14.9193 14.0642 14.7437 14.5998L14.7418 14.5986Z" fill="white"/>
<path d="M11.2799 8.58732C12.058 8.56357 12.6674 7.78982 12.6674 6.82607C12.6674 5.86232 12.0499 5.06482 11.2618 5.06482H7.11055L7.1068 8.58795H11.2793L11.2799 8.58732ZM8.10805 7.58732L8.1093 6.0642H11.2618C11.4268 6.0642 11.6674 6.36107 11.6674 6.82545C11.6674 7.25045 11.4505 7.57545 11.2543 7.5867L8.10805 7.58732Z" fill="white"/>
<path d="M11.8568 10.9223C11.7237 10.8629 11.5387 10.8361 11.4218 10.8361H7.10867L7.11867 14.9417H11.4218C11.6043 14.9417 11.8043 14.8536 11.8643 14.8254C12.4224 14.5761 12.9843 13.8348 12.9843 12.8917C12.9843 12.0486 12.5005 11.2023 11.8568 10.9223ZM11.4555 13.9129L11.4355 13.9223C11.4193 13.9304 11.3993 13.9373 11.3849 13.9417H8.1168L8.1118 11.8361H11.4199C11.4312 11.8361 11.453 11.8398 11.4668 11.8436C11.658 11.9361 11.9843 12.3523 11.9843 12.8917C11.9843 13.4311 11.6693 13.8198 11.4555 13.9129Z" fill="white"/>
</g>
</g>
</svg>
