<svg width="24" height="24" viewBox="0 0 24 24" fill="none" xmlns="http://www.w3.org/2000/svg">
<g id="icon/filled/gift">
<g id="icon">
<path d="M12 16.4998C11.793 16.4998 11.6055 16.4158 11.4697 16.28C11.334 16.1443 11.25 15.9568 11.25 15.7498V11.9998H4.5C4.086 11.9998 3.75 12.3358 3.75 12.7498V17.0945C3.75 17.1943 3.78975 17.2895 3.8595 17.36L7.3905 20.891C7.461 20.9615 7.55625 21.0005 7.656 21.0005H19.5008C19.7078 21.0005 19.8953 20.9165 20.031 20.7808C20.1667 20.645 20.2508 20.4575 20.2508 20.2505V12.7505C20.2508 12.3365 19.9148 12.0005 19.5008 12.0005H12.7507V15.7505C12.7507 15.9575 12.6668 16.145 12.531 16.2808C12.3953 16.4165 12.2078 16.5005 12.0007 16.5005L12 16.4998Z" fill="#FF3746"/>
<path d="M18.348 5.99977C18.6038 5.55877 18.75 5.04652 18.75 4.49977C18.75 2.86927 17.4488 1.52452 15.8183 1.50052C14.1878 1.47652 12.8175 2.28202 12 3.51277C11.1825 2.28202 9.7755 1.47652 8.18175 1.50052C6.552 1.52452 5.25 2.87002 5.25 4.49977C5.25 5.04652 5.397 5.55877 5.652 5.99977H3.75C3.336 5.99977 3 6.33577 3 6.74977V9.74977C3 10.1638 3.336 10.4998 3.75 10.4998H20.25C20.664 10.4998 21 10.1638 21 9.74977V6.74977C21 6.33577 20.664 5.99977 20.25 5.99977H18.348ZM11.25 5.99977H8.28675C7.4745 5.99977 6.7815 5.36902 6.75075 4.55752C6.7185 3.70402 7.40325 2.99977 8.25 2.99977C9.9045 2.99977 11.25 4.34527 11.25 5.99977ZM15.7133 5.99977H12.75C12.75 4.34527 14.0955 2.99977 15.75 2.99977C16.596 2.99977 17.2815 3.70402 17.2493 4.55752C17.217 5.41102 16.5255 5.99977 15.7133 5.99977Z" fill="#FF3746"/>
</g>
</g>
</svg>
