<svg width="24" height="24" viewBox="0 0 24 24" fill="none" xmlns="http://www.w3.org/2000/svg">
<g id="icon/outlined/novel">
<g id="icon">
<path d="M3.00098 3.75V16.9395C3.00098 17.1383 3.08048 17.3295 3.22073 17.4705C4.47923 18.729 5.27198 19.5218 6.53048 20.7803C6.67148 20.9213 6.86198 21 7.06148 21H20.251C20.665 21 21.001 20.664 21.001 20.25V3.75C21.001 3.336 20.665 3 20.251 3H3.75098C3.33698 3 3.00098 3.336 3.00098 3.75ZM19.426 19.8H7.40348C7.30373 19.8 7.20848 19.7603 7.13798 19.6905L4.31048 16.863C4.23998 16.7925 4.20098 16.6973 4.20098 16.5975V4.575C4.20098 4.368 4.36898 4.2 4.57598 4.2H19.426C19.633 4.2 19.801 4.368 19.801 4.575V19.425C19.801 19.632 19.633 19.8 19.426 19.8Z" fill="#121212"/>
<path d="M15.901 7.65H8.10098C7.76961 7.65 7.50098 7.91863 7.50098 8.25C7.50098 8.58137 7.76961 8.85 8.10098 8.85H15.901C16.2323 8.85 16.501 8.58137 16.501 8.25C16.501 7.91863 16.2323 7.65 15.901 7.65Z" fill="#121212"/>
<path d="M15.901 11.4H8.10098C7.76961 11.4 7.50098 11.6686 7.50098 12C7.50098 12.3314 7.76961 12.6 8.10098 12.6H15.901C16.2323 12.6 16.501 12.3314 16.501 12C16.501 11.6686 16.2323 11.4 15.901 11.4Z" fill="#121212"/>
<path d="M12.301 15.15H8.10098C7.76961 15.15 7.50098 15.4186 7.50098 15.75C7.50098 16.0814 7.76961 16.35 8.10098 16.35H12.301C12.6323 16.35 12.901 16.0814 12.901 15.75C12.901 15.4186 12.6323 15.15 12.301 15.15Z" fill="#121212"/>
</g>
</g>
</svg>
