<svg width="24" height="24" viewBox="0 0 24 24" fill="none" xmlns="http://www.w3.org/2000/svg">
<g id="icon/filled/novel">
<path id="icon" d="M20.25 3H3.75C3.336 3 3 3.336 3 3.75V16.9395C3 17.1383 3.07875 17.3295 3.21975 17.4698L4.875 19.125L6.53025 20.7803C6.67125 20.9213 6.86175 21 7.0605 21H20.25C20.664 21 21 20.664 21 20.25V3.75C21 3.336 20.664 3 20.25 3ZM12.15 16.5H8.25C7.836 16.5 7.5 16.164 7.5 15.75C7.5 15.336 7.836 15 8.25 15H12.15C12.564 15 12.9 15.336 12.9 15.75C12.9 16.164 12.564 16.5 12.15 16.5ZM15.75 12.75H8.25C7.836 12.75 7.5 12.414 7.5 12C7.5 11.586 7.836 11.25 8.25 11.25H15.75C16.164 11.25 16.5 11.586 16.5 12C16.5 12.414 16.164 12.75 15.75 12.75ZM15.75 9H8.25C7.836 9 7.5 8.664 7.5 8.25C7.5 7.836 7.836 7.5 8.25 7.5H15.75C16.164 7.5 16.5 7.836 16.5 8.25C16.5 8.664 16.164 9 15.75 9Z" fill="#FF3746"/>
</g>
</svg>
