<svg width="24" height="24" viewBox="0 0 24 24" fill="none" xmlns="http://www.w3.org/2000/svg">
<g id="icon/filled/storage">
<g id="icon">
<path d="M3.96974 17.4703C5.22825 18.7288 6.021 19.5215 7.2795 20.78C7.4205 20.921 7.61099 20.9998 7.81049 20.9998H19.5C19.914 20.9998 20.25 20.6638 20.25 20.2498V9.74976C20.25 9.33576 19.914 8.99976 19.5 8.99976H4.5C4.086 8.99976 3.75 9.33576 3.75 9.74976V16.9393C3.75 17.138 3.82949 17.3293 3.96974 17.4703ZM10.5 10.5005H13.5C13.914 10.5005 14.25 10.8365 14.25 11.2505C14.25 11.6645 13.914 12.0005 13.5 12.0005H10.5C10.086 12.0005 9.75 11.6645 9.75 11.2505C9.75 10.8365 10.086 10.5005 10.5 10.5005Z" fill="#FF3746"/>
<path d="M20.25 3.00049H3.75C3.33579 3.00049 3 3.33627 3 3.75049V6.75049C3 7.1647 3.33579 7.50049 3.75 7.50049H20.25C20.6642 7.50049 21 7.1647 21 6.75049V3.75049C21 3.33627 20.6642 3.00049 20.25 3.00049Z" fill="#FF3746"/>
</g>
</g>
</svg>
