<svg width="20" height="20" viewBox="0 0 20 20" fill="none" xmlns="http://www.w3.org/2000/svg">
<g id="icon/outlined/novel">
<g id="icon">
<path d="M2.50098 3.125V14.1163C2.50098 14.2819 2.56723 14.4413 2.6841 14.5588C3.73285 15.6075 4.39348 16.2681 5.44223 17.3169C5.55973 17.4344 5.71848 17.5 5.88473 17.5H16.876C17.221 17.5 17.501 17.22 17.501 16.875V3.125C17.501 2.78 17.221 2.5 16.876 2.5H3.12598C2.78098 2.5 2.50098 2.78 2.50098 3.125ZM16.1885 16.5H6.16973C6.0866 16.5 6.00723 16.4669 5.94848 16.4088L3.59223 14.0525C3.53348 13.9937 3.50098 13.9144 3.50098 13.8313V3.8125C3.50098 3.64 3.64098 3.5 3.81348 3.5H16.1885C16.361 3.5 16.501 3.64 16.501 3.8125V16.1875C16.501 16.36 16.361 16.5 16.1885 16.5Z" fill="white"/>
<path d="M13.251 6.375H6.75098C6.47483 6.375 6.25098 6.59886 6.25098 6.875C6.25098 7.15114 6.47483 7.375 6.75098 7.375H13.251C13.5271 7.375 13.751 7.15114 13.751 6.875C13.751 6.59886 13.5271 6.375 13.251 6.375Z" fill="white"/>
<path d="M13.251 9.5H6.75098C6.47483 9.5 6.25098 9.72386 6.25098 10C6.25098 10.2761 6.47483 10.5 6.75098 10.5H13.251C13.5271 10.5 13.751 10.2761 13.751 10C13.751 9.72386 13.5271 9.5 13.251 9.5Z" fill="white"/>
<path d="M10.251 12.625H6.75098C6.47483 12.625 6.25098 12.8489 6.25098 13.125C6.25098 13.4011 6.47483 13.625 6.75098 13.625H10.251C10.5271 13.625 10.751 13.4011 10.751 13.125C10.751 12.8489 10.5271 12.625 10.251 12.625Z" fill="white"/>
</g>
</g>
</svg>
