<svg width="20" height="20" viewBox="0 0 20 20" fill="none" xmlns="http://www.w3.org/2000/svg">
<g id="icon/outlined/storage">
<g id="icon">
<path d="M11.3789 8.875H8.62891C8.35276 8.875 8.12891 9.09886 8.12891 9.375C8.12891 9.65114 8.35276 9.875 8.62891 9.875H11.3789C11.655 9.875 11.8789 9.65114 11.8789 9.375C11.8789 9.09886 11.655 8.875 11.3789 8.875Z" fill="white"/>
<path d="M16.8789 2.5H3.12891C2.78391 2.5 2.50391 2.78 2.50391 3.125V6.875C2.50391 7.22 2.78391 7.5 3.12891 7.5V14.1119C3.12891 14.28 3.19641 14.4419 3.31516 14.5612C4.36141 15.6075 5.0214 16.2681 6.06765 17.3138C6.1864 17.4325 6.34828 17.5 6.5164 17.5H16.2539C16.5989 17.5 16.8789 17.22 16.8789 16.875V7.5C17.2239 7.5 17.5039 7.22 17.5039 6.875V3.125C17.5039 2.78 17.2239 2.5 16.8789 2.5ZM3.81641 3.5H16.1914C16.3639 3.5 16.5039 3.64 16.5039 3.8125V6.1875C16.5039 6.36 16.3639 6.5 16.1914 6.5H3.81641C3.64391 6.5 3.50391 6.36 3.50391 6.1875V3.8125C3.50391 3.64 3.64391 3.5 3.81641 3.5ZM15.5664 16.5H6.79765C6.71453 16.5 6.63515 16.4669 6.5764 16.4088L4.22078 14.0531C4.16203 13.9944 4.12952 13.915 4.12952 13.8319V7.50063H15.8795V16.1881C15.8795 16.3606 15.7395 16.5006 15.567 16.5006L15.5664 16.5Z" fill="white"/>
</g>
</g>
</svg>
