<svg width="24" height="24" viewBox="0 0 24 24" fill="none" xmlns="http://www.w3.org/2000/svg">
<g id="icon/filled/storage">
<g id="icon">
<path d="M3.97365 17.4701C5.23215 18.7286 6.0249 19.5214 7.2834 20.7799C7.4244 20.9209 7.6149 20.9996 7.8144 20.9996H19.5039C19.9179 20.9996 20.2539 20.6636 20.2539 20.2496V9.74963C20.2539 9.33563 19.9179 8.99963 19.5039 8.99963H4.50391C4.08991 8.99963 3.75391 9.33563 3.75391 9.74963V16.9391C3.75391 17.1379 3.8334 17.3291 3.97365 17.4701ZM10.5039 10.5004H13.5039C13.9179 10.5004 14.2539 10.8364 14.2539 11.2504C14.2539 11.6644 13.9179 12.0004 13.5039 12.0004H10.5039C10.0899 12.0004 9.75391 11.6644 9.75391 11.2504C9.75391 10.8364 10.0899 10.5004 10.5039 10.5004Z" fill="#EC2A38"/>
<path d="M20.2539 3.00037H3.75391C3.33969 3.00037 3.00391 3.33615 3.00391 3.75037V6.75037C3.00391 7.16458 3.33969 7.50037 3.75391 7.50037H20.2539C20.6681 7.50037 21.0039 7.16458 21.0039 6.75037V3.75037C21.0039 3.33615 20.6681 3.00037 20.2539 3.00037Z" fill="#EC2A38"/>
</g>
</g>
</svg>
