<svg width="24" height="24" viewBox="0 0 24 24" fill="none" xmlns="http://www.w3.org/2000/svg">
<g id="icon/outlined/webtoon">
<path id="icon" d="M10.35 3H3.75C3.336 3 3 3.336 3 3.75V16.9395C3 17.1383 3.0795 17.3295 3.21975 17.4705C4.47825 18.729 5.271 19.5218 6.5295 20.7803C6.6705 20.9213 6.861 21 7.0605 21H20.25C20.664 21 21 20.664 21 20.25V3.75C21 3.336 20.664 3 20.25 3H10.35ZM7.4025 19.8C7.30275 19.8 7.2075 19.7603 7.137 19.6905L5.72325 18.2768L4.3095 16.863C4.239 16.7925 4.2 16.6973 4.2 16.5975V4.575C4.2 4.368 4.368 4.2 4.575 4.2H9.15V19.8H7.4025ZM19.425 19.8H10.35V15L19.8 12.2048V19.425C19.8 19.632 19.632 19.8 19.425 19.8ZM10.35 13.8V4.2H19.425C19.632 4.2 19.8 4.368 19.8 4.575V11.0048L10.35 13.8Z" fill="#938F8F"/>
</g>
</svg>
