<svg width="24" height="24" viewBox="0 0 24 24" fill="none" xmlns="http://www.w3.org/2000/svg">
<g id="icon/filled/gift">
<g id="icon">
<path d="M12.0029 16.5C11.7959 16.5 11.6084 16.416 11.4727 16.2803C11.3369 16.1445 11.2529 15.957 11.2529 15.75V12H4.50293C4.08893 12 3.75293 12.336 3.75293 12.75V17.0948C3.75293 17.1945 3.79268 17.2898 3.86243 17.3603L7.39343 20.8913C7.46393 20.9618 7.55918 21.0008 7.65893 21.0008H19.5037C19.7107 21.0008 19.8982 20.9168 20.0339 20.781C20.1697 20.6453 20.2537 20.4578 20.2537 20.2508V12.7508C20.2537 12.3368 19.9177 12.0008 19.5037 12.0008H12.7537V15.7508C12.7537 15.9578 12.6697 16.1453 12.5339 16.281C12.3982 16.4168 12.2107 16.5008 12.0037 16.5008L12.0029 16.5Z" fill="#EC2A38"/>
<path d="M18.3509 6.00002C18.6067 5.55902 18.7529 5.04677 18.7529 4.50002C18.7529 2.86952 17.4517 1.52477 15.8212 1.50077C14.1907 1.47677 12.8204 2.28227 12.0029 3.51302C11.1854 2.28227 9.77843 1.47677 8.18468 1.50077C6.55493 1.52477 5.25293 2.87027 5.25293 4.50002C5.25293 5.04677 5.39993 5.55902 5.65493 6.00002H3.75293C3.33893 6.00002 3.00293 6.33602 3.00293 6.75002V9.75002C3.00293 10.164 3.33893 10.5 3.75293 10.5H20.2529C20.6669 10.5 21.0029 10.164 21.0029 9.75002V6.75002C21.0029 6.33602 20.6669 6.00002 20.2529 6.00002H18.3509ZM11.2529 6.00002H8.28968C7.47743 6.00002 6.78443 5.36927 6.75368 4.55777C6.72143 3.70427 7.40618 3.00002 8.25293 3.00002C9.90743 3.00002 11.2529 4.34552 11.2529 6.00002ZM15.7162 6.00002H12.7529C12.7529 4.34552 14.0984 3.00002 15.7529 3.00002C16.5989 3.00002 17.2844 3.70427 17.2522 4.55777C17.2199 5.41127 16.5284 6.00002 15.7162 6.00002Z" fill="#EC2A38"/>
</g>
</g>
</svg>
