<svg width="20" height="20" viewBox="0 0 20 20" fill="none" xmlns="http://www.w3.org/2000/svg">
<g id="icon/outlined/gift">
<path id="icon" d="M16.8779 5H15.1886C15.4973 4.56625 15.6642 4.02562 15.621 3.44375C15.531 2.235 14.4229 1.25 13.2111 1.25H13.0654C11.7629 1.25 10.6242 1.94938 10.0029 2.9925C9.38168 1.94938 8.24293 1.25 6.94043 1.25H6.7948C5.58292 1.25 4.4748 2.235 4.3848 3.44375C4.34168 4.02562 4.50855 4.56625 4.8173 5H3.12793C2.78293 5 2.50293 5.28 2.50293 5.625V9.125C2.50293 9.47 2.78293 9.75 3.12793 9.75V14.1163C3.12793 14.2819 3.19418 14.4412 3.31105 14.5588C4.3598 15.6075 5.02043 16.2681 6.06918 17.3169C6.18668 17.4344 6.34542 17.5 6.51167 17.5H16.2529C16.5979 17.5 16.8779 17.22 16.8779 16.875V9.75C17.2229 9.75 17.5029 9.47 17.5029 9.125V5.625C17.5029 5.28 17.2229 5 16.8779 5ZM13.0654 2.25H13.2211C13.9367 2.25 14.5573 2.78375 14.6223 3.49688C14.6967 4.3125 14.0536 5 13.2529 5H10.5029V4.8125C10.5029 3.3975 11.6504 2.25 13.0654 2.25ZM5.38355 3.49688C5.44855 2.78438 6.06917 2.25 6.7848 2.25H6.94043C8.35543 2.25 9.50293 3.3975 9.50293 4.8125V5H6.75293C5.9523 5 5.30918 4.3125 5.38355 3.49688ZM3.50293 6.3125C3.50293 6.14 3.64293 6 3.81543 6H16.1904C16.3629 6 16.5029 6.14 16.5029 6.3125V8.4375C16.5029 8.61 16.3629 8.75 16.1904 8.75H3.81543C3.64293 8.75 3.50293 8.61 3.50293 8.4375V6.3125ZM15.5654 16.5H6.79668C6.71355 16.5 6.63417 16.4669 6.57542 16.4088L4.40543 14.2388L4.21918 14.0525C4.16043 13.9937 4.12793 13.9144 4.12793 13.8313V9.75H9.50293V13.25C9.50293 13.5262 9.72668 13.75 10.0029 13.75C10.2792 13.75 10.5029 13.5262 10.5029 13.25V9.75H15.8779V16.1875C15.8779 16.36 15.7379 16.5 15.5654 16.5Z" fill="white"/>
</g>
</svg>
