<svg width="24" height="24" viewBox="0 0 24 24" fill="none" xmlns="http://www.w3.org/2000/svg">
<g id="icon/outlined/webtoon">
<path id="icon" d="M10.352 3H3.75195C3.33795 3 3.00195 3.336 3.00195 3.75V16.9395C3.00195 17.1383 3.08145 17.3295 3.2217 17.4705C4.4802 18.729 5.27295 19.5218 6.53145 20.7803C6.67245 20.9213 6.86295 21 7.06245 21H20.252C20.666 21 21.002 20.664 21.002 20.25V3.75C21.002 3.336 20.666 3 20.252 3H10.352ZM7.40445 19.8C7.3047 19.8 7.20945 19.7603 7.13895 19.6905L5.7252 18.2768L4.31145 16.863C4.24095 16.7925 4.20195 16.6973 4.20195 16.5975V4.575C4.20195 4.368 4.36995 4.2 4.57695 4.2H9.15195V19.8H7.40445ZM19.427 19.8H10.352V15L19.802 12.2048V19.425C19.802 19.632 19.634 19.8 19.427 19.8ZM10.352 13.8V4.2H19.427C19.634 4.2 19.802 4.368 19.802 4.575V11.0048L10.352 13.8Z" fill="#121212"/>
</g>
</svg>
