<svg width="24" height="24" viewBox="0 0 24 24" fill="none" xmlns="http://www.w3.org/2000/svg">
<path fill-rule="evenodd" clip-rule="evenodd" d="M12.8304 4.74148C12.3569 4.32053 11.6431 4.32053 11.1696 4.74148L5.75001 9.55889V17.6786L8.44828 20.2499H11.25V14.4999C11.25 14.0856 11.5858 13.7499 12 13.7499C12.4142 13.7499 12.75 14.0856 12.75 14.4999V20.2499H18.25V9.55889L12.8304 4.74148ZM19.75 10.8922V20.9999C19.75 21.4141 19.4142 21.7499 19 21.7499H8.14816C7.9555 21.7499 7.77023 21.6757 7.63076 21.5428L4.48261 18.5428C4.33407 18.4013 4.25001 18.205 4.25001 17.9999V10.8922L3.49828 11.5604C3.18869 11.8356 2.71464 11.8077 2.43945 11.4981C2.16426 11.1885 2.19215 10.7145 2.50174 10.4393L10.173 3.62041C10.173 3.62042 10.173 3.6204 10.173 3.62041C11.2149 2.69425 12.7851 2.69423 13.827 3.62039C13.827 3.62038 13.827 3.6204 13.827 3.62039L21.4983 10.4393C21.8079 10.7145 21.8358 11.1885 21.5606 11.4981C21.2854 11.8077 20.8113 11.8356 20.5017 11.5604L19.75 10.8922Z" fill="white"/>
</svg>
