<svg width="48" height="48" viewBox="0 0 48 48" fill="none" xmlns="http://www.w3.org/2000/svg">
<path d="M13 11.5H28C34.9036 11.5 40.5 17.0964 40.5 24C40.5 30.9036 34.9036 36.5 28 36.5H13C6.09644 36.5 0.5 30.9036 0.5 24C0.5 17.0964 6.09644 11.5 13 11.5Z" stroke="white" stroke-opacity="0.1"/>
<path d="M12.5675 18.4613C14.361 18.4613 15.6228 19.4427 15.6324 20.9026C15.6228 22.1499 14.6704 23.0635 13.2491 23.2811V24.3785C14.332 24.3156 15.4246 24.2189 16.4398 24.0691L16.5413 25.0262C13.9695 25.4903 11.0786 25.5338 8.9805 25.5338L8.83547 24.48C9.74915 24.48 10.8224 24.4751 11.9487 24.4365V23.2907C10.4888 23.0877 9.51227 22.1692 9.52194 20.9026C9.51227 19.4427 10.774 18.4613 12.5675 18.4613ZM10.5661 29.8992V26.4669H11.8714V28.8308H18.9294V29.8992H10.5661ZM10.7305 20.9026C10.7208 21.7728 11.4895 22.3384 12.5675 22.3481C13.6601 22.3384 14.3997 21.7728 14.4094 20.9026C14.3997 20.018 13.6601 19.4572 12.5675 19.4523C11.4895 19.4572 10.7208 20.018 10.7305 20.9026ZM17.1939 27.2887V17.9199H18.4895V21.971H20.2346V23.0635H18.4895V27.2887H17.1939ZM31.1644 17.9102V24.1464H29.8688V22.9717H26.7555V21.9613H29.8688V20.6271H26.9199C26.1561 22.5269 24.3094 23.7887 21.5925 24.4171L21.1381 23.3536C24.0822 22.701 25.6678 21.3425 25.8757 19.5394H21.7859V18.4807H27.3115C27.3115 18.8771 27.2776 19.2541 27.2099 19.6119H29.8688V17.9102H31.1644ZM23.154 25.6982V24.6588H31.1644V27.7673H24.4689V28.9952H31.5318V30.0442H23.1782V26.7907H29.864V25.6982H23.154Z" fill="#938F8F"/>
</svg>
