<svg width="48" height="48" viewBox="0 0 48 48" fill="none" xmlns="http://www.w3.org/2000/svg">
<path d="M13 11.5H28C34.9036 11.5 40.5 17.0964 40.5 24C40.5 30.9036 34.9036 36.5 28 36.5H13C6.09644 36.5 0.5 30.9036 0.5 24C0.5 17.0964 6.09644 11.5 13 11.5Z" stroke="white" stroke-opacity="0.1"/>
<path d="M19.0648 17.9199V26.9406H17.7692V23.7693H14.7188C14.1435 24.4558 13.254 24.8715 12.2388 24.8715C10.3969 24.8715 9.02401 23.5808 9.03368 21.7776C9.02401 19.9696 10.3969 18.6789 12.2388 18.6692C13.2491 18.674 14.1338 19.0898 14.7139 19.7714H17.7692V17.9199H19.0648ZM10.2664 21.7776C10.2664 22.9378 11.0882 23.7258 12.2388 23.7258C13.3458 23.7258 14.187 22.9378 14.187 21.7776C14.187 20.6222 13.3458 19.8343 12.2388 19.8246C11.0882 19.8343 10.2664 20.6222 10.2664 21.7776ZM11.1124 29.9088V26.0124H12.408V28.8453H19.3887V29.9088H11.1124ZM15.2892 20.8301C15.3762 21.125 15.4294 21.4441 15.4294 21.7776C15.4294 22.1064 15.3811 22.4157 15.294 22.7058H17.7692V20.8301H15.2892ZM31.5318 17.9102V30.1602H30.2894V23.8709H28.8246V29.5559H27.5967V18.1471H28.8246V22.7831H30.2894V17.9102H31.5318ZM20.7852 26.6989C22.5787 25.6982 23.4151 23.5856 23.4151 21.1492V20.366H21.1188V19.3073H26.8087V20.366H24.672V21.1492C24.672 23.3536 25.4986 25.3501 27.2825 26.2686L26.5186 27.2645C25.3101 26.6119 24.5076 25.471 24.0725 24.0546C23.6519 25.6644 22.8398 26.9503 21.5925 27.6899L20.7852 26.6989Z" fill="#938F8F"/>
</svg>
