<svg width="24" height="24" viewBox="0 0 24 24" fill="none" xmlns="http://www.w3.org/2000/svg">
<g id="icon_outlined/home_contents">
<g id="icon">
<path d="M20.221 13.6502H13.5002C13.1275 13.6502 12.8252 13.9525 12.8252 14.3252C12.8252 14.698 13.1275 15.0002 13.5002 15.0002H20.221C20.5937 15.0002 20.896 14.698 20.896 14.3252C20.896 13.9525 20.5937 13.6502 20.221 13.6502Z" fill="white"/>
<path d="M20.221 17.0252H13.5002C13.1275 17.0252 12.8252 17.3275 12.8252 17.7002C12.8252 18.073 13.1275 18.3752 13.5002 18.3752H20.221C20.5937 18.3752 20.896 18.073 20.896 17.7002C20.896 17.3275 20.5937 17.0252 20.221 17.0252Z" fill="white"/>
<path d="M20.221 20.4002H13.5002C13.1275 20.4002 12.8252 20.7025 12.8252 21.0752C12.8252 21.448 13.1275 21.7502 13.5002 21.7502H20.221C20.5937 21.7502 20.896 21.448 20.896 21.0752C20.896 20.7025 20.5937 20.4002 20.221 20.4002Z" fill="white"/>
<path d="M19.6997 10.8925L20.4325 11.5435C20.731 11.809 21.1922 11.815 21.4765 11.5345C21.7877 11.227 21.7705 10.7252 21.4487 10.4395L13.7777 3.62047C12.736 2.69422 11.1655 2.69422 10.1237 3.62047L2.45272 10.4395C2.13097 10.726 2.11372 11.227 2.42497 11.5345C2.70922 11.8157 3.16972 11.809 3.46897 11.5435L4.20172 10.8925V21.0002C4.20172 21.4142 4.53772 21.7502 4.95172 21.7502H7.53022C7.94422 21.7502 8.28022 21.4142 8.28022 21.0002C8.28022 20.5862 7.94422 20.2502 7.53022 20.2502H5.70172V9.55972L11.1212 4.74247C11.5945 4.32172 12.3085 4.32172 12.7817 4.74247L18.2012 9.55972" fill="white"/>
<path d="M11.4692 13.981C11.4467 13.927 11.419 13.8745 11.3867 13.8257C11.3537 13.7762 11.3162 13.7305 11.275 13.6892C11.233 13.6472 11.1872 13.6097 11.1377 13.5767C11.089 13.5445 11.0365 13.5167 10.9825 13.4942C10.9285 13.4717 10.8715 13.4545 10.8145 13.4425C10.6982 13.4192 10.5782 13.4192 10.4627 13.4425C10.405 13.4545 10.3487 13.4717 10.294 13.4942C10.24 13.5167 10.1875 13.5445 10.1387 13.5767C10.0892 13.6097 10.0435 13.6472 10.0015 13.6892C9.83422 13.8565 9.73822 14.0882 9.73822 14.3252C9.73822 14.3837 9.74422 14.443 9.75547 14.5015C9.76747 14.5585 9.78472 14.6155 9.80722 14.6695C9.82972 14.7235 9.85747 14.776 9.88972 14.8247C9.92272 14.8742 9.96022 14.92 10.0015 14.9612C10.0435 15.0032 10.0892 15.0407 10.1387 15.0737C10.1875 15.106 10.24 15.1337 10.294 15.1562C10.3487 15.1787 10.405 15.196 10.4627 15.208C10.5205 15.2192 10.5797 15.2252 10.6382 15.2252C10.6967 15.2252 10.756 15.2192 10.8145 15.208C10.8715 15.196 10.9285 15.1787 10.9825 15.1562C11.0365 15.1337 11.089 15.106 11.1377 15.0737C11.1872 15.0407 11.233 15.0032 11.2742 14.9612C11.3162 14.92 11.3537 14.8742 11.3867 14.8247C11.419 14.776 11.4467 14.7235 11.4692 14.6695C11.4917 14.6155 11.509 14.5585 11.5202 14.5015C11.5322 14.443 11.5382 14.3837 11.5382 14.3252C11.5382 14.2667 11.5322 14.2075 11.5202 14.1497C11.509 14.092 11.4917 14.0357 11.4692 13.981Z" fill="white"/>
<path d="M11.4692 17.356C11.4467 17.302 11.419 17.2495 11.3867 17.2007C11.3537 17.1512 11.3162 17.1055 11.275 17.0642C11.233 17.0222 11.1872 16.9847 11.1377 16.9517C11.089 16.9195 11.0372 16.8917 10.9825 16.8692C10.9285 16.8467 10.8715 16.8295 10.8145 16.8175C10.522 16.759 10.2107 16.855 10.0015 17.0642C9.96022 17.1055 9.92272 17.1512 9.88972 17.2007C9.85747 17.2495 9.82972 17.302 9.80722 17.356C9.78472 17.4107 9.76747 17.467 9.75622 17.5247C9.74422 17.5825 9.73822 17.6417 9.73822 17.7002C9.73822 17.7587 9.74422 17.818 9.75622 17.8765C9.76747 17.9335 9.78472 17.9905 9.80722 18.0445C9.82972 18.0985 9.85747 18.151 9.88972 18.1997C9.92272 18.2492 9.96022 18.295 10.0015 18.3362C10.0435 18.3782 10.0892 18.4157 10.1387 18.4487C10.1875 18.481 10.24 18.5087 10.294 18.5312C10.3487 18.5537 10.405 18.571 10.4627 18.583C10.5205 18.5942 10.5797 18.6002 10.6382 18.6002C10.6967 18.6002 10.756 18.5942 10.8145 18.583C10.8715 18.571 10.9285 18.5537 10.9825 18.5312C11.0372 18.5087 11.089 18.481 11.1377 18.4487C11.1872 18.4157 11.233 18.3782 11.275 18.3362C11.3162 18.295 11.3537 18.2492 11.3867 18.1997C11.419 18.151 11.4467 18.0985 11.4692 18.0445C11.4917 17.9905 11.509 17.9335 11.521 17.8765C11.5322 17.818 11.5382 17.7587 11.5382 17.7002C11.5382 17.6417 11.5322 17.5825 11.521 17.5247C11.509 17.467 11.4917 17.4107 11.4692 17.356Z" fill="white"/>
<path d="M11.4692 20.731C11.4467 20.677 11.419 20.6245 11.3867 20.5757C11.3537 20.5262 11.3162 20.4805 11.2742 20.4392C11.233 20.3972 11.1872 20.3597 11.1377 20.3267C11.089 20.2945 11.0365 20.2667 10.9825 20.2442C10.9285 20.2217 10.8715 20.2045 10.8145 20.1925C10.6982 20.1692 10.5782 20.1692 10.4627 20.1925C10.405 20.2045 10.3487 20.2217 10.294 20.2442C10.24 20.2667 10.1875 20.2945 10.1387 20.3267C10.0892 20.3597 10.0435 20.3972 10.0022 20.4392C9.96022 20.4805 9.92272 20.5262 9.88972 20.5757C9.85747 20.6245 9.82972 20.677 9.80722 20.731C9.78472 20.7857 9.76747 20.842 9.75622 20.8997C9.74422 20.9575 9.73822 21.0167 9.73822 21.0752C9.73822 21.1337 9.74422 21.193 9.75622 21.2515C9.76747 21.3085 9.78472 21.3655 9.80722 21.4195C9.82972 21.4735 9.85747 21.526 9.88972 21.5747C9.92272 21.6242 9.96022 21.67 10.0022 21.712C10.0435 21.7532 10.0892 21.7907 10.1387 21.8237C10.1875 21.856 10.24 21.8837 10.294 21.9062C10.3487 21.9287 10.405 21.946 10.4627 21.958C10.5205 21.9692 10.5797 21.9752 10.6382 21.9752C10.6967 21.9752 10.756 21.9692 10.8145 21.958C10.8715 21.946 10.9285 21.9287 10.9825 21.9062C11.0365 21.8837 11.089 21.856 11.1377 21.8237C11.1872 21.7907 11.233 21.7532 11.2742 21.712C11.3162 21.67 11.3537 21.6242 11.3867 21.5747C11.419 21.526 11.4467 21.4735 11.4692 21.4195C11.4917 21.3655 11.509 21.3085 11.5202 21.2515C11.5322 21.193 11.5382 21.1337 11.5382 21.0752C11.5382 21.0167 11.5322 20.9575 11.5202 20.8997C11.509 20.842 11.4917 20.7857 11.4692 20.731Z" fill="white"/>
</g>
</g>
</svg>
