<svg width="12" height="12" viewBox="0 0 12 12" fill="none" xmlns="http://www.w3.org/2000/svg">
<g id="icon">
<path id="icon_2" fill-rule="evenodd" clip-rule="evenodd" d="M4.26617 2.23483C4.41262 2.38128 4.41262 2.61872 4.26617 2.76517L2.90634 4.125H7.50101C9.08883 4.125 10.376 5.41218 10.376 7C10.376 8.58782 9.08883 9.875 7.50101 9.875H3.00101C2.7939 9.875 2.62601 9.70711 2.62601 9.5C2.62601 9.29289 2.7939 9.125 3.00101 9.125H7.50101C8.67461 9.125 9.62601 8.1736 9.62601 7C9.62601 5.8264 8.67461 4.875 7.50101 4.875H2.90634L4.26617 6.23483C4.41262 6.38128 4.41262 6.61872 4.26617 6.76516C4.11973 6.91161 3.88229 6.91161 3.73584 6.76516L1.73584 4.76517C1.5894 4.61872 1.5894 4.38128 1.73584 4.23483L3.73584 2.23483C3.88229 2.08839 4.11973 2.08839 4.26617 2.23483Z" fill="#938F8F"/>
</g>
</svg>
