<svg width="24" height="24" viewBox="0 0 24 24" fill="none" xmlns="http://www.w3.org/2000/svg">
<g id="icon/outlined/list_dot">
<g id="icon">
<path fill-rule="evenodd" clip-rule="evenodd" d="M2.90039 6.00039C2.90039 5.39288 3.39288 4.90039 4.00039 4.90039H4.00234C4.60986 4.90039 5.10234 5.39288 5.10234 6.00039V6.00239C5.10234 6.29869 4.98281 6.58246 4.7708 6.78946C4.5588 6.99645 4.27225 7.10916 3.97603 7.10208L3.97408 7.10203C3.37699 7.08774 2.90039 6.59961 2.90039 6.00234V6.00039ZM2.90039 12.0004C2.90039 11.3929 3.39288 10.9004 4.00039 10.9004H4.00234C4.60986 10.9004 5.10234 11.3929 5.10234 12.0004V12.0024C5.10234 12.2987 4.98281 12.5825 4.7708 12.7895C4.5588 12.9965 4.27225 13.1092 3.97603 13.1021L3.97408 13.102C3.37699 13.0877 2.90039 12.5996 2.90039 12.0023V12.0004ZM2.90039 18.0004C2.90039 17.3929 3.39288 16.9004 4.00039 16.9004H4.00234C4.60986 16.9004 5.10234 17.3929 5.10234 18.0004V18.0024C5.10234 18.2987 4.98281 18.5825 4.7708 18.7895C4.5588 18.9965 4.27225 19.1092 3.97603 19.1021L3.97408 19.102C3.37699 19.0877 2.90039 18.5996 2.90039 18.0023V18.0004Z" fill="#FF3746"/>
<path fill-rule="evenodd" clip-rule="evenodd" d="M7.20039 6.00039C7.20039 5.55856 7.55856 5.20039 8.00039 5.20039H20.0004C20.4422 5.20039 20.8004 5.55856 20.8004 6.00039C20.8004 6.44222 20.4422 6.80039 20.0004 6.80039H8.00039C7.55856 6.80039 7.20039 6.44222 7.20039 6.00039ZM7.20039 12.0004C7.20039 11.5586 7.55856 11.2004 8.00039 11.2004H20.0004C20.4422 11.2004 20.8004 11.5586 20.8004 12.0004C20.8004 12.4422 20.4422 12.8004 20.0004 12.8004H8.00039C7.55856 12.8004 7.20039 12.4422 7.20039 12.0004ZM7.20039 18.0004C7.20039 17.5586 7.55856 17.2004 8.00039 17.2004H20.0004C20.4422 17.2004 20.8004 17.5586 20.8004 18.0004C20.8004 18.4422 20.4422 18.8004 20.0004 18.8004H8.00039C7.55856 18.8004 7.20039 18.4422 7.20039 18.0004Z" fill="#FF3746"/>
</g>
</g>
</svg>
