<svg width="16" height="16" viewBox="0 0 16 16" fill="none" xmlns="http://www.w3.org/2000/svg">
<g id="icon/outlined/refresh">
<path id="icon" fill-rule="evenodd" clip-rule="evenodd" d="M2.66699 2.16699C2.94313 2.16699 3.16699 2.39085 3.16699 2.66699V4.73349C4.21544 3.18527 5.98856 2.16699 8.00033 2.16699C10.9754 2.16699 13.4297 4.39376 13.7886 7.27179C13.8227 7.54581 13.6283 7.79565 13.3543 7.82982C13.0802 7.86399 12.8304 7.66955 12.7962 7.39553C12.499 5.01181 10.4647 3.16699 8.00033 3.16699C6.24654 3.16699 4.71004 4.10119 3.8628 5.50033H6.00033C6.27647 5.50033 6.50033 5.72418 6.50033 6.00033C6.50033 6.27647 6.27647 6.50033 6.00033 6.50033H2.66699C2.39085 6.50033 2.16699 6.27647 2.16699 6.00033V2.66699C2.16699 2.39085 2.39085 2.16699 2.66699 2.16699ZM2.64638 8.17083C2.9204 8.13666 3.17024 8.3311 3.20441 8.60512C3.50166 10.9888 5.53593 12.8337 8.00033 12.8337C9.75412 12.8337 11.2906 11.8995 12.1379 10.5003H10.0003C9.72418 10.5003 9.50033 10.2765 9.50033 10.0003C9.50033 9.72418 9.72418 9.50033 10.0003 9.50033H13.3337C13.6098 9.50033 13.8337 9.72418 13.8337 10.0003V13.3337C13.8337 13.6098 13.6098 13.8337 13.3337 13.8337C13.0575 13.8337 12.8337 13.6098 12.8337 13.3337V11.2672C11.7852 12.8154 10.0121 13.8337 8.00033 13.8337C5.02523 13.8337 2.57098 11.6069 2.2121 8.72886C2.17793 8.45484 2.37236 8.205 2.64638 8.17083Z" fill="#817B7B"/>
</g>
</svg>
