<svg width="12" height="12" viewBox="0 0 12 12" fill="none" xmlns="http://www.w3.org/2000/svg">
<g id="icon">
<path id="icon_2" fill-rule="evenodd" clip-rule="evenodd" d="M7.73386 2.23483C7.58741 2.38128 7.58741 2.61872 7.73386 2.76517L9.09369 4.125H4.49902C2.91121 4.125 1.62402 5.41218 1.62402 7C1.62402 8.58782 2.9112 9.875 4.49902 9.875H8.99902C9.20613 9.875 9.37402 9.70711 9.37402 9.5C9.37402 9.29289 9.20613 9.125 8.99902 9.125H4.49902C3.32542 9.125 2.37402 8.1736 2.37402 7C2.37402 5.8264 3.32542 4.875 4.49902 4.875H9.09369L7.73386 6.23483C7.58741 6.38128 7.58741 6.61872 7.73386 6.76516C7.88031 6.91161 8.11774 6.91161 8.26419 6.76516L10.2642 4.76517C10.4106 4.61872 10.4106 4.38128 10.2642 4.23483L8.26419 2.23483C8.11774 2.08839 7.88031 2.08839 7.73386 2.23483Z" fill="#938F8F"/>
</g>
</svg>
