<svg width="24" height="24" viewBox="0 0 24 24" fill="none" xmlns="http://www.w3.org/2000/svg">
<g id="icon/outlined/list_dot">
<g id="icon">
<path fill-rule="evenodd" clip-rule="evenodd" d="M2.89999 6.00039C2.89999 5.39288 3.39248 4.90039 3.99999 4.90039H4.00195C4.60946 4.90039 5.10195 5.39288 5.10195 6.00039V6.00239C5.10195 6.29869 4.98241 6.58246 4.77041 6.78946C4.5584 6.99645 4.27185 7.10916 3.97564 7.10208L3.97368 7.10203C3.37659 7.08774 2.89999 6.59961 2.89999 6.00234V6.00039ZM2.89999 12.0004C2.89999 11.3929 3.39248 10.9004 3.99999 10.9004H4.00195C4.60946 10.9004 5.10195 11.3929 5.10195 12.0004V12.0024C5.10195 12.2987 4.98241 12.5825 4.77041 12.7895C4.5584 12.9964 4.27185 13.1092 3.97564 13.1021L3.97368 13.102C3.37659 13.0877 2.89999 12.5996 2.89999 12.0023V12.0004ZM2.89999 18.0004C2.89999 17.3929 3.39248 16.9004 3.99999 16.9004H4.00195C4.60946 16.9004 5.10195 17.3929 5.10195 18.0004V18.0024C5.10195 18.2987 4.98241 18.5825 4.77041 18.7895C4.5584 18.9965 4.27185 19.1092 3.97564 19.1021L3.97368 19.102C3.37659 19.0877 2.89999 18.5996 2.89999 18.0023V18.0004Z" fill="white"/>
<path fill-rule="evenodd" clip-rule="evenodd" d="M7.19999 6.00039C7.19999 5.55856 7.55817 5.20039 7.99999 5.20039H20C20.4418 5.20039 20.8 5.55856 20.8 6.00039C20.8 6.44222 20.4418 6.80039 20 6.80039H7.99999C7.55817 6.80039 7.19999 6.44222 7.19999 6.00039ZM7.19999 12.0004C7.19999 11.5586 7.55817 11.2004 7.99999 11.2004H20C20.4418 11.2004 20.8 11.5586 20.8 12.0004C20.8 12.4422 20.4418 12.8004 20 12.8004H7.99999C7.55817 12.8004 7.19999 12.4422 7.19999 12.0004ZM7.19999 18.0004C7.19999 17.5586 7.55817 17.2004 7.99999 17.2004H20C20.4418 17.2004 20.8 17.5586 20.8 18.0004C20.8 18.4422 20.4418 18.8004 20 18.8004H7.99999C7.55817 18.8004 7.19999 18.4422 7.19999 18.0004Z" fill="white"/>
</g>
</g>
</svg>
