<svg width="18" height="18" viewBox="0 0 18 18" fill="none" xmlns="http://www.w3.org/2000/svg">
<g id="icon/outlined/refresh">
<path id="icon" fill-rule="evenodd" clip-rule="evenodd" d="M3.00049 2.9375C3.31115 2.9375 3.56299 3.18934 3.56299 3.5V5.82481C4.74249 4.08307 6.73725 2.9375 9.00049 2.9375C12.3475 2.9375 15.1085 5.44261 15.5122 8.6804C15.5507 8.98867 15.3319 9.26974 15.0237 9.30818C14.7154 9.34662 14.4343 9.12788 14.3959 8.8196C14.0615 6.13792 11.7729 4.0625 9.00049 4.0625C7.02747 4.0625 5.29892 5.11347 4.34577 6.6875H6.75049C7.06115 6.6875 7.31299 6.93934 7.31299 7.25C7.31299 7.56066 7.06115 7.8125 6.75049 7.8125H3.00049C2.68983 7.8125 2.43799 7.56066 2.43799 7.25V3.5C2.43799 3.18934 2.68983 2.9375 3.00049 2.9375ZM2.97731 9.69182C3.28558 9.65338 3.56664 9.87212 3.60509 10.1804C3.93949 12.8621 6.22805 14.9375 9.00049 14.9375C10.9735 14.9375 12.7021 13.8865 13.6552 12.3125H11.2505C10.9398 12.3125 10.688 12.0607 10.688 11.75C10.688 11.4393 10.9398 11.1875 11.2505 11.1875H15.0005C15.3111 11.1875 15.563 11.4393 15.563 11.75V15.5C15.563 15.8107 15.3111 16.0625 15.0005 16.0625C14.6898 16.0625 14.438 15.8107 14.438 15.5V13.1752C13.2585 14.9169 11.2637 16.0625 9.00049 16.0625C5.6535 16.0625 2.89248 13.5574 2.48873 10.3196C2.45029 10.0113 2.66903 9.73026 2.97731 9.69182Z" fill="white"/>
</g>
</svg>
