<svg width="24" height="24" viewBox="0 0 24 24" fill="none" xmlns="http://www.w3.org/2000/svg">
<g id="icon/outlined/setting">
<path id="icon" fill-rule="evenodd" clip-rule="evenodd" d="M9.5958 4.14037C10.2077 1.61987 13.7923 1.61988 14.4042 4.14037C14.5598 4.7814 15.2943 5.08561 15.8576 4.74238C18.0725 3.39279 20.6072 5.9275 19.2576 8.14243C18.9144 8.70575 19.2186 9.44017 19.8596 9.5958C22.3801 10.2077 22.3801 13.7923 19.8596 14.4042C19.2186 14.5598 18.9144 15.2942 19.2576 15.8576C20.6072 18.0725 18.0725 20.6072 15.8576 19.2576C15.2943 18.9144 14.5598 19.2186 14.4042 19.8596C13.7923 22.3801 10.2077 22.3801 9.5958 19.8596C9.44018 19.2186 8.70575 18.9144 8.14243 19.2576C5.9275 20.6072 3.39279 18.0725 4.74238 15.8576C5.08561 15.2942 4.7814 14.5598 4.14037 14.4042C1.61988 13.7923 1.61987 10.2077 4.14037 9.5958C4.7814 9.44017 5.08561 8.70575 4.74238 8.14243C3.39279 5.9275 5.9275 3.39279 8.14243 4.74238C8.70575 5.08561 9.44018 4.7814 9.5958 4.14037ZM12.9465 4.49425C12.7056 3.50192 11.2944 3.50192 11.0535 4.49425C10.6582 6.12246 8.79276 6.89514 7.36194 6.02332C6.48991 5.49199 5.49199 6.48991 6.02332 7.36194C6.89514 8.79276 6.12245 10.6582 4.49425 11.0535C3.50192 11.2944 3.50192 12.7056 4.49425 12.9465C6.12246 13.3418 6.89514 15.2072 6.02332 16.6381C5.49199 17.5101 6.48991 18.508 7.36194 17.9767C8.79276 17.1049 10.6582 17.8775 11.0535 19.5058C11.2944 20.4981 12.7056 20.4981 12.9465 19.5058C13.3418 17.8775 15.2072 17.1049 16.6381 17.9767C17.5101 18.508 18.508 17.5101 17.9767 16.6381C17.1049 15.2072 17.8775 13.3418 19.5058 12.9465C20.4981 12.7056 20.4981 11.2944 19.5058 11.0535C17.8775 10.6582 17.1049 8.79276 17.9767 7.36194C18.508 6.48991 17.5101 5.49199 16.6381 6.02332C15.2072 6.89514 13.3418 6.12246 12.9465 4.49425ZM12 9.75C10.7574 9.75 9.75 10.7574 9.75 12C9.75 13.2426 10.7574 14.25 12 14.25C13.2426 14.25 14.25 13.2426 14.25 12C14.25 10.7574 13.2426 9.75 12 9.75ZM8.25 12C8.25 9.92893 9.92893 8.25 12 8.25C14.0711 8.25 15.75 9.92893 15.75 12C15.75 14.0711 14.0711 15.75 12 15.75C9.92893 15.75 8.25 14.0711 8.25 12Z" fill="#FF3746"/>
</g>
</svg>
