<svg width="18" height="18" viewBox="0 0 18 18" fill="none" xmlns="http://www.w3.org/2000/svg">
<g id="icon/outlined/calendar">
<path id="Vector (Stroke)" fill-rule="evenodd" clip-rule="evenodd" d="M6 0.9375C6.31066 0.9375 6.5625 1.18934 6.5625 1.5V2.4375H11.4375V1.5C11.4375 1.18934 11.6893 0.9375 12 0.9375C12.3107 0.9375 12.5625 1.18934 12.5625 1.5V2.4375L12.623 2.4375C13.0236 2.43749 13.3578 2.43749 13.6309 2.45981C13.9157 2.48309 14.183 2.53345 14.4359 2.6623C14.8234 2.85973 15.1398 3.17479 15.3379 3.56348C15.4667 3.81628 15.517 4.08365 15.5402 4.36824C15.5625 4.64113 15.5625 4.97506 15.5625 5.37487V12.6255C15.5625 13.0253 15.5625 13.3591 15.5402 13.6318C15.5169 13.9164 15.4666 14.1835 15.3379 14.4363C15.14 14.8247 14.8237 15.1403 14.4359 15.3379C14.1832 15.4666 13.916 15.5169 13.6315 15.5402C13.3587 15.5625 13.0249 15.5625 12.6251 15.5625H5.37487C4.97506 15.5625 4.64113 15.5625 4.36825 15.5402C4.08365 15.517 3.81628 15.4667 3.56348 15.3379C3.17508 15.14 2.85988 14.824 2.6623 14.4363C2.53343 14.1834 2.48309 13.9159 2.45981 13.631C2.43749 13.3579 2.43749 13.0236 2.4375 12.623V5.37733C2.43749 4.97671 2.43749 4.64225 2.4598 4.369C2.48308 4.08406 2.5334 3.81646 2.6623 3.56348C2.86004 3.17539 3.17539 2.86004 3.56348 2.6623C3.81646 2.5334 4.08406 2.48308 4.369 2.4598C4.64225 2.43749 4.97671 2.43749 5.37734 2.4375L5.4375 2.4375V1.5C5.4375 1.18934 5.68934 0.9375 6 0.9375ZM4.46058 3.58107C4.24512 3.59867 4.14211 3.63009 4.07422 3.66468C3.89782 3.75456 3.75456 3.89782 3.66468 4.07422C3.63009 4.14211 3.59867 4.24512 3.58107 4.46058C3.56294 4.68258 3.5625 4.97083 3.5625 5.40015V5.4375H14.4375V5.39768C14.4375 4.96919 14.4371 4.68149 14.419 4.45987C14.4014 4.2448 14.37 4.14197 14.3355 4.07422C14.2459 3.89842 14.1022 3.75487 13.9252 3.66468C13.8572 3.63004 13.7543 3.59865 13.5392 3.58107C13.3175 3.56294 13.0295 3.5625 12.6001 3.5625H5.40015C4.97083 3.5625 4.68258 3.56294 4.46058 3.58107ZM14.4375 6.5625H3.5625V12.6001C3.5625 13.0295 3.56294 13.3176 3.58107 13.5394C3.59866 13.7547 3.63006 13.8576 3.66468 13.9255C3.75473 14.1023 3.89813 14.2458 4.07422 14.3355C4.14197 14.37 4.2448 14.4014 4.45987 14.419C4.68149 14.4371 4.96919 14.4375 5.39768 14.4375H12.6023C13.0308 14.4375 13.3184 14.4371 13.5398 14.419C13.7546 14.4014 13.8574 14.37 13.9252 14.3355C14.1019 14.2454 14.2457 14.1017 14.3355 13.9255C14.37 13.8577 14.4014 13.755 14.419 13.5402C14.4371 13.3187 14.4375 13.0312 14.4375 12.6027V6.5625Z" fill="#fff"/>
<path id="Vector (Stroke)_2" fill-rule="evenodd" clip-rule="evenodd" d="M6.02058 8.17503C6.47609 8.18568 6.83673 8.56357 6.82608 9.01908L6.82605 9.02058C6.82094 9.23941 6.72907 9.44723 6.57068 9.5983C6.41229 9.74937 6.20036 9.83131 5.98154 9.82607L5.98008 9.82604C5.52457 9.81514 5.16415 9.43705 5.17505 8.98154C5.18042 8.75702 5.275 8.5556 5.42409 8.41036C5.57749 8.26017 5.78901 8.16962 6.02058 8.17503ZM9.02058 8.17503C9.47609 8.18568 9.83673 8.56357 9.82608 9.01908L9.82605 9.02058C9.82094 9.23941 9.72907 9.44723 9.57068 9.5983C9.41229 9.74937 9.20036 9.83131 8.98154 9.82607L8.98008 9.82604C8.52457 9.81514 8.16415 9.43705 8.17505 8.98154C8.18042 8.75701 8.27501 8.55559 8.42411 8.41035C8.57751 8.26017 8.78901 8.16962 9.02058 8.17503ZM12.5908 8.42416C12.4409 8.27034 12.2315 8.17481 11.9998 8.17481C11.5442 8.17481 11.1748 8.54417 11.1748 8.99981V9.00127C11.1748 9.44922 11.5323 9.81532 11.9801 9.82604L11.9815 9.82607C12.437 9.83697 12.8151 9.47655 12.826 9.02104C12.8316 8.78934 12.741 8.57766 12.5908 8.42416ZM9.02058 11.175C9.47609 11.1857 9.83673 11.5636 9.82608 12.0191L9.82605 12.0206C9.82094 12.2394 9.72907 12.4472 9.57068 12.5983C9.41229 12.7494 9.20036 12.8313 8.98154 12.8261L8.98008 12.826C8.52457 12.8151 8.16415 12.437 8.17505 11.9815C8.18042 11.757 8.27501 11.5556 8.42412 11.4103C8.57752 11.2602 8.78902 11.1696 9.02058 11.175ZM6.59145 11.4233C6.74668 11.5822 6.83127 11.797 6.82608 12.0191L6.82605 12.0206C6.81541 12.4761 6.43751 12.8367 5.982 12.8261C5.75728 12.8208 5.55566 12.7262 5.41031 12.577C5.26462 12.4282 5.17481 12.2245 5.17481 11.9998C5.17481 11.5442 5.54417 11.1748 5.99981 11.1748L6.00131 11.1748C6.22345 11.1748 6.43621 11.2644 6.59145 11.4233ZM12.5908 11.4241C12.4409 11.2703 12.2315 11.1748 11.9998 11.1748C11.5442 11.1748 11.1748 11.5442 11.1748 11.9998V12.0013C11.1748 12.4492 11.5323 12.8153 11.9801 12.826L11.9815 12.8261C12.437 12.837 12.8151 12.4765 12.826 12.021C12.8316 11.7893 12.741 11.5776 12.5908 11.4241Z" fill="#fff"/>
</g>
</svg>
