<svg width="18" height="19" viewBox="0 0 18 19" fill="none" xmlns="http://www.w3.org/2000/svg">
<g id="icon/sns/blog">
<path id="Vector" d="M4.69799 8.61719C4.53785 8.61719 4.40071 8.67558 4.28746 8.7906C4.17332 8.90651 4.1167 9.04719 4.1167 9.21175C4.1167 9.37632 4.17332 9.517 4.28746 9.6329C4.40159 9.74881 4.53785 9.8072 4.69799 9.8072C4.85814 9.8072 4.9997 9.74881 5.1156 9.6329C5.23151 9.517 5.28902 9.3772 5.28902 9.21175C5.28902 9.0463 5.23151 8.90651 5.1156 8.7906C4.9997 8.6747 4.86079 8.61719 4.69799 8.61719Z" fill="#404041"/>
<path id="Vector_2" d="M9.66381 8.61182C9.50367 8.61182 9.36653 8.66933 9.25328 8.78523C9.13914 8.90114 9.08252 9.04181 9.08252 9.20638C9.08252 9.37095 9.14003 9.51163 9.25328 9.62753C9.36653 9.74344 9.50367 9.80095 9.66381 9.80095C9.82396 9.80095 9.96552 9.74255 10.0814 9.62753C10.1973 9.51163 10.2548 9.37095 10.2548 9.20638C10.2548 9.04181 10.1973 8.90114 10.0814 8.78523C9.96552 8.66933 9.82661 8.61182 9.66381 8.61182Z" fill="#404041"/>
<path id="Vector_3" d="M12.9757 8.61719C12.8156 8.61719 12.6785 8.67558 12.5643 8.7906C12.4511 8.90651 12.3936 9.04719 12.3936 9.21175C12.3936 9.37632 12.4511 9.517 12.5643 9.6329C12.6785 9.74881 12.8156 9.8072 12.9757 9.8072C13.1359 9.8072 13.2774 9.74881 13.3933 9.6329C13.5092 9.517 13.5668 9.3772 13.5668 9.21175C13.5668 9.0463 13.5084 8.90651 13.3933 8.7906C13.2774 8.6747 13.1385 8.61719 12.9757 8.61719Z" fill="#404041"/>
<path id="Vector_4" d="M14.4479 4.25H3.22638C2.36639 4.25 1.66211 4.95428 1.66211 5.81427V12.1607C1.66211 13.0207 2.36639 13.725 3.22638 13.725H7.63253C7.63253 13.725 8.48368 16.0484 8.79335 16.0484C9.10302 16.0484 10.0241 13.725 10.0241 13.725H14.4479C15.3088 13.725 16.0122 13.0207 16.0122 12.1607V5.81427C16.0122 4.95428 15.3079 4.25 14.4479 4.25ZM5.83291 10.1089C5.61083 10.3593 5.2702 10.4646 4.89859 10.4646C4.56327 10.4646 4.31819 10.3638 4.13681 10.2257H4.12619V10.4045H3.28389V6.73001H4.12619V8.13502H4.13681C4.36508 7.94037 4.66767 7.87401 5.02423 7.86251C5.32948 7.8519 5.64711 8.04301 5.83733 8.26331C6.02668 8.48274 6.16558 8.82691 6.16558 9.20736C6.16558 9.62143 6.05587 9.85855 5.83291 10.1089ZM7.64138 10.4319H6.78227V8.15803C6.78227 7.63336 6.36731 7.56435 6.36731 7.56435V6.6548C6.36731 6.6548 7.57148 6.72824 7.64138 8.18722V10.4319ZM11.0123 9.73468C10.9398 9.89925 10.8354 10.0461 10.6965 10.1753C10.5602 10.3027 10.4036 10.4009 10.2258 10.469C10.0488 10.5372 9.86126 10.5717 9.66396 10.5717C9.46666 10.5717 9.28617 10.5372 9.11098 10.469C8.93491 10.4009 8.77831 10.3027 8.64028 10.1753C8.49784 10.0408 8.39078 9.89217 8.31734 9.72938C8.24479 9.56658 8.20763 9.39405 8.20763 9.2109C8.20763 9.02775 8.24391 8.85522 8.31734 8.69243C8.39078 8.52963 8.49784 8.38099 8.64028 8.2465C8.77919 8.11821 8.9358 8.02089 9.11098 7.95276C9.28617 7.88463 9.4702 7.85101 9.66396 7.85101C9.85773 7.85101 10.048 7.88463 10.2258 7.95276C10.4027 8.02089 10.5593 8.1191 10.6965 8.2465C10.8354 8.37568 10.9398 8.52255 11.0123 8.68712C11.084 8.85168 11.1203 9.02598 11.1203 9.2109C11.1203 9.39582 11.084 9.56923 11.0123 9.7338V9.73468ZM14.3913 10.0992C14.3913 10.7442 14.2692 11.1379 13.9807 11.4113C13.6383 11.736 13.1508 11.759 12.7403 11.7006V11.0335C13.0827 11.068 13.5543 10.8424 13.5534 10.3983V10.2275H13.5428C13.3508 10.4929 13.0703 10.5894 12.6969 10.5894C12.351 10.5894 12.0511 10.462 11.8485 10.224C11.645 9.98596 11.5441 9.66744 11.5441 9.26753C11.5441 8.81983 11.6573 8.46327 11.8838 8.20049C12.1095 7.93683 12.4324 7.81385 12.8014 7.81385C13.1323 7.81385 13.3402 7.89348 13.5437 8.07928H13.5543V7.87755H14.3913V10.1001V10.0992Z" fill="#404041"/>
</g>
</svg>
