<svg width="24" height="24" viewBox="0 0 24 24" fill="none" xmlns="http://www.w3.org/2000/svg">
<g id="icon/outlined/menu_right">
<path id="icon" fill-rule="evenodd" clip-rule="evenodd" d="M10.2002 5.99995C10.2002 5.55812 10.5584 5.19995 11.0002 5.19995H20.0002C20.442 5.19995 20.8002 5.55812 20.8002 5.99995C20.8002 6.44178 20.442 6.79995 20.0002 6.79995H11.0002C10.5584 6.79995 10.2002 6.44178 10.2002 5.99995ZM3.2002 12C3.2002 11.5581 3.55837 11.2 4.0002 11.2H20.0002C20.442 11.2 20.8002 11.5581 20.8002 12C20.8002 12.4418 20.442 12.8 20.0002 12.8H4.0002C3.55837 12.8 3.2002 12.4418 3.2002 12ZM7.2002 18C7.2002 17.5581 7.55837 17.2 8.0002 17.2H20.0002C20.442 17.2 20.8002 17.5581 20.8002 18C20.8002 18.4418 20.442 18.8 20.0002 18.8H8.0002C7.55837 18.8 7.2002 18.4418 7.2002 18Z" fill="white"/>
</g>
</svg>
