<svg width="28" height="28" viewBox="0 0 28 28" fill="none" xmlns="http://www.w3.org/2000/svg">
<g id="icon/quick_menu/new">
<path id="Vector" d="M16.6252 10.293C16.0459 10.293 15.5752 10.7637 15.5752 11.343V14.3442L12.6492 10.6876C12.4488 10.4373 12.1505 10.2938 11.8293 10.2938H11.3752C10.7959 10.2938 10.3252 10.7646 10.3252 11.3438V16.5938C10.3252 17.1731 10.7959 17.6438 11.3752 17.6438C11.9544 17.6438 12.4252 17.1731 12.4252 16.5938V13.5926L15.3512 17.2492C15.5516 17.4995 15.8508 17.643 16.1711 17.643H16.6252C17.2044 17.643 17.6752 17.1722 17.6752 16.593V11.343C17.6752 10.7637 17.2044 10.293 16.6252 10.293Z" fill="#FF3746"/>
<path id="Vector_2" d="M23.1 14V22.6625C23.1 22.904 22.904 23.1 22.6625 23.1H8.63626C8.51988 23.1 8.40875 23.0536 8.3265 22.9723L6.67713 21.3229L5.02775 19.6735C4.9455 19.5912 4.9 19.4801 4.9 19.3637V5.3375C4.9 5.096 5.096 4.9 5.3375 4.9H22.6625C22.904 4.9 23.1 5.096 23.1 5.3375V14ZM23.625 3.5H4.375C3.892 3.5 3.5 3.892 3.5 4.375V19.7627C3.5 19.9946 3.59188 20.2177 3.75638 20.3814L5.6875 22.3125L7.61863 24.2436C7.78313 24.4081 8.00538 24.5 8.23725 24.5H23.625C24.108 24.5 24.5 24.108 24.5 23.625V4.375C24.5 3.892 24.108 3.5 23.625 3.5Z" fill="#A9A5A5"/>
</g>
</svg>
