<svg width="28" height="28" viewBox="0 0 28 28" fill="none" xmlns="http://www.w3.org/2000/svg">
<g id="icon/quick_menu/relay">
<path id="Vector" d="M15.209 9.21319L16.8601 9.71106C17.1725 9.80556 17.2932 10.1836 17.0929 10.4417L16.0332 11.8014L16.07 13.5252C16.077 13.8516 15.7541 14.0834 15.447 13.9714L13.8256 13.3834L12.1972 13.9513C11.8892 14.0589 11.569 13.8236 11.5804 13.4972L11.6381 11.7743L10.5951 10.4014C10.3974 10.1416 10.5225 9.76444 10.8366 9.67431L12.4939 9.19656L13.4774 7.77994C13.6637 7.51219 14.061 7.51394 14.2439 7.78431L15.2099 9.21231L15.209 9.21319Z" fill="#EC2A38"/>
<path id="icon (Stroke)" fill-rule="evenodd" clip-rule="evenodd" d="M5.83265 2.80005C6.21925 2.80005 6.53265 3.11345 6.53265 3.50005V3.85005H20.6329C22.3199 3.85005 23.3529 5.6522 22.6319 7.13541L21.0201 10.4517C20.8984 10.7019 20.8984 10.9982 21.0201 11.2484L22.6319 14.5647C23.3529 16.0479 22.3199 17.8501 20.6329 17.8501H6.53265V23.8001H8.16598C8.55258 23.8001 8.86598 24.1135 8.86598 24.5001C8.86598 24.8867 8.55258 25.2001 8.16598 25.2001H3.49932C3.11272 25.2001 2.79932 24.8867 2.79932 24.5001C2.79932 24.1135 3.11272 23.8001 3.49932 23.8001H5.13265V3.50005C5.13265 3.11345 5.44605 2.80005 5.83265 2.80005ZM6.53265 16.45H20.6329C21.2224 16.45 21.6699 15.7879 21.3728 15.1767L19.7609 11.8604C19.4515 11.2238 19.4515 10.4763 19.7609 9.83968L21.3728 6.5234C21.6699 5.91219 21.2224 5.25005 20.6329 5.25005H6.53265V16.45Z" fill="#534C4C"/>
</g>
</svg>
