<svg width="28" height="28" viewBox="0 0 28 28" fill="none" xmlns="http://www.w3.org/2000/svg">
<g id="icon/quick_menu/ranking">
<path id="Vector" d="M15.3623 3.74505L17.0134 4.24292C17.3258 4.33742 17.4465 4.71542 17.2462 4.97355L16.1865 6.3333L16.2233 8.05705C16.2303 8.38342 15.9074 8.6153 15.6003 8.5033L13.9789 7.9153L12.3505 8.48317C12.0425 8.5908 11.7223 8.35542 11.7337 8.02905L11.7914 6.30617L10.7484 4.9333C10.5507 4.67342 10.6758 4.2963 10.9899 4.20617L12.6472 3.72842L13.6307 2.3118C13.817 2.04405 14.2143 2.0458 14.3972 2.31617L15.3632 3.74417L15.3623 3.74505Z" fill="#EC2A38"/>
<g id="Vector_2">
<path d="M18.0145 17.1185C18.2998 17.4703 18.697 17.7223 19.1433 17.8001C19.7129 17.8999 20.2825 17.731 20.7008 17.3521L22.8078 15.4403C22.9206 15.3379 23.1 15.4184 23.1 15.5698V22.6625C23.1 22.904 22.904 23.1 22.6625 23.1H8.63627C8.5199 23.1 8.40877 23.0536 8.32652 22.9723L5.02777 19.6735C4.94552 19.5913 4.90002 19.4801 4.90002 19.3638V15.5698C4.90002 15.4175 5.08027 15.3379 5.19227 15.4403L7.27127 17.3259C7.57665 17.6033 7.96164 17.7861 8.37202 17.8211C8.9889 17.8745 9.57777 17.6216 9.9619 17.1474L13.7953 12.4136C13.9003 12.2841 14.098 12.2841 14.203 12.4136L18.0145 17.1185ZM14 10.4528C13.748 10.4528 13.4951 10.5613 13.3201 10.7774L8.87427 16.2663C8.78765 16.373 8.66077 16.4281 8.5339 16.4281C8.4289 16.4281 8.3239 16.3905 8.2399 16.3144L4.96215 13.3411C4.78802 13.1836 4.58152 13.1128 4.3794 13.1128C3.92877 13.1128 3.49915 13.4654 3.49915 13.9895V19.761C3.49915 19.9938 3.5919 20.2178 3.7564 20.3823C5.22377 21.8496 6.14864 22.7745 7.61689 24.2428C7.78139 24.4073 8.00452 24.5 8.2364 24.5C10.297 24.5 20.5476 24.5 23.6241 24.5C24.1071 24.5 24.4983 24.108 24.4983 23.625V13.9895C24.4983 13.4654 24.0686 13.1128 23.618 13.1128C23.4159 13.1128 23.2094 13.1836 23.0353 13.3411L19.7575 16.3144C19.6735 16.3905 19.5685 16.4281 19.4635 16.4281C19.3366 16.4281 19.2098 16.373 19.1231 16.2663L14.6773 10.7774C14.5023 10.5613 14.2494 10.4528 13.9974 10.4528H14Z" fill="#534C4C"/>
<path d="M26.25 8.75C26.25 7.7835 25.4665 7 24.5 7C23.5335 7 22.75 7.7835 22.75 8.75C22.75 9.7165 23.5335 10.5 24.5 10.5C25.4665 10.5 26.25 9.7165 26.25 8.75Z" fill="#534C4C"/>
<path d="M5.25 8.75C5.25 7.7835 4.4665 7 3.5 7C2.5335 7 1.75 7.7835 1.75 8.75C1.75 9.7165 2.5335 10.5 3.5 10.5C4.4665 10.5 5.25 9.7165 5.25 8.75Z" fill="#534C4C"/>
</g>
</g>
</svg>
