<svg width="28" height="28" viewBox="0 0 28 28" fill="none" xmlns="http://www.w3.org/2000/svg">
<g id="icon/quick_menu/event">
<path id="Vector" d="M18.9665 7.70614L18.9088 9.42902C18.8974 9.75539 19.2176 9.99077 19.5256 9.88314L21.154 9.31527L22.7754 9.90327C23.0825 10.0144 23.4054 9.78252 23.3984 9.45702L23.3616 7.73327L24.4213 6.37352C24.6216 6.11627 24.5018 5.73739 24.1885 5.64289L22.5374 5.14502L21.5714 3.71702C21.3885 3.44664 20.9913 3.44402 20.8049 3.71264L19.8214 5.12927L18.1641 5.60702C17.8509 5.69714 17.7258 6.07427 17.9226 6.33414L18.9656 7.70702L18.9665 7.70614Z" fill="#EC2A38"/>
<g id="Vector_2">
<path d="M22.75 12.25C21.7832 12.25 21 13.0331 21 14C21 14.9669 21.7832 15.75 22.75 15.75C23.7169 15.75 24.5 14.9669 24.5 14C24.5 13.0331 23.7169 12.25 22.75 12.25Z" fill="#534C4C"/>
<path d="M14 7C14.9669 7 15.75 6.21688 15.75 5.25C15.75 4.28312 14.9669 3.5 14 3.5C13.0332 3.5 12.25 4.28312 12.25 5.25C12.25 6.21688 13.0332 7 14 7Z" fill="#534C4C"/>
<path d="M21.7254 18.2254L9.72479 6.22475C9.54366 6.04363 9.31266 5.95875 9.08516 5.95875C8.71854 5.95875 8.35979 6.17838 8.22416 6.5695L1.83229 24.962C1.61879 25.5762 2.09391 26.1704 2.68541 26.1704C2.78429 26.1704 2.88579 26.1537 2.98816 26.1188L21.3815 19.726C22.0142 19.5064 22.1997 18.6988 21.7254 18.2254ZM7.28791 13.5284L14.4218 20.6623L3.48779 24.4624L7.28791 13.5284ZM15.8909 20.1513L7.79804 12.0584L9.28904 7.76913L20.1802 18.6603L15.8909 20.1513Z" fill="#534C4C"/>
</g>
</g>
</svg>
