<svg width="28" height="28" viewBox="0 0 28 28" fill="none" xmlns="http://www.w3.org/2000/svg">
<g id="icon/quick_menu/deal">
<g id="Vector">
<path d="M13.9982 10.7642C13.7864 10.5525 13.5047 10.4353 13.2045 10.4353C12.9044 10.4353 12.6227 10.5516 12.4109 10.7642L7.44003 15.7351C7.22828 15.9469 7.11105 16.2286 7.11105 16.5287C7.11105 16.8289 7.22741 17.1106 7.44003 17.3224C7.65178 17.5341 7.93354 17.6514 8.23366 17.6514C8.53379 17.6514 8.81554 17.535 9.02729 17.3224L13.9982 12.3515C14.4357 11.914 14.4357 11.2017 13.9982 10.7642Z" fill="#EC2A38"/>
<path d="M8.09367 12.775C8.45592 12.775 8.7963 12.6341 9.05267 12.3778C9.30905 12.1214 9.44992 11.781 9.44992 11.4188C9.44992 11.0565 9.30905 10.7161 9.05267 10.4598C8.7963 10.2034 8.45592 10.0625 8.09367 10.0625C7.73142 10.0625 7.39103 10.2034 7.13466 10.4598C6.60616 10.9883 6.60616 11.8493 7.13466 12.3778C7.39103 12.6341 7.73142 12.775 8.09367 12.775Z" fill="#EC2A38"/>
<path d="M14.2589 15.7535C14.0025 15.4971 13.6622 15.3563 13.2999 15.3563C12.9377 15.3563 12.5973 15.4971 12.3409 15.7535C11.8124 16.282 11.8124 17.143 12.3409 17.6715C12.5973 17.9279 12.9377 18.0688 13.2999 18.0688C13.6622 18.0688 14.0025 17.9279 14.2589 17.6715C14.5153 17.4151 14.6562 17.0748 14.6562 16.7125C14.6562 16.3503 14.5153 16.0099 14.2589 15.7535Z" fill="#EC2A38"/>
</g>
<g id="Vector_2">
<path d="M1.75 6.125V18.0128C1.75 18.2446 1.84275 18.4678 2.00638 18.6323C3.47463 20.1005 4.39949 21.0254 5.86774 22.4936C6.03224 22.6581 6.2545 22.75 6.48725 22.75H25.375C25.858 22.75 26.25 22.358 26.25 21.875V6.125C26.25 5.642 25.858 5.25 25.375 5.25H2.625C2.142 5.25 1.75 5.642 1.75 6.125ZM24.4125 21.35H20.9108C20.9676 21.2345 21 21.105 21 20.9676C21 20.5931 20.7655 20.2493 20.4076 20.1373C19.8039 19.9474 19.25 20.3928 19.25 20.9676C19.25 21.105 19.2824 21.2345 19.3393 21.35H6.88625C6.76988 21.35 6.65875 21.3036 6.5765 21.2223L3.27776 17.9235C3.19551 17.8413 3.15 17.7301 3.15 17.6138V7.0875C3.15 6.846 3.34601 6.65 3.58751 6.65H19.3104C19.2719 6.74888 19.25 6.85563 19.25 6.96762C19.25 7.34212 19.4845 7.686 19.8424 7.798C20.4461 7.98788 21 7.5425 21 6.96762C21 6.85563 20.9781 6.74888 20.9396 6.65H24.4125C24.654 6.65 24.85 6.846 24.85 7.0875V20.9125C24.85 21.154 24.654 21.35 24.4125 21.35Z" fill="#534C4C"/>
<path d="M20.125 9.59262C19.642 9.59262 19.25 9.98462 19.25 10.4676C19.25 10.9506 19.642 11.3426 20.125 11.3426C20.608 11.3426 21 10.9506 21 10.4676C21 9.98462 20.608 9.59262 20.125 9.59262Z" fill="#534C4C"/>
<path d="M20.125 13.0926C19.642 13.0926 19.25 13.4846 19.25 13.9676C19.25 14.4506 19.642 14.8426 20.125 14.8426C20.608 14.8426 21 14.4506 21 13.9676C21 13.4846 20.608 13.0926 20.125 13.0926Z" fill="#534C4C"/>
<path d="M20.125 16.5926C19.642 16.5926 19.25 16.9846 19.25 17.4676C19.25 17.9506 19.642 18.3426 20.125 18.3426C20.608 18.3426 21 17.9506 21 17.4676C21 16.9846 20.608 16.5926 20.125 16.5926Z" fill="#534C4C"/>
</g>
</g>
</svg>
