<svg width="28" height="28" viewBox="0 0 28 28" fill="none" xmlns="http://www.w3.org/2000/svg">
<g id="icon/quick_menu/midnight">
<path id="Vector" d="M10.9873 8.11993L12.6384 8.6178C12.9508 8.7123 13.0715 9.0903 12.8712 9.34843L11.8115 10.7082L11.8483 12.4319C11.8553 12.7583 11.5324 12.9902 11.2253 12.8782L9.60392 12.2902L7.97555 12.8581C7.66755 12.9657 7.3473 12.7303 7.35867 12.4039L7.41642 10.6811L6.37342 9.30818C6.17567 9.0483 6.3008 8.67118 6.61492 8.58105L8.27217 8.1033L9.25567 6.68668C9.44205 6.41893 9.8393 6.42068 10.0222 6.69105L10.9882 8.11905L10.9873 8.11993Z" fill="#EC2A38"/>
<path id="Vector_2" d="M14 25.1999C8.59428 25.1999 3.9699 21.3631 2.98728 16.0483C2.89715 15.5636 3.11678 15.0937 3.54465 14.8522C3.97515 14.6089 4.49403 14.6641 4.86503 14.9939C6.17928 16.1603 7.86715 16.7999 9.62503 16.7999C9.64865 16.7999 9.6714 16.7999 9.69503 16.7999C13.5739 16.7623 16.7607 13.5756 16.7983 9.69668C16.8158 7.91343 16.1744 6.19843 14.9923 4.86581C14.6633 4.49481 14.6073 3.97593 14.8505 3.54543C15.0929 3.11668 15.5619 2.89793 16.0467 2.98806C21.3859 3.97506 25.2342 8.63881 25.1974 14.0778C25.1782 16.9872 23.9986 19.7574 21.8759 21.8793C19.754 24.0012 16.9829 25.1807 14.0744 25.1999C14.049 25.1999 14.0228 25.1999 13.9974 25.1999H14ZM5.13015 16.9286C4.92015 16.7991 4.66553 17.0082 4.7469 17.2409C6.10578 21.1443 9.81928 23.8306 14.0674 23.7991C19.3078 23.7641 23.7642 19.3068 23.7992 14.0673C23.828 9.81568 21.1435 6.10568 17.2402 4.74681C17.0074 4.66543 16.7983 4.92006 16.9278 5.13006C17.7704 6.49681 18.2149 8.07968 18.1992 9.70981C18.1545 14.3456 14.3457 18.1544 9.7099 18.1991C8.07715 18.2157 6.49603 17.7703 5.13015 16.9277V16.9286Z" fill="#534C4C"/>
</g>
</svg>
