<svg width="28" height="28" viewBox="0 0 28 28" fill="none" xmlns="http://www.w3.org/2000/svg">
<g id="icon/quick_menu/collect_book">
<g id="Vector">
<path d="M13.3816 18.9421C13.113 18.9421 12.8601 18.8371 12.6703 18.6472L10.1958 16.1727C9.80376 15.7807 9.80376 15.1419 10.1958 14.7499C10.3856 14.5601 10.6385 14.4551 10.9071 14.4551C11.1758 14.4551 11.4286 14.5601 11.6185 14.7499L13.3816 16.5131L16.382 13.5127C16.5719 13.3228 16.8248 13.2178 17.0934 13.2178C17.362 13.2178 17.6149 13.3228 17.8048 13.5127C18.1968 13.9047 18.1968 14.5434 17.8048 14.9354L14.0921 18.6481C13.9023 18.8379 13.6494 18.9429 13.3808 18.9429L13.3816 18.9421Z" fill="#EC2A38"/>
<path d="M17.0943 13.3491C17.3183 13.3491 17.5423 13.4348 17.7129 13.6054C18.055 13.9476 18.055 14.5014 17.7129 14.8427L14.0003 18.5553C13.8296 18.7259 13.6056 18.8117 13.3816 18.8117C13.1576 18.8117 12.9336 18.7259 12.763 18.5553L10.2885 16.0808C9.94638 15.7387 9.94638 15.1848 10.2885 14.8436C10.4591 14.6729 10.6831 14.5872 10.9071 14.5872C11.1311 14.5872 11.3551 14.6729 11.5258 14.8436L13.3816 16.6994L16.4756 13.6054C16.6463 13.4348 16.8703 13.3491 17.0943 13.3491ZM17.0943 13.0866C16.7906 13.0866 16.5045 13.2047 16.2901 13.4199L13.3825 16.3276L11.7121 14.6572C11.4969 14.4419 11.2116 14.3238 10.908 14.3238C10.6044 14.3238 10.3183 14.4419 10.1039 14.6572C9.88864 14.8724 9.77051 15.1577 9.77051 15.4613C9.77051 15.7649 9.88864 16.0511 10.1039 16.2654L12.5784 18.7399C12.7936 18.9552 13.0789 19.0733 13.3825 19.0733C13.6861 19.0733 13.9723 18.9552 14.1866 18.7399L17.8993 15.0273C18.1145 14.8121 18.2326 14.5268 18.2326 14.2232C18.2326 13.9196 18.1145 13.6334 17.8993 13.4191C17.684 13.2038 17.3988 13.0857 17.0951 13.0857L17.0943 13.0866Z" fill="#EC2A38"/>
</g>
<path id="Vector_2" d="M19.075 3.50003V2.41765C19.075 2.0309 18.7617 1.71765 18.375 1.71765C17.9882 1.71765 17.675 2.0309 17.675 2.41765V3.50003H10.325V2.41765C10.325 2.0309 10.0117 1.71765 9.625 1.71765C9.23825 1.71765 8.925 2.0309 8.925 2.41765V3.50003H4.375C3.892 3.50003 3.5 3.89203 3.5 4.37503V19.7628C3.5 19.9947 3.59275 20.2178 3.75637 20.3823C5.22462 21.8505 6.1495 22.7754 7.61775 24.2437C7.78225 24.4082 8.0045 24.5 8.23725 24.5H23.625C24.108 24.5 24.5 24.108 24.5 23.625V4.37503C24.5 3.89203 24.108 3.50003 23.625 3.50003H19.075ZM22.6625 23.1H8.63625C8.51988 23.1 8.40875 23.0537 8.3265 22.9723L7.987 22.6328L5.02775 19.6735C4.9455 19.5913 4.9 19.4802 4.9 19.3638V10.15H23.1V22.6625C23.1 22.904 22.904 23.1 22.6625 23.1ZM23.1 8.75003H4.9V5.33753C4.9 5.09603 5.096 4.90003 5.3375 4.90003H8.925V6.26765C8.925 6.6544 9.23825 6.96765 9.625 6.96765C10.0117 6.96765 10.325 6.6544 10.325 6.26765V4.90003H17.675V6.26765C17.675 6.6544 17.9882 6.96765 18.375 6.96765C18.7617 6.96765 19.075 6.6544 19.075 6.26765V4.90003H22.6625C22.904 4.90003 23.1 5.09603 23.1 5.33753V8.75003Z" fill="#534C4C"/>
</g>
</svg>
