<svg width="80" height="26" viewBox="0 0 80 26" fill="none" xmlns="http://www.w3.org/2000/svg">
<g id="type=vip_01_normal, size=none" clip-path="url(#clip0_4091_32155)">
<path id="Vector (Stroke)" fill-rule="evenodd" clip-rule="evenodd" d="M0.000976562 13C0.000976562 5.8203 5.82127 0 13.001 0H67.001C74.1807 0 80.001 5.82029 80.001 13C80.001 20.1797 74.1807 26 67.001 26H13.001C5.82127 26 0.000976562 20.1797 0.000976562 13ZM13.001 2C6.92584 2 2.00098 6.92486 2.00098 13C2.00098 19.0751 6.92584 24 13.001 24H67.001C73.0761 24 78.001 19.0751 78.001 13C78.001 6.92487 73.0761 2 67.001 2H13.001Z" fill="#D4D2D2"/>
<path id="Vector" d="M19.4127 8.09945V18H17.6337L13.2829 11.7106H13.2103V18H11.1558V8.09945H12.9638L17.2808 14.384H17.3678V8.09945H19.4127ZM30.141 13.0497C30.141 16.279 28.1396 18.1354 25.5146 18.1354C22.8799 18.1354 20.893 16.2693 20.893 13.0497C20.893 9.82044 22.8799 7.96409 25.5146 7.96409C28.1396 7.96409 30.141 9.82044 30.141 13.0497ZM22.9766 13.0497C22.9766 15.1623 23.987 16.3128 25.5146 16.3128C27.047 16.3128 28.0574 15.1623 28.0574 13.0497C28.0574 10.9372 27.047 9.7866 25.5146 9.7866C23.987 9.7866 22.9766 10.9372 22.9766 13.0497ZM31.6226 18V8.09945H35.4997C37.7524 8.09945 39.0432 9.37086 39.0432 11.3239C39.0432 12.6823 38.4244 13.6637 37.2932 14.1471L39.4009 18H37.124L35.2434 14.4807H33.6771V18H31.6226ZM33.6771 12.8177H35.1226C36.3408 12.8177 36.9306 12.3149 36.9306 11.3239C36.9306 10.3329 36.3408 9.7866 35.1177 9.7866H33.6771V12.8177ZM40.4683 8.09945H43.0014L45.7521 14.8094H45.8681L48.6188 8.09945H51.1568V18H49.1603V11.5173H49.0781L46.4966 17.9565H45.1237L42.5422 11.4931H42.46V18H40.4683V8.09945ZM54.4761 18H52.2717L55.6944 8.09945H58.3387L61.7614 18H59.5569L58.8125 15.7182H55.2206L54.4761 18ZM55.7427 14.1084H58.2855L57.0528 10.3329H56.9755L55.7427 14.1084ZM62.8765 18V8.09945H64.931V16.2983H69.19V18H62.8765Z" fill="#D4D2D2"/>
</g>
<defs>
<clipPath id="clip0_4091_32155">
<rect width="80" height="26" fill="white" transform="translate(0.000976562)"/>
</clipPath>
</defs>
</svg>
