<svg width="92" height="26" viewBox="0 0 92 26" fill="none" xmlns="http://www.w3.org/2000/svg">
<g id="type=vip_03_silver, size=none" clip-path="url(#clip0_4091_32153)">
<path id="Vector (Stroke)" fill-rule="evenodd" clip-rule="evenodd" d="M0.000976562 13C0.000976562 5.8203 5.82127 0 13.001 0H79.001C86.1807 0 92.001 5.82029 92.001 13C92.001 20.1797 86.1807 26 79.001 26H13.001C5.82127 26 0.000976562 20.1797 0.000976562 13ZM13.001 2C6.92584 2 2.00098 6.92486 2.00098 13C2.00098 19.0751 6.92584 24 13.001 24H79.001C85.0761 24 90.001 19.0751 90.001 13C90.001 6.92487 85.0761 2 79.001 2H13.001Z" fill="#A9A5A5"/>
<path id="Vector" d="M12.5698 8.09945L14.9821 15.6554H15.074L17.4911 8.09945H19.7729L16.3502 18H13.7059L10.2832 8.09945H12.5698ZM22.9426 8.09945V18H20.888V8.09945H22.9426ZM24.6204 18V8.09945H28.4975C30.7503 8.09945 32.041 9.48688 32.041 11.4448C32.041 13.4123 30.7309 14.7756 28.454 14.7756H26.675V18H24.6204ZM26.675 13.1174H28.1204C29.3387 13.1174 29.9284 12.4358 29.9284 11.4448C29.9284 10.4489 29.3387 9.7866 28.1156 9.7866H26.675V13.1174ZM41.9357 10.9323C41.8583 10.1443 41.2347 9.68508 40.2292 9.68508C39.1898 9.68508 38.6097 10.1637 38.6097 10.8163C38.5952 11.5414 39.3348 11.8605 40.1905 12.0587L41.0848 12.2762C42.7768 12.6581 44.0386 13.5235 44.0482 15.1768C44.0386 16.9848 42.627 18.1402 40.2147 18.1402C37.8266 18.1402 36.2989 17.0331 36.2409 14.9157H38.2375C38.3051 15.9116 39.098 16.4095 40.1905 16.4095C41.2685 16.4095 41.9647 15.9116 41.9695 15.1671C41.9647 14.4952 41.3556 14.1809 40.2775 13.9151L39.1946 13.6492C37.5268 13.2431 36.4971 12.4116 36.502 10.9517C36.4923 9.15815 38.0828 7.96409 40.2437 7.96409C42.4384 7.96409 43.8839 9.17749 43.9129 10.9323H41.9357ZM47.4426 8.09945V18H45.388V8.09945H47.4426ZM49.1204 18V8.09945H51.175V16.2983H55.434V18H49.1204ZM57.4273 8.09945L59.8396 15.6554H59.9314L62.3485 8.09945H64.6303L61.2077 18H58.5633L55.1407 8.09945H57.4273ZM65.7454 18V8.09945H72.3877V9.8011H67.8V12.1989H72.0445V13.8957H67.8V16.2983H72.407V18H65.7454ZM73.9896 18V8.09945H77.8666C80.1194 8.09945 81.4102 9.37086 81.4102 11.3239C81.4102 12.6823 80.7914 13.6637 79.6602 14.1471L81.7679 18H79.491L77.6104 14.4807H76.0441V18H73.9896ZM76.0441 12.8177H77.4896C78.7078 12.8177 79.2976 12.3149 79.2976 11.3239C79.2976 10.3329 78.7078 9.7866 77.4847 9.7866H76.0441V12.8177Z" fill="#A9A5A5"/>
</g>
<defs>
<clipPath id="clip0_4091_32153">
<rect width="92" height="26" fill="white" transform="translate(0.000976562)"/>
</clipPath>
</defs>
</svg>
