<svg width="84" height="26" viewBox="0 0 84 26" fill="none" xmlns="http://www.w3.org/2000/svg">
<g id="type=vip_04_gold, size=none" clip-path="url(#clip0_4091_32152)">
<path id="Vector (Stroke)" fill-rule="evenodd" clip-rule="evenodd" d="M0.000976562 13C0.000976562 5.8203 5.82127 0 13.001 0H71.001C78.1807 0 84.001 5.82029 84.001 13C84.001 20.1797 78.1807 26 71.001 26H13.001C5.82127 26 0.000976562 20.1797 0.000976562 13ZM13.001 2C6.92584 2 2.00098 6.92486 2.00098 13C2.00098 19.0751 6.92584 24 13.001 24H71.001C77.0761 24 82.001 19.0751 82.001 13C82.001 6.92487 77.0761 2 71.001 2H13.001Z" fill="#C79565"/>
<path id="Vector" d="M12.586 8.10156L14.9922 15.6484H15.0879L17.5078 8.10156H19.7774L16.3594 18H13.7207L10.2891 8.10156H12.586ZM22.9492 8.10156V18H20.8985V8.10156H22.9492ZM24.6172 18V8.10156H28.5C30.7559 8.10156 32.041 9.48242 32.041 11.4375C32.041 13.4199 30.7285 14.7734 28.4453 14.7734H26.668V18H24.6172ZM26.668 13.1191H28.1172C29.334 13.1191 29.9219 12.4355 29.9219 11.4375C29.9219 10.4531 29.334 9.7832 28.1172 9.7832H26.668V13.1191ZM43.1426 11.2871C42.8692 10.3574 42.1172 9.7832 41.0371 9.7832C39.5059 9.7832 38.4668 10.959 38.4668 13.0371C38.4668 15.1289 39.4785 16.3184 41.0508 16.3184C42.4658 16.3184 43.3067 15.5186 43.334 14.2676H41.1875V12.7227H45.3164V13.9531C45.3164 16.5508 43.5391 18.1367 41.0371 18.1367C38.2617 18.1367 36.375 16.1953 36.375 13.0645C36.375 9.85156 38.3848 7.96484 40.9961 7.96484C43.2246 7.96484 44.9473 9.33203 45.2207 11.2871H43.1426ZM55.8848 13.0508C55.8848 16.2773 53.875 18.1367 51.2637 18.1367C48.625 18.1367 46.6289 16.2637 46.6289 13.0508C46.6289 9.82422 48.625 7.96484 51.2637 7.96484C53.875 7.96484 55.8848 9.82422 55.8848 13.0508ZM53.793 13.0508C53.793 10.9316 52.7949 9.7832 51.2637 9.7832C49.7324 9.7832 48.7207 10.9316 48.7207 13.0508C48.7207 15.1699 49.7324 16.3184 51.2637 16.3184C52.7949 16.3184 53.793 15.1699 53.793 13.0508ZM57.3614 18V8.10156H59.4121V16.3047H63.6778V18H57.3614ZM68.4903 18H65.0039V8.10156H68.5313C71.5117 8.10156 73.3301 9.96094 73.3301 13.0371C73.3301 16.1406 71.5117 18 68.4903 18ZM67.0547 16.2363H68.4082C70.2949 16.2363 71.2793 15.252 71.2793 13.0371C71.2793 10.8359 70.2949 9.86523 68.4219 9.86523H67.0547V16.2363Z" fill="#C79565"/>
</g>
<defs>
<clipPath id="clip0_4091_32152">
<rect width="84" height="26" fill="white" transform="translate(0.000976562)"/>
</clipPath>
</defs>
</svg>
