<svg width="52" height="26" viewBox="0 0 52 26" fill="none" xmlns="http://www.w3.org/2000/svg">
<g id="badge" clip-path="url(#clip0_4172_34498)">
<path id="Vector (Stroke)" fill-rule="evenodd" clip-rule="evenodd" d="M0 13C0 5.8203 5.8203 0 13 0H39C46.1797 0 52 5.82029 52 13C52 20.1797 46.1797 26 39 26H13C5.82029 26 0 20.1797 0 13ZM13 2C6.92486 2 2 6.92486 2 13C2 19.0751 6.92487 24 13 24H39C45.0751 24 50 19.0751 50 13C50 6.92487 45.0751 2 39 2H13Z" fill="#B05DE3"/>
<path id="Vector" d="M11.2983 18V8.09946H15.1754C17.4282 8.09946 18.7189 9.37087 18.7189 11.3239C18.7189 12.6823 18.1001 13.6637 16.9689 14.1471L19.0767 18H16.7997L14.9192 14.4807H13.3529V18H11.2983ZM13.3529 12.8177H14.7983C16.0166 12.8177 16.6064 12.3149 16.6064 11.3239C16.6064 10.3329 16.0166 9.78661 14.7935 9.78661H13.3529V12.8177ZM21.6013 8.09946L24.0136 15.6554H24.1054L26.5225 8.09946H28.8043L25.3817 18H22.7373L19.3147 8.09946H21.6013ZM31.974 8.09946V18H29.9194V8.09946H31.974ZM33.6519 18V8.09946H37.5289C39.7817 8.09946 41.0724 9.48689 41.0724 11.4448C41.0724 13.4123 39.7624 14.7756 37.4854 14.7756H35.7064V18H33.6519ZM35.7064 13.1174H37.1519C38.3701 13.1174 38.9599 12.4358 38.9599 11.4448C38.9599 10.4489 38.3701 9.78661 37.147 9.78661H35.7064V13.1174Z" fill="#B05DE3"/>
</g>
<defs>
<clipPath id="clip0_4172_34498">
<rect width="52" height="26" fill="white"/>
</clipPath>
</defs>
</svg>
