<svg width="43" height="26" viewBox="0 0 43 26" fill="none" xmlns="http://www.w3.org/2000/svg">
<g id="type=vip_02_vip, size=none" clip-path="url(#clip0_4091_32154)">
<path id="Vector (Stroke)" fill-rule="evenodd" clip-rule="evenodd" d="M0.000976562 13C0.000976562 5.8203 5.82127 0 13.001 0H30.001C37.1807 0 43.001 5.82029 43.001 13C43.001 20.1797 37.1807 26 30.001 26H13.001C5.82127 26 0.000976562 20.1797 0.000976562 13ZM13.001 2C6.92584 2 2.00098 6.92486 2.00098 13C2.00098 19.0751 6.92584 24 13.001 24H30.001C36.0761 24 41.001 19.0751 41.001 13C41.001 6.92487 36.0761 2 30.001 2H13.001Z" fill="#EC2A38"/>
<path id="Vector" d="M12.8159 8.09945L15.2282 15.6554H15.3201L17.7372 8.09945H20.019L16.5963 18H13.952L10.5293 8.09945H12.8159ZM23.1887 8.09945V18H21.1341V8.09945H23.1887ZM24.8665 18V8.09945H28.7436C30.9964 8.09945 32.2871 9.48688 32.2871 11.4448C32.2871 13.4123 30.977 14.7756 28.7001 14.7756H26.9211V18H24.8665ZM26.9211 13.1174H28.3665C29.5848 13.1174 30.1745 12.4358 30.1745 11.4448C30.1745 10.4489 29.5848 9.7866 28.3617 9.7866H26.9211V13.1174Z" fill="#EC2A38"/>
</g>
<defs>
<clipPath id="clip0_4091_32154">
<rect width="43" height="26" fill="white" transform="translate(0.000976562)"/>
</clipPath>
</defs>
</svg>
