<svg width="80" height="26" viewBox="0 0 80 26" fill="none" xmlns="http://www.w3.org/2000/svg">
<g id="badge" clip-path="url(#clip0_4172_34494)">
<path id="Vector (Stroke)" fill-rule="evenodd" clip-rule="evenodd" d="M0 13C0 5.8203 5.8203 0 13 0H67C74.1797 0 80 5.82029 80 13C80 20.1797 74.1797 26 67 26H13C5.82029 26 0 20.1797 0 13ZM13 2C6.92486 2 2 6.92486 2 13C2 19.0751 6.92487 24 13 24H67C73.0751 24 78 19.0751 78 13C78 6.92487 73.0751 2 67 2H13Z" fill="#534C4C"/>
<path id="Vector" d="M19.4117 8.09944V18H17.6327L13.2819 11.7106H13.2093V18H11.1548V8.09944H12.9628L17.2798 14.384H17.3668V8.09944H19.4117ZM30.14 13.0497C30.14 16.279 28.1386 18.1354 25.5136 18.1354C22.8789 18.1354 20.892 16.2693 20.892 13.0497C20.892 9.82043 22.8789 7.96408 25.5136 7.96408C28.1386 7.96408 30.14 9.82043 30.14 13.0497ZM22.9756 13.0497C22.9756 15.1623 23.986 16.3128 25.5136 16.3128C27.046 16.3128 28.0564 15.1623 28.0564 13.0497C28.0564 10.9372 27.046 9.78659 25.5136 9.78659C23.986 9.78659 22.9756 10.9372 22.9756 13.0497ZM31.6216 18V8.09944H35.4987C37.7514 8.09944 39.0422 9.37085 39.0422 11.3239C39.0422 12.6823 38.4234 13.6637 37.2922 14.1471L39.3999 18H37.123L35.2424 14.4807H33.6761V18H31.6216ZM33.6761 12.8177H35.1216C36.3398 12.8177 36.9296 12.3149 36.9296 11.3239C36.9296 10.3329 36.3398 9.78659 35.1167 9.78659H33.6761V12.8177ZM40.4673 8.09944H43.0004L45.7511 14.8094H45.8671L48.6178 8.09944H51.1558V18H49.1593V11.5173H49.0771L46.4956 17.9565H45.1227L42.5412 11.4931H42.459V18H40.4673V8.09944ZM54.4751 18H52.2707L55.6934 8.09944H58.3377L61.7604 18H59.5559L58.8115 15.7182H55.2196L54.4751 18ZM55.7417 14.1084H58.2845L57.0518 10.3329H56.9745L55.7417 14.1084ZM62.8755 18V8.09944H64.93V16.2983H69.189V18H62.8755Z" fill="#534C4C"/>
</g>
<defs>
<clipPath id="clip0_4172_34494">
<rect width="80" height="26" fill="white"/>
</clipPath>
</defs>
</svg>
