<svg width="43" height="26" viewBox="0 0 43 26" fill="none" xmlns="http://www.w3.org/2000/svg">
<g id="badge" clip-path="url(#clip0_4172_34495)">
<path id="Vector (Stroke)" fill-rule="evenodd" clip-rule="evenodd" d="M0 13C0 5.8203 5.8203 0 13 0H30C37.1797 0 43 5.82029 43 13C43 20.1797 37.1797 26 30 26H13C5.82029 26 0 20.1797 0 13ZM13 2C6.92486 2 2 6.92486 2 13C2 19.0751 6.92487 24 13 24H30C36.0751 24 41 19.0751 41 13C41 6.92487 36.0751 2 30 2H13Z" fill="#FF3746"/>
<path id="Vector" d="M12.8149 8.09946L15.2272 15.6554H15.3191L17.7362 8.09946H20.018L16.5953 18H13.951L10.5283 8.09946H12.8149ZM23.1877 8.09946V18H21.1331V8.09946H23.1877ZM24.8655 18V8.09946H28.7426C30.9954 8.09946 32.2861 9.48689 32.2861 11.4448C32.2861 13.4123 30.976 14.7756 28.6991 14.7756H26.9201V18H24.8655ZM26.9201 13.1174H28.3655C29.5838 13.1174 30.1735 12.4358 30.1735 11.4448C30.1735 10.4489 29.5838 9.78661 28.3607 9.78661H26.9201V13.1174Z" fill="#FF3746"/>
</g>
<defs>
<clipPath id="clip0_4172_34495">
<rect width="43" height="26" fill="white"/>
</clipPath>
</defs>
</svg>
