<svg width="16" height="16" viewBox="0 0 16 16" fill="none" xmlns="http://www.w3.org/2000/svg">
<g id="icon/filled/x_circle">
<path id="icon" fill-rule="evenodd" clip-rule="evenodd" d="M7.99961 14.4C11.5342 14.4 14.3996 11.5346 14.3996 7.99998C14.3996 4.46535 11.5342 1.59998 7.99961 1.59998C4.46499 1.59998 1.59961 4.46535 1.59961 7.99998C1.59961 11.5346 4.46499 14.4 7.99961 14.4ZM6.9653 5.83429C6.65288 5.52187 6.14634 5.52187 5.83392 5.83429C5.5215 6.14671 5.5215 6.65324 5.83392 6.96566L6.86824 7.99998L5.83392 9.03429C5.5215 9.34671 5.5215 9.85324 5.83392 10.1657C6.14634 10.4781 6.65288 10.4781 6.96529 10.1657L7.99961 9.13135L9.03392 10.1657C9.34634 10.4781 9.85288 10.4781 10.1653 10.1657C10.4777 9.85324 10.4777 9.34671 10.1653 9.03429L9.13098 7.99998L10.1653 6.96566C10.4777 6.65324 10.4777 6.14671 10.1653 5.83429C9.85288 5.52187 9.34634 5.52187 9.03392 5.83429L7.99961 6.8686L6.9653 5.83429Z" fill="#938F8F"/>
</g>
</svg>
