<svg width="16" height="16" viewBox="0 0 16 16" fill="none" xmlns="http://www.w3.org/2000/svg">
<g id="icon/filled/x_circle">
<path id="icon" fill-rule="evenodd" clip-rule="evenodd" d="M7.99961 14.4C11.5342 14.4 14.3996 11.5346 14.3996 8C14.3996 4.46538 11.5342 1.6 7.99961 1.6C4.46499 1.6 1.59961 4.46538 1.59961 8C1.59961 11.5346 4.46499 14.4 7.99961 14.4ZM6.9653 5.83432C6.65288 5.5219 6.14634 5.5219 5.83392 5.83432C5.5215 6.14674 5.5215 6.65327 5.83392 6.96569L6.86824 8L5.83392 9.03432C5.5215 9.34674 5.5215 9.85327 5.83392 10.1657C6.14634 10.4781 6.65288 10.4781 6.96529 10.1657L7.99961 9.13137L9.03392 10.1657C9.34634 10.4781 9.85288 10.4781 10.1653 10.1657C10.4777 9.85327 10.4777 9.34674 10.1653 9.03432L9.13098 8L10.1653 6.96569C10.4777 6.65327 10.4777 6.14674 10.1653 5.83432C9.85288 5.5219 9.34634 5.5219 9.03392 5.83432L7.99961 6.86863L6.9653 5.83432Z" fill="#817B7B"/>
</g>
</svg>
