<svg width="16" height="16" viewBox="0 0 16 16" fill="none" xmlns="http://www.w3.org/2000/svg">
<g id="icon/filled/x_circle">
<path id="icon" fill-rule="evenodd" clip-rule="evenodd" d="M8.00107 14.4001C11.5357 14.4001 14.4011 11.5347 14.4011 8.0001C14.4011 4.46548 11.5357 1.6001 8.00107 1.6001C4.46645 1.6001 1.60107 4.46548 1.60107 8.0001C1.60107 11.5347 4.46645 14.4001 8.00107 14.4001ZM6.96676 5.83441C6.65434 5.52199 6.14781 5.52199 5.83539 5.83441C5.52297 6.14683 5.52297 6.65336 5.83539 6.96578L6.8697 8.0001L5.83539 9.03441C5.52297 9.34683 5.52297 9.85336 5.83539 10.1658C6.14781 10.4782 6.65434 10.4782 6.96676 10.1658L8.00107 9.13147L9.03539 10.1658C9.34781 10.4782 9.85434 10.4782 10.1668 10.1658C10.4792 9.85336 10.4792 9.34683 10.1668 9.03441L9.13244 8.0001L10.1668 6.96578C10.4792 6.65336 10.4792 6.14683 10.1668 5.83441C9.85434 5.52199 9.34781 5.52199 9.03539 5.83441L8.00107 6.86873L6.96676 5.83441Z" fill="white"/>
</g>
</svg>
