<svg width="18" height="18" viewBox="0 0 18 18" fill="none" xmlns="http://www.w3.org/2000/svg">
<g id="icon/filled/x_circle">
<path id="icon" fill-rule="evenodd" clip-rule="evenodd" d="M8.9998 16.2C12.9763 16.2 16.1998 12.9765 16.1998 9.00005C16.1998 5.0236 12.9763 1.80005 8.9998 1.80005C5.02335 1.80005 1.7998 5.0236 1.7998 9.00005C1.7998 12.9765 5.02335 16.2 8.9998 16.2ZM7.8362 6.56365C7.48473 6.21218 6.91488 6.21218 6.56341 6.56365C6.21194 6.91512 6.21194 7.48497 6.56341 7.83644L7.72701 9.00005L6.56341 10.1637C6.21194 10.5151 6.21194 11.085 6.56341 11.4364C6.91488 11.7879 7.48473 11.7879 7.8362 11.4364L8.9998 10.2728L10.1634 11.4364C10.5149 11.7879 11.0847 11.7879 11.4362 11.4364C11.7877 11.085 11.7877 10.5151 11.4362 10.1637L10.2726 9.00005L11.4362 7.83644C11.7877 7.48497 11.7877 6.91512 11.4362 6.56365C11.0847 6.21218 10.5149 6.21218 10.1634 6.56365L8.9998 7.72726L7.8362 6.56365Z" fill="#A9A5A5"/>
</g>
</svg>
