<svg width="16" height="16" viewBox="0 0 16 16" fill="none" xmlns="http://www.w3.org/2000/svg">
<g id="icon/filled/info_circle">
<path id="icon" fill-rule="evenodd" clip-rule="evenodd" d="M1.5999 8.00039C1.5999 4.46577 4.46528 1.60039 7.9999 1.60039C11.5345 1.60039 14.3999 4.46577 14.3999 8.00039C14.3999 11.535 11.5345 14.4004 7.9999 14.4004C4.46528 14.4004 1.5999 11.535 1.5999 8.00039ZM7.1999 4.80039C7.1999 4.35856 7.55807 4.00039 7.9999 4.00039C8.44173 4.00039 8.7999 4.35856 8.7999 4.80039C8.7999 5.24222 8.44173 5.60039 7.9999 5.60039C7.55807 5.60039 7.1999 5.24222 7.1999 4.80039ZM7.9999 12.0004C8.44173 12.0004 8.7999 11.6422 8.7999 11.2004L8.7999 8.00039C8.7999 7.55856 8.44173 7.20039 7.9999 7.20039C7.55807 7.20039 7.1999 7.55856 7.1999 8.00039L7.1999 11.2004C7.1999 11.6422 7.55807 12.0004 7.9999 12.0004Z" fill="#817b7b"/>
</g>
</svg>
