<svg width="16" height="16" viewBox="0 0 16 16" fill="none" xmlns="http://www.w3.org/2000/svg">
<g id="icon/filled/camera">
<path id="icon" fill-rule="evenodd" clip-rule="evenodd" d="M5.87599 2.20943C6.02469 2.1527 6.17953 2.13379 6.33334 2.13379H9.66668C9.82049 2.13379 9.97533 2.1527 10.124 2.20944C10.2796 2.26879 10.3995 2.35844 10.4949 2.46019C10.582 2.55319 10.6472 2.6555 10.694 2.73132C10.7103 2.75774 10.7251 2.78201 10.7392 2.80531C10.7718 2.85894 10.8012 2.90742 10.8396 2.96502L11.3813 3.77755C11.4332 3.85548 11.4806 3.93355 11.5164 3.99242C11.5278 4.01125 11.538 4.02811 11.5468 4.04237C11.5764 4.09019 11.5942 4.11609 11.6052 4.13062C11.6178 4.13221 11.6376 4.13379 11.6667 4.13379H13C13.4066 4.13379 13.8406 4.20115 14.1533 4.51386C14.466 4.82657 14.5333 5.26051 14.5333 5.66712V12.3338C14.5333 12.7404 14.466 13.1743 14.1533 13.4871C13.8406 13.7998 13.4066 13.8671 13 13.8671H3.00001C2.5934 13.8671 2.15945 13.7998 1.84674 13.4871C1.53403 13.1743 1.46667 12.7404 1.46667 12.3338V5.66712C1.46667 5.26051 1.53403 4.82657 1.84674 4.51386C2.15945 4.20115 2.5934 4.13379 3.00001 4.13379H4.33334C4.36243 4.13379 4.38225 4.13221 4.3948 4.13062C4.40584 4.11609 4.42364 4.0902 4.45318 4.04237C4.46199 4.02811 4.47223 4.01125 4.48365 3.99242C4.51939 3.93355 4.56678 3.85548 4.61874 3.77755L5.16043 2.96502C5.19882 2.90742 5.22825 2.85894 5.26081 2.80531C5.27495 2.78201 5.28968 2.75774 5.306 2.73132C5.35283 2.6555 5.41802 2.55319 5.50517 2.46019C5.60052 2.35844 5.72043 2.26879 5.87599 2.20943ZM8.00001 7.20046C7.18999 7.20046 6.53334 7.85711 6.53334 8.66712C6.53334 9.47714 7.18999 10.1338 8.00001 10.1338C8.81003 10.1338 9.46668 9.47714 9.46668 8.66712C9.46668 7.85711 8.81003 7.20046 8.00001 7.20046ZM5.46667 8.66712C5.46667 7.268 6.60089 6.13379 8.00001 6.13379C9.39913 6.13379 10.5333 7.268 10.5333 8.66712C10.5333 10.0662 9.39913 11.2005 8.00001 11.2005C6.60089 11.2005 5.46667 10.0662 5.46667 8.66712Z" fill="#121212"/>
</g>
</svg>
