<svg width="16" height="16" viewBox="0 0 16 16" fill="none" xmlns="http://www.w3.org/2000/svg">
<g id="icon/filled/info_circle">
<path id="icon" fill-rule="evenodd" clip-rule="evenodd" d="M1.5999 7.99844C1.5999 4.46381 4.46528 1.59844 7.9999 1.59844C11.5345 1.59844 14.3999 4.46381 14.3999 7.99844C14.3999 11.5331 11.5345 14.3984 7.9999 14.3984C4.46528 14.3984 1.5999 11.5331 1.5999 7.99844ZM7.1999 4.79844C7.1999 4.35661 7.55807 3.99844 7.9999 3.99844C8.44173 3.99844 8.7999 4.35661 8.7999 4.79844C8.7999 5.24026 8.44173 5.59844 7.9999 5.59844C7.55807 5.59844 7.1999 5.24026 7.1999 4.79844ZM7.9999 11.9984C8.44173 11.9984 8.7999 11.6403 8.7999 11.1984L8.7999 7.99844C8.7999 7.55661 8.44173 7.19844 7.9999 7.19844C7.55807 7.19844 7.1999 7.55661 7.1999 7.99844L7.1999 11.1984C7.1999 11.6403 7.55807 11.9984 7.9999 11.9984Z" fill="#938F8F"/>
</g>
</svg>
