<svg width="19" height="18" viewBox="0 0 19 18" fill="none" xmlns="http://www.w3.org/2000/svg">
<g id="icon/outlined/right_circle">
<g id="icon">
<path fill-rule="evenodd" clip-rule="evenodd" d="M9.91846 14.625C13.0251 14.625 15.5435 12.1066 15.5435 9C15.5435 5.8934 13.0251 3.375 9.91846 3.375C6.81186 3.375 4.29346 5.8934 4.29346 9C4.29346 12.1066 6.81186 14.625 9.91846 14.625ZM9.91846 15.75C13.6464 15.75 16.6685 12.7279 16.6685 9C16.6685 5.27208 13.6464 2.25 9.91846 2.25C6.19053 2.25 3.16846 5.27208 3.16846 9C3.16846 12.7279 6.19053 15.75 9.91846 15.75Z" fill="#fff"/>
<path fill-rule="evenodd" clip-rule="evenodd" d="M8.77071 6.35225C8.99038 6.13258 9.34653 6.13258 9.5662 6.35225L11.8162 8.60225C12.0359 8.82192 12.0359 9.17808 11.8162 9.39775L9.5662 11.6477C9.34653 11.8674 8.99038 11.8674 8.77071 11.6477C8.55104 11.4281 8.55104 11.0719 8.77071 10.8523L10.623 9L8.77071 7.14775C8.55104 6.92808 8.55104 6.57192 8.77071 6.35225Z" fill="#fff"/>
</g>
</g>
</svg>
