<svg width="18" height="18" viewBox="0 0 18 18" fill="none" xmlns="http://www.w3.org/2000/svg">
<g id="icon/filled/coupon" clip-path="url(#clip0_4754_24858)">
<path id="icon" d="M17.2495 7.3125V3.61607C17.2495 3.276 16.9735 3 16.6334 3H0.615583C0.275512 3 -0.000488281 3.276 -0.000488281 3.61607V11.986C-0.000488281 12.1493 0.0648153 12.3064 0.180021 12.4222C1.21379 13.456 1.86498 14.1072 2.89874 15.1409C3.01457 15.2567 3.17105 15.3214 3.33492 15.3214H16.6334C16.9735 15.3214 17.2495 15.0454 17.2495 14.7054V11.0089C16.2287 11.0089 15.4013 10.1815 15.4013 9.16071C15.4013 8.13988 16.2287 7.3125 17.2495 7.3125ZM8.12857 11.2855C7.93328 11.4685 7.71457 11.6244 7.478 11.7476C7.06647 11.962 6.60256 12.0747 6.13558 12.0747C5.35564 12.0747 4.62251 11.7704 4.07174 11.2178C3.52098 10.6652 3.2191 9.9308 3.22157 9.15086C3.22403 8.39555 3.51913 7.67783 4.05203 7.13014C4.58493 6.58246 5.29465 6.26949 6.04995 6.24731C6.0789 6.2467 6.10724 6.24608 6.1362 6.24608C6.59579 6.24608 7.03505 6.3502 7.44289 6.55535C7.6924 6.68103 7.92281 6.84182 8.12734 7.03342C8.2524 7.15047 8.32264 7.31004 8.32572 7.48315C8.3288 7.65565 8.2598 7.82507 8.13782 7.94705L8.07621 8.00866C7.95669 8.12818 7.79774 8.1941 7.62894 8.1941C7.46014 8.1941 7.30797 8.13187 7.18537 8.01975C7.10466 7.9452 7.01595 7.87929 6.92169 7.82384C6.6845 7.68338 6.41282 7.60945 6.1362 7.60945C5.69817 7.60945 5.27801 7.79673 4.98353 8.12325C4.68289 8.45716 4.54427 8.88903 4.59479 9.33876C4.6336 9.68622 4.7944 10.0152 5.0476 10.2647C5.30081 10.5142 5.63164 10.6701 5.98033 10.7046C6.03208 10.7095 6.08507 10.712 6.13682 10.712C6.38817 10.712 6.6383 10.6498 6.85947 10.5327C6.98022 10.4686 7.09296 10.3885 7.19338 10.2949C7.31105 10.1852 7.46383 10.1249 7.62524 10.1249C7.79528 10.1249 7.95484 10.1908 8.07498 10.3103L8.07682 10.3122L8.13843 10.3738C8.26041 10.4957 8.32941 10.6652 8.32633 10.8377C8.32387 11.0095 8.25364 11.1685 8.12981 11.2849L8.12857 11.2855ZM12.3209 14.6819C11.9809 14.6819 11.7049 14.4059 11.7049 14.0659C11.7049 13.7258 11.9809 13.4498 12.3209 13.4498C12.661 13.4498 12.937 13.7258 12.937 14.0659C12.937 14.4059 12.661 14.6819 12.3209 14.6819ZM12.3209 12.2177C11.9809 12.2177 11.7049 11.9417 11.7049 11.6016C11.7049 11.2615 11.9809 10.9855 12.3209 10.9855C12.661 10.9855 12.937 11.2615 12.937 11.6016C12.937 11.9417 12.661 12.2177 12.3209 12.2177ZM12.3209 9.75337C11.9809 9.75337 11.7049 9.47737 11.7049 9.1373C11.7049 8.79723 11.9809 8.52123 12.3209 8.52123C12.661 8.52123 12.937 8.79723 12.937 9.1373C12.937 9.47737 12.661 9.75337 12.3209 9.75337ZM12.3209 7.28909C11.9809 7.28909 11.7049 7.01309 11.7049 6.67302C11.7049 6.33295 11.9809 6.05695 12.3209 6.05695C12.661 6.05695 12.937 6.33295 12.937 6.67302C12.937 7.01309 12.661 7.28909 12.3209 7.28909ZM12.3209 4.8248C11.9809 4.8248 11.7049 4.5488 11.7049 4.20873C11.7049 3.86866 11.9809 3.59266 12.3209 3.59266C12.661 3.59266 12.937 3.86866 12.937 4.20873C12.937 4.5488 12.661 4.8248 12.3209 4.8248Z" fill="white"/>
</g>
<defs>
<clipPath id="clip0_4754_24858">
<rect width="18" height="18" fill="white" transform="translate(-0.000488281)"/>
</clipPath>
</defs>
</svg>
