<svg width="18" height="18" viewBox="0 0 18 18" fill="none" xmlns="http://www.w3.org/2000/svg">
<g id="icon/outlined/lock-closed">
<g id="icon">
<path fill-rule="evenodd" clip-rule="evenodd" d="M5.43745 5.25C5.43745 3.28249 7.03243 1.6875 8.99995 1.6875C10.9675 1.6875 12.5624 3.28249 12.5624 5.25V7.6875H14.2499C14.3049 7.6875 14.3611 7.68701 14.4164 7.68653C14.5393 7.68545 14.6574 7.68442 14.7454 7.68893C14.8534 7.69446 15.1256 7.70882 15.3334 7.91659C15.5411 8.12436 15.5555 8.39657 15.561 8.50454C15.5655 8.59258 15.5645 8.71069 15.5634 8.83359C15.5629 8.88886 15.5624 8.94509 15.5624 9V15C15.5624 15.0549 15.5629 15.1111 15.5634 15.1664C15.5645 15.2893 15.5655 15.4074 15.561 15.4955C15.5555 15.6034 15.5411 15.8756 15.3334 16.0834C15.1256 16.2912 14.8534 16.3055 14.7454 16.3111C14.6574 16.3156 14.5393 16.3146 14.4164 16.3135C14.3611 16.313 14.3049 16.3125 14.2499 16.3125H5.24995C5.10076 16.3125 4.95769 16.2532 4.8522 16.1477L2.6022 13.8977C2.49671 13.7923 2.43745 13.6492 2.43745 13.5V9.00017L3.56245 9.00004V13.267L5.48294 15.1875H14.2499C14.3182 15.1875 14.3822 15.188 14.4385 15.1885C14.438 15.1323 14.4374 15.0682 14.4374 15V9C14.4374 8.93178 14.438 8.86771 14.4385 8.81146C14.3822 8.81197 14.3182 8.8125 14.2499 8.8125H3.74995C3.68173 8.8125 3.61766 8.81197 3.56141 8.81146C3.56192 8.86771 3.56245 8.93182 3.56245 9.00004L2.43745 9.00017C2.43745 8.94526 2.43696 8.88886 2.43647 8.83359C2.4354 8.7107 2.43436 8.59258 2.43888 8.50454C2.44441 8.39657 2.45877 8.12436 2.66654 7.91659C2.87431 7.70882 3.14652 7.69446 3.25449 7.68893C3.34253 7.68442 3.46064 7.68545 3.58354 7.68653C3.63881 7.68701 3.69504 7.6875 3.74995 7.6875H5.43745V5.25ZM6.56245 7.6875H11.4374V5.25C11.4374 3.90381 10.3461 2.8125 8.99995 2.8125C7.65375 2.8125 6.56245 3.90381 6.56245 5.25V7.6875ZM8.99995 10.6875C9.31061 10.6875 9.56245 10.9393 9.56245 11.25V12.75C9.56245 13.0607 9.31061 13.3125 8.99995 13.3125C8.68929 13.3125 8.43745 13.0607 8.43745 12.75V11.25C8.43745 10.9393 8.68929 10.6875 8.99995 10.6875Z" fill="#fff"/>
<path fill-rule="evenodd" clip-rule="evenodd" d="M8.17495 12.75C8.17495 12.2944 8.54431 11.925 8.99995 11.925H9.00141C9.45705 11.925 9.82641 12.2944 9.82641 12.75C9.82641 13.2056 9.45705 13.575 9.00141 13.575H8.99995C8.54431 13.575 8.17495 13.2056 8.17495 12.75Z" fill="#fff"/>
</g>
</g>
</svg>
