<svg width="24" height="24" viewBox="0 0 24 24" fill="none" xmlns="http://www.w3.org/2000/svg">
<g id="icon/outlined/chat">
<g id="icon">
<path fill-rule="evenodd" clip-rule="evenodd" d="M12.2 3.75C7.64366 3.75 3.95001 7.44365 3.95001 12C3.95001 13.0124 4.13202 13.9806 4.46445 14.8747C4.73182 15.5939 4.88039 16.4224 4.7123 17.2628L4.37671 18.9408C4.27175 19.4656 4.73444 19.9283 5.25923 19.8233L6.9372 19.4877C7.77766 19.3196 8.60614 19.4682 9.32531 19.7356C10.2195 20.068 11.1876 20.25 12.2 20.25C16.7564 20.25 20.45 16.5563 20.45 12C20.45 7.44365 16.7564 3.75 12.2 3.75ZM2.45001 12C2.45001 6.61522 6.81524 2.25 12.2 2.25C17.5848 2.25 21.95 6.61522 21.95 12C21.95 17.3848 17.5848 21.75 12.2 21.75C11.0065 21.75 9.86149 21.5352 8.8026 21.1415C8.2538 20.9375 7.7174 20.8614 7.23137 20.9586L5.55341 21.2942C3.97903 21.609 2.59096 20.221 2.90584 18.6466L3.24143 16.9686C3.33864 16.4826 3.26251 15.9462 3.05847 15.3974C2.6648 14.3385 2.45001 13.1935 2.45001 12Z" fill="white"/>
<path d="M9.20001 12C9.20001 12.5523 8.7523 13 8.20001 13C7.64773 13 7.20001 12.5523 7.20001 12C7.20001 11.4477 7.64773 11 8.20001 11C8.7523 11 9.20001 11.4477 9.20001 12Z" fill="white"/>
<path fill-rule="evenodd" clip-rule="evenodd" d="M8.20001 11.2C7.75818 11.2 7.40001 11.5582 7.40001 12C7.40001 12.4418 7.75818 12.8 8.20001 12.8C8.64184 12.8 9.00001 12.4418 9.00001 12C9.00001 11.5582 8.64184 11.2 8.20001 11.2ZM7.00001 12C7.00001 11.3373 7.53727 10.8 8.20001 10.8C8.86275 10.8 9.40001 11.3373 9.40001 12C9.40001 12.6627 8.86275 13.2 8.20001 13.2C7.53727 13.2 7.00001 12.6627 7.00001 12Z" fill="white"/>
<path d="M13.2 12C13.2 12.5523 12.7523 13 12.2 13C11.6477 13 11.2 12.5523 11.2 12C11.2 11.4477 11.6477 11 12.2 11C12.7523 11 13.2 11.4477 13.2 12Z" fill="white"/>
<path fill-rule="evenodd" clip-rule="evenodd" d="M12.2 11.2C11.7582 11.2 11.4 11.5582 11.4 12C11.4 12.4418 11.7582 12.8 12.2 12.8C12.6418 12.8 13 12.4418 13 12C13 11.5582 12.6418 11.2 12.2 11.2ZM11 12C11 11.3373 11.5373 10.8 12.2 10.8C12.8628 10.8 13.4 11.3373 13.4 12C13.4 12.6627 12.8628 13.2 12.2 13.2C11.5373 13.2 11 12.6627 11 12Z" fill="white"/>
<path d="M17.2 12C17.2 12.5523 16.7523 13 16.2 13C15.6477 13 15.2 12.5523 15.2 12C15.2 11.4477 15.6477 11 16.2 11C16.7523 11 17.2 11.4477 17.2 12Z" fill="white"/>
<path fill-rule="evenodd" clip-rule="evenodd" d="M16.2 11.2C15.7582 11.2 15.4 11.5582 15.4 12C15.4 12.4418 15.7582 12.8 16.2 12.8C16.6418 12.8 17 12.4418 17 12C17 11.5582 16.6418 11.2 16.2 11.2ZM15 12C15 11.3373 15.5373 10.8 16.2 10.8C16.8628 10.8 17.4 11.3373 17.4 12C17.4 12.6627 16.8628 13.2 16.2 13.2C15.5373 13.2 15 12.6627 15 12Z" fill="white"/>
</g>
</g>
</svg>
