<svg width="48" height="48" viewBox="0 0 48 48" fill="none" xmlns="http://www.w3.org/2000/svg">
<g id="icon/outlined/chevron_double_rifht">
<path id="icon" fill-rule="evenodd" clip-rule="evenodd" d="M8.93934 8.93934C9.52513 8.35355 10.4749 8.35355 11.0607 8.93934L25.0607 22.9393C25.342 23.2206 25.5 23.6022 25.5 24C25.5 24.3978 25.342 24.7794 25.0607 25.0607L11.0607 39.0607C10.4749 39.6464 9.52513 39.6464 8.93934 39.0607C8.35355 38.4749 8.35355 37.5251 8.93934 36.9393L21.8787 24L8.93934 11.0607C8.35355 10.4749 8.35355 9.52513 8.93934 8.93934ZM24.9393 8.93934C25.5251 8.35355 26.4749 8.35355 27.0607 8.93934L41.0607 22.9393C41.6464 23.5251 41.6464 24.4749 41.0607 25.0607L27.0607 39.0607C26.4749 39.6464 25.5251 39.6464 24.9393 39.0607C24.3536 38.4749 24.3536 37.5251 24.9393 36.9393L37.8787 24L24.9393 11.0607C24.3536 10.4749 24.3536 9.52513 24.9393 8.93934Z" fill="white"/>
</g>
</svg>
