<svg width="48" height="48" viewBox="0 0 48 48" fill="none" xmlns="http://www.w3.org/2000/svg">
<g id="icon/outlined/chevron_double_down">
<path id="icon" fill-rule="evenodd" clip-rule="evenodd" d="M8.93934 8.93934C9.52513 8.35355 10.4749 8.35355 11.0607 8.93934L24 21.8787L36.9393 8.93934C37.5251 8.35355 38.4749 8.35355 39.0607 8.93934C39.6464 9.52513 39.6464 10.4749 39.0607 11.0607L25.0607 25.0607C24.7794 25.342 24.3978 25.5 24 25.5C23.6022 25.5 23.2206 25.342 22.9393 25.0607L8.93934 11.0607C8.35355 10.4749 8.35355 9.52513 8.93934 8.93934ZM8.93934 24.9393C9.52513 24.3536 10.4749 24.3536 11.0607 24.9393L24 37.8787L36.9393 24.9393C37.5251 24.3536 38.4749 24.3536 39.0607 24.9393C39.6464 25.5251 39.6464 26.4749 39.0607 27.0607L25.0607 41.0607C24.4749 41.6464 23.5251 41.6464 22.9393 41.0607L8.93934 27.0607C8.35355 26.4749 8.35355 25.5251 8.93934 24.9393Z" fill="white"/>
</g>
</svg>
