<svg width="16" height="16" viewBox="0 0 16 16" fill="none" xmlns="http://www.w3.org/2000/svg">
<g id="icon/filled/info_circle">
<path id="icon" fill-rule="evenodd" clip-rule="evenodd" d="M1.60186 8.14101C1.60186 4.60639 4.46723 1.74101 8.00186 1.74101C11.5365 1.74101 14.4019 4.60639 14.4019 8.14102C14.4019 11.6756 11.5365 14.541 8.00186 14.541C4.46723 14.541 1.60185 11.6756 1.60186 8.14101ZM7.20186 4.94101C7.20186 4.49919 7.56003 4.14101 8.00186 4.14101C8.44368 4.14101 8.80186 4.49919 8.80186 4.94101C8.80186 5.38284 8.44368 5.74101 8.00186 5.74101C7.56003 5.74101 7.20186 5.38284 7.20186 4.94101ZM8.00186 12.141C8.44368 12.141 8.80186 11.7828 8.80186 11.341L8.80186 8.14101C8.80186 7.69919 8.44368 7.34101 8.00186 7.34101C7.56003 7.34101 7.20186 7.69919 7.20186 8.14101L7.20186 11.341C7.20186 11.7828 7.56003 12.141 8.00186 12.141Z" fill="#817B7B"/>
</g>
</svg>
