<svg width="20" height="20" viewBox="0 0 20 20" fill="none" xmlns="http://www.w3.org/2000/svg">
<g id="icon/filled/info_circle">
<path id="icon" fill-rule="evenodd" clip-rule="evenodd" d="M2 10C2 5.58172 5.58172 2 10 2C14.4183 2 18 5.58172 18 10C18 14.4183 14.4183 18 10 18C5.58172 18 2 14.4183 2 10ZM9 6C9 5.44771 9.44772 5 10 5C10.5523 5 11 5.44772 11 6C11 6.55228 10.5523 7 10 7C9.44772 7 9 6.55228 9 6ZM10 15C10.5523 15 11 14.5523 11 14L11 10C11 9.44772 10.5523 9 10 9C9.44772 9 9 9.44771 9 10L9 14C9 14.5523 9.44772 15 10 15Z" fill="#534c4c"/>
</g>
</svg>
