<svg width="18" height="18" viewBox="0 0 18 18" fill="none" xmlns="http://www.w3.org/2000/svg">
<g id="icon/outlined/delete">
<path id="icon" fill-rule="evenodd" clip-rule="evenodd" d="M6.1875 3C6.1875 2.27513 6.77513 1.6875 7.5 1.6875H10.5C11.2249 1.6875 11.8125 2.27513 11.8125 3V4.6875H15C15.3107 4.6875 15.5625 4.93934 15.5625 5.25C15.5625 5.56066 15.3107 5.8125 15 5.8125H14.4375V14.25H13.875C14.4375 14.25 14.4375 14.2497 14.4375 14.25L14.4375 14.2525L14.4375 14.2556L14.4374 14.2634L14.4368 14.2856C14.4362 14.3032 14.4351 14.3264 14.4331 14.3545C14.4291 14.4105 14.4214 14.4868 14.4064 14.5768C14.3768 14.7543 14.3166 14.9995 14.1906 15.2516C14.0635 15.5058 13.864 15.7771 13.5542 15.9837C13.2409 16.1925 12.8484 16.3125 12.375 16.3125H6.75075L6.75 15.75V16.3125C6.60082 16.3125 6.45774 16.2532 6.35225 16.1477L3.72725 13.5227C3.62176 13.4173 3.5625 13.2742 3.5625 13.125V5.8125H3C2.68934 5.8125 2.4375 5.56066 2.4375 5.25C2.4375 4.93934 2.68934 4.6875 3 4.6875H6.1875V3ZM4.6875 5.8125V12.892L6.983 15.1875H12.375C12.6516 15.1875 12.8216 15.12 12.9302 15.0476C13.0423 14.9729 13.124 14.8692 13.1844 14.7484C13.2459 14.6255 13.2794 14.4957 13.2967 14.3919C13.3051 14.3413 13.3091 14.3004 13.311 14.2744C13.3119 14.2614 13.3123 14.2525 13.3124 14.2481L13.3125 14.249L13.3125 14.2464V5.8125H4.6875ZM10.6875 4.6875H7.3125V3C7.3125 2.89645 7.39645 2.8125 7.5 2.8125H10.5C10.6036 2.8125 10.6875 2.89645 10.6875 3V4.6875ZM13.3125 14.2452C13.3125 14.2452 13.3125 14.2452 13.3125 14.2452V14.2452ZM7.5 7.6875C7.81066 7.6875 8.0625 7.93934 8.0625 8.25V12.75C8.0625 13.0607 7.81066 13.3125 7.5 13.3125C7.18934 13.3125 6.9375 13.0607 6.9375 12.75V8.25C6.9375 7.93934 7.18934 7.6875 7.5 7.6875ZM10.5 7.6875C10.8107 7.6875 11.0625 7.93934 11.0625 8.25V12.75C11.0625 13.0607 10.8107 13.3125 10.5 13.3125C10.1893 13.3125 9.9375 13.0607 9.9375 12.75V8.25C9.9375 7.93934 10.1893 7.6875 10.5 7.6875Z" fill="#938F8F"/>
</g>
</svg>
