<svg width="16" height="16" viewBox="0 0 16 16" fill="none" xmlns="http://www.w3.org/2000/svg">
<g id="icon/outlined/heart">
<path id="icon" fill-rule="evenodd" clip-rule="evenodd" d="M8 5.67031L7.19965 4.60187C6.77372 4.03328 6.09271 3.66602 5.336 3.66602C4.04977 3.66602 3 4.71293 3 6.01582C3 6.62003 3.09624 7.17537 3.26333 7.69119L3.26544 7.6977L3.26542 7.6977C3.66767 8.96906 4.50101 10.0182 5.43457 10.8196C6.36796 11.6208 7.34424 12.1245 7.94109 12.329C7.9414 12.329 7.94172 12.3291 7.94205 12.3291C7.95511 12.331 7.97548 12.3327 8 12.3327C8.02452 12.3327 8.04489 12.331 8.05795 12.3291C8.05828 12.3291 8.0586 12.329 8.05892 12.329C8.65576 12.1245 9.63204 11.6208 10.5654 10.8196C11.499 10.0182 12.3323 8.96906 12.7346 7.6977L12.7366 7.69118L12.7367 7.69119C12.9038 7.17537 13 6.62003 13 6.01582C13 4.71293 11.9502 3.66602 10.664 3.66602C9.90729 3.66602 9.22628 4.03328 8.80035 4.60187L8 5.67031ZM7.28178 3.29666C6.7337 2.90052 6.0602 2.66602 5.336 2.66602C3.494 2.66602 2 4.16414 2 6.01582C2 6.72893 2.114 7.38813 2.312 7.99936C3.26 10.9956 6.182 12.7874 7.628 13.2787C7.832 13.3507 8.168 13.3507 8.372 13.2787C9.818 12.7874 12.74 10.9956 13.688 7.99936C13.886 7.38813 14 6.72893 14 6.01582C14 4.16414 12.506 2.66602 10.664 2.66602C9.93981 2.66602 9.2663 2.90052 8.71822 3.29666C8.44441 3.49457 8.20189 3.73283 8 4.00234C7.79811 3.73283 7.55559 3.49457 7.28178 3.29666Z" fill="#817B7B"/>
</g>
</svg>
