<svg width="18" height="18" viewBox="0 0 18 18" fill="none" xmlns="http://www.w3.org/2000/svg">
<g id="icon/filled/plus_circle">
<path id="icon" fill-rule="evenodd" clip-rule="evenodd" d="M8.9998 16.1998C12.9763 16.1998 16.1998 12.9763 16.1998 8.9998C16.1998 5.02335 12.9763 1.7998 8.9998 1.7998C5.02335 1.7998 1.7998 5.02335 1.7998 8.9998C1.7998 12.9763 5.02335 16.1998 8.9998 16.1998ZM9.89981 6.2998C9.89981 5.80275 9.49686 5.3998 8.9998 5.3998C8.50275 5.3998 8.0998 5.80275 8.0998 6.2998V8.0998H6.2998C5.80275 8.0998 5.3998 8.50275 5.3998 8.9998C5.3998 9.49686 5.80275 9.89981 6.2998 9.89981H8.0998V11.6998C8.0998 12.1969 8.50275 12.5998 8.9998 12.5998C9.49686 12.5998 9.89981 12.1969 9.89981 11.6998V9.89981H11.6998C12.1969 9.89981 12.5998 9.49686 12.5998 8.9998C12.5998 8.50275 12.1969 8.0998 11.6998 8.0998H9.89981V6.2998Z" fill="#fff"/>
</g>
</svg>
