<svg width="24" height="24" viewBox="0 0 24 24" fill="none" xmlns="http://www.w3.org/2000/svg">
<g id="icon/outlined/heart">
<path id="icon" fill-rule="evenodd" clip-rule="evenodd" d="M12.5 8.50644L11.2995 6.90379C10.6606 6.05089 9.63906 5.5 8.504 5.5C6.57466 5.5 5 7.07037 5 9.02471C5 9.93102 5.14436 10.764 5.395 11.5378L5.39816 11.5475L5.39812 11.5475C6.0015 13.4546 7.25151 15.0283 8.65186 16.2303C10.0519 17.4321 11.5164 18.1877 12.4116 18.4944C12.4121 18.4945 12.4126 18.4946 12.4131 18.4946C12.4327 18.4974 12.4632 18.5 12.5 18.5C12.5368 18.5 12.5673 18.4974 12.5869 18.4946C12.5874 18.4946 12.5879 18.4945 12.5884 18.4944C13.4836 18.1877 14.9481 17.4321 16.3481 16.2303C17.7485 15.0283 18.9985 13.4546 19.6019 11.5475L19.605 11.5378L19.605 11.5378C19.8556 10.764 20 9.93102 20 9.02471C20 7.07037 18.4253 5.5 16.496 5.5C15.3609 5.5 14.3394 6.05089 13.7005 6.90379L12.5 8.50644ZM11.4227 4.94596C10.6005 4.35175 9.59029 4 8.504 4C5.741 4 3.5 6.24719 3.5 9.02471C3.5 10.0944 3.671 11.0832 3.968 12C5.39 16.4944 9.773 19.182 11.942 19.9191C12.248 20.027 12.752 20.027 13.058 19.9191C15.227 19.182 19.61 16.4944 21.032 12C21.329 11.0832 21.5 10.0944 21.5 9.02471C21.5 6.24719 19.259 4 16.496 4C15.4097 4 14.3995 4.35175 13.5773 4.94596C13.1666 5.24283 12.8028 5.60022 12.5 6.00449C12.1972 5.60022 11.8334 5.24283 11.4227 4.94596Z" fill="white"/>
</g>
</svg>
