<svg width="18" height="18" viewBox="0 0 18 18" fill="none" xmlns="http://www.w3.org/2000/svg">
<g id="icon/filled/gift">
<g id="icon">
<path d="M9 12.3748C8.84475 12.3748 8.70412 12.3118 8.60231 12.21C8.5005 12.1082 8.4375 11.9676 8.4375 11.8123V8.99983H3.375C3.0645 8.99983 2.8125 9.25183 2.8125 9.56233V12.8209C2.8125 12.8957 2.84231 12.9671 2.89462 13.02L5.54288 15.6683C5.59575 15.7211 5.66719 15.7504 5.742 15.7504H14.6256C14.7808 15.7504 14.9214 15.6874 15.0233 15.5856C15.1251 15.4838 15.1881 15.3431 15.1881 15.1879V9.56289C15.1881 9.25239 14.9361 9.00039 14.6256 9.00039H9.56306V11.8129C9.56306 11.9681 9.50006 12.1088 9.39825 12.2106C9.29644 12.3124 9.15581 12.3754 9.00056 12.3754L9 12.3748Z" fill="#fff"/>
<path d="M13.761 4.49983C13.9528 4.16908 14.0625 3.78489 14.0625 3.37483C14.0625 2.15195 13.0866 1.14339 11.8637 1.12539C10.6408 1.10739 9.61313 1.71152 9 2.63458C8.38687 1.71152 7.33162 1.10739 6.13631 1.12539C4.914 1.14339 3.9375 2.15252 3.9375 3.37483C3.9375 3.78489 4.04775 4.16908 4.239 4.49983H2.8125C2.502 4.49983 2.25 4.75183 2.25 5.06233V7.31233C2.25 7.62283 2.502 7.87483 2.8125 7.87483H15.1875C15.498 7.87483 15.75 7.62283 15.75 7.31233V5.06233C15.75 4.75183 15.498 4.49983 15.1875 4.49983H13.761ZM8.4375 4.49983H6.21506C5.60588 4.49983 5.08613 4.02677 5.06306 3.41814C5.03888 2.77802 5.55244 2.24983 6.1875 2.24983C7.42838 2.24983 8.4375 3.25895 8.4375 4.49983ZM11.7849 4.49983H9.5625C9.5625 3.25895 10.5716 2.24983 11.8125 2.24983C12.447 2.24983 12.9611 2.77802 12.9369 3.41814C12.9128 4.05827 12.3941 4.49983 11.7849 4.49983Z" fill="#fff"/>
</g>
</g>
</svg>
