<svg width="22" height="22" viewBox="0 0 22 22" fill="none" xmlns="http://www.w3.org/2000/svg">
<g id="icon/outlined/list_move">
<g id="icon">
<path fill-rule="evenodd" clip-rule="evenodd" d="M17.8821 13.4681C18.1255 13.6791 18.1518 14.0475 17.9408 14.291L16.2742 16.2141C16.1634 16.3419 16.0025 16.4154 15.8334 16.4154C15.6642 16.4154 15.5033 16.3419 15.3925 16.2141L13.7259 14.291C13.5149 14.0475 13.5412 13.6791 13.7846 13.4681C14.0281 13.2571 14.3965 13.2835 14.6075 13.5269L15.25 14.2683V4.16536C15.25 3.8432 15.5112 3.58203 15.8334 3.58203C16.1555 3.58203 16.4167 3.8432 16.4167 4.16536V14.2683L17.0592 13.5269C17.2702 13.2835 17.6386 13.2571 17.8821 13.4681Z" fill="white"/>
<path fill-rule="evenodd" clip-rule="evenodd" d="M2.41669 4.9987C2.41669 4.49244 2.82709 4.08203 3.33335 4.08203H3.33498C3.84124 4.08203 4.25165 4.49244 4.25165 4.9987V5.00036C4.25165 5.24728 4.15204 5.48376 3.97536 5.65625C3.79869 5.82875 3.5599 5.92267 3.31306 5.91677L3.31143 5.91673C2.81385 5.90482 2.41669 5.49804 2.41669 5.00033V4.9987ZM2.41669 9.9987C2.41669 9.49244 2.82709 9.08203 3.33335 9.08203H3.33498C3.84124 9.08203 4.25165 9.49244 4.25165 9.9987V10.0004C4.25165 10.2473 4.15204 10.4838 3.97536 10.6563C3.79869 10.8287 3.5599 10.9227 3.31306 10.9168L3.31143 10.9167C2.81385 10.9048 2.41669 10.498 2.41669 10.0003V9.9987ZM2.41669 14.9987C2.41669 14.4924 2.82709 14.082 3.33335 14.082H3.33498C3.84124 14.082 4.25165 14.4924 4.25165 14.9987V15.0004C4.25165 15.2473 4.15204 15.4838 3.97536 15.6563C3.79869 15.8287 3.5599 15.9227 3.31306 15.9168L3.31143 15.9167C2.81385 15.9048 2.41669 15.498 2.41669 15.0003V14.9987Z" fill="white"/>
<path fill-rule="evenodd" clip-rule="evenodd" d="M6.00002 4.9987C6.00002 4.63051 6.2985 4.33203 6.66669 4.33203H12.5C12.8682 4.33203 13.1667 4.63051 13.1667 4.9987C13.1667 5.36689 12.8682 5.66536 12.5 5.66536H6.66669C6.2985 5.66536 6.00002 5.36689 6.00002 4.9987ZM6.00002 9.9987C6.00002 9.63051 6.2985 9.33203 6.66669 9.33203H12.5C12.8682 9.33203 13.1667 9.63051 13.1667 9.9987C13.1667 10.3669 12.8682 10.6654 12.5 10.6654H6.66669C6.2985 10.6654 6.00002 10.3669 6.00002 9.9987ZM6.00002 14.9987C6.00002 14.6305 6.2985 14.332 6.66669 14.332H10.8334C11.2015 14.332 11.5 14.6305 11.5 14.9987C11.5 15.3669 11.2015 15.6654 10.8334 15.6654H6.66669C6.2985 15.6654 6.00002 15.3669 6.00002 14.9987Z" fill="white"/>
</g>
</g>
</svg>
