<svg width="18" height="18" viewBox="0 0 18 18" fill="none" xmlns="http://www.w3.org/2000/svg">
<g id="icon/filled/deal">
<path id="icon" d="M9 1.5C4.875 1.5 1.5 4.875 1.5 9C1.5 13.125 4.875 16.5 9 16.5C13.125 16.5 16.5 13.125 16.5 9C16.5 4.875 13.125 1.5 9 1.5ZM7.125 6.15C7.65 6.15 8.025 6.6 8.025 7.05C8.025 7.575 7.575 7.95 7.125 7.95C6.6 7.95 6.225 7.5 6.225 7.05C6.225 6.6 6.6 6.225 7.125 6.15ZM10.875 11.85C10.35 11.85 9.975 11.4 9.975 10.95C9.975 10.425 10.425 10.05 10.875 10.05C11.4 10.05 11.775 10.5 11.775 10.95C11.775 11.4 11.4 11.775 10.875 11.85ZM11.625 7.125L7.125 11.625C6.9 11.85 6.525 11.85 6.3 11.625C6.075 11.4 6.075 11.025 6.3 10.8L10.8 6.3C11.025 6.075 11.4 6.075 11.625 6.3C11.85 6.525 11.85 6.9 11.625 7.125Z" fill="#121212"/>
</g>
</svg>
