<svg width="24" height="24" viewBox="0 0 24 24" fill="none" xmlns="http://www.w3.org/2000/svg">
<g id="icon/filled/alarm">
<g id="icon">
<path d="M4.00001 17H9.00001H15H20L18.5951 15.5951C18.2141 15.2141 18 14.6973 18 14.1585V11C18 8.38757 16.3304 6.16509 14 5.34142V5C14 3.89543 13.1046 3 12 3C10.8954 3 10 3.89543 10 5V5.34142C7.66963 6.16509 6.00001 8.38757 6.00001 11V14.1585C6.00001 14.6973 5.78596 15.2141 5.40495 15.5951L4.00001 17Z" fill="#FF3746"/>
<path fill-rule="evenodd" clip-rule="evenodd" d="M9.50002 4.99831C9.50093 3.61838 10.6199 2.5 12 2.5C13.3802 2.5 14.4991 3.61838 14.5 4.99832C16.8484 5.97765 18.5 8.29536 18.5 11V14.1585C18.5 14.5647 18.6614 14.9543 18.9486 15.2415L20.3536 16.6465C20.4966 16.7894 20.5393 17.0045 20.462 17.1913C20.3846 17.3782 20.2022 17.5 20 17.5H15.5V18C15.5 19.933 13.933 21.5 12 21.5C10.067 21.5 8.50001 19.933 8.50001 18V17.5H4.00001C3.79778 17.5 3.61547 17.3782 3.53807 17.1913C3.46068 17.0045 3.50346 16.7894 3.64646 16.6465L5.05139 15.2415C5.33864 14.9543 5.50001 14.5647 5.50001 14.1585V11C5.50001 8.29536 7.15166 5.97764 9.50002 4.99831ZM9.50001 17.5V18C9.50001 19.3807 10.6193 20.5 12 20.5C13.3807 20.5 14.5 19.3807 14.5 18V17.5H9.50001ZM12 3.5C11.1716 3.5 10.5 4.17157 10.5 5V5.34142C10.5 5.55332 10.3664 5.74222 10.1666 5.81284C8.02978 6.56811 6.50001 8.60605 6.50001 11V14.1585C6.50001 14.8299 6.23328 15.4738 5.7585 15.9486L5.20712 16.5H18.7929L18.2415 15.9486C17.7667 15.4738 17.5 14.8299 17.5 14.1585V11C17.5 8.60605 15.9703 6.56811 13.8334 5.81284C13.6336 5.74222 13.5 5.55332 13.5 5.34142V5C13.5 4.17157 12.8284 3.5 12 3.5Z" fill="#FF3746"/>
<path d="M12 22C9.79088 22 8.00001 19.7614 8.00001 17H16C16 19.7614 14.2092 22 12 22Z" fill="#FF3746"/>
</g>
</g>
</svg>
