<svg width="18" height="18" viewBox="0 0 18 18" fill="none" xmlns="http://www.w3.org/2000/svg">
<g id="icon/filled/midnight">
<g id="icon">
<path d="M9.97534 2.82983C10.7786 3.73489 11.2623 4.9302 11.2494 6.23801C11.223 8.98076 8.98028 11.2235 6.23753 11.2499C4.92915 11.2628 3.7344 10.7791 2.82934 9.97583C2.6274 9.79695 2.31409 9.9702 2.36303 10.2357C2.94578 13.3885 5.71946 15.773 9.04665 15.7505C12.6669 15.7263 15.7258 12.6674 15.75 9.04714C15.7725 5.72051 13.388 2.94683 10.2352 2.36351C9.97028 2.31458 9.79646 2.62789 9.97534 2.82983Z" fill="#121212"/>
<path d="M7.06328 5.22045L8.12471 5.54051C8.32553 5.60126 8.40315 5.84426 8.27434 6.0102L7.59315 6.88433L7.61678 7.99245C7.62128 8.20226 7.41371 8.35133 7.21628 8.27933L6.17396 7.90133L5.12715 8.26639C4.92915 8.33558 4.72328 8.18426 4.73059 7.97445L4.76771 6.86689L4.09721 5.98433C3.97009 5.81726 4.05053 5.57483 4.25246 5.51689L5.31784 5.20976L5.95009 4.29908C6.0699 4.12695 6.32528 4.12808 6.44284 4.30189L7.06384 5.21989L7.06328 5.22045Z" fill="#121212"/>
</g>
</g>
</svg>
