<svg width="24" height="24" viewBox="0 0 24 24" fill="none" xmlns="http://www.w3.org/2000/svg">
<g id="icon/outlined/heart">
<path id="icon" fill-rule="evenodd" clip-rule="evenodd" d="M12 8.50644L10.7995 6.90379C10.1606 6.05089 9.13906 5.5 8.004 5.5C6.07466 5.5 4.5 7.07037 4.5 9.02471C4.5 9.93102 4.64436 10.764 4.895 11.5378L4.89816 11.5475L4.89812 11.5475C5.5015 13.4546 6.75151 15.0283 8.15186 16.2303C9.55195 17.4321 11.0164 18.1877 11.9116 18.4944C11.9121 18.4945 11.9126 18.4946 11.9131 18.4946C11.9327 18.4974 11.9632 18.5 12 18.5C12.0368 18.5 12.0673 18.4974 12.0869 18.4946C12.0874 18.4946 12.0879 18.4945 12.0884 18.4944C12.9836 18.1877 14.4481 17.4321 15.8481 16.2303C17.2485 15.0283 18.4985 13.4546 19.1019 11.5475L19.105 11.5378L19.105 11.5378C19.3556 10.764 19.5 9.93102 19.5 9.02471C19.5 7.07037 17.9253 5.5 15.996 5.5C14.8609 5.5 13.8394 6.05089 13.2005 6.90379L12 8.50644ZM10.9227 4.94596C10.1005 4.35175 9.09029 4 8.004 4C5.241 4 3 6.24719 3 9.02471C3 10.0944 3.171 11.0832 3.468 12C4.89 16.4944 9.273 19.182 11.442 19.9191C11.748 20.027 12.252 20.027 12.558 19.9191C14.727 19.182 19.11 16.4944 20.532 12C20.829 11.0832 21 10.0944 21 9.02471C21 6.24719 18.759 4 15.996 4C14.9097 4 13.8995 4.35175 13.0773 4.94596C12.6666 5.24283 12.3028 5.60022 12 6.00449C11.6972 5.60022 11.3334 5.24283 10.9227 4.94596Z" fill="#121212"/>
</g>
</svg>
