<svg width="16" height="16" viewBox="0 0 16 16" fill="none" xmlns="http://www.w3.org/2000/svg">
<g id="icon/filled/chat">
<path id="icon" fill-rule="evenodd" clip-rule="evenodd" d="M7.83434 1.33398C4.24768 1.33398 1.33434 4.24732 1.33434 7.83398C1.33434 8.62732 1.47434 9.39398 1.74101 10.1007C1.87434 10.4673 1.92768 10.8273 1.86101 11.1473L1.63434 12.2673C1.42768 13.314 2.34768 14.2407 3.40101 14.034L4.52101 13.8073C4.84768 13.7407 5.20101 13.794 5.56768 13.9273C6.27434 14.1873 7.03434 14.334 7.83434 14.334C11.421 14.334 14.3343 11.4207 14.3343 7.83398C14.3343 4.24732 11.421 1.33398 7.83434 1.33398ZM5.16768 8.63398C4.72768 8.63398 4.36768 8.27398 4.36768 7.83398C4.36768 7.39398 4.72768 7.03398 5.16768 7.03398C5.60768 7.03398 5.96768 7.39398 5.96768 7.83398C5.96768 8.27398 5.60768 8.63398 5.16768 8.63398ZM7.83434 8.63398C7.39434 8.63398 7.03434 8.27398 7.03434 7.83398C7.03434 7.39398 7.39434 7.03398 7.83434 7.03398C8.27434 7.03398 8.63434 7.39398 8.63434 7.83398C8.63434 8.27398 8.27434 8.63398 7.83434 8.63398ZM10.501 8.63398C10.061 8.63398 9.70101 8.27398 9.70101 7.83398C9.70101 7.39398 10.061 7.03398 10.501 7.03398C10.941 7.03398 11.301 7.39398 11.301 7.83398C11.301 8.27398 10.941 8.63398 10.501 8.63398Z" fill="#EC2A38"/>
</g>
</svg>
