<svg width="20" height="20" viewBox="0 0 20 20" fill="none" xmlns="http://www.w3.org/2000/svg">
<g id=" icon/filled/exclamation">
<path id="icon" d="M17.754 13.65L11.979 3.65C11.5623 2.93333 10.8206 2.5 9.99564 2.5C9.17064 2.5 8.42897 2.925 8.01231 3.65L2.2373 13.65C1.82064 14.3667 1.82064 15.225 2.2373 15.9417C2.65397 16.6583 3.39564 17.0917 4.22064 17.0917H15.7706C16.5956 17.0917 17.3373 16.6667 17.754 15.9417C18.1706 15.2167 18.1706 14.3667 17.754 13.65ZM9.16231 8.125C9.16231 7.66667 9.53731 7.29167 9.99564 7.29167C10.454 7.29167 10.829 7.66667 10.829 8.125V9.79167C10.829 10.25 10.454 10.625 9.99564 10.625C9.53731 10.625 9.16231 10.25 9.16231 9.79167V8.125ZM10.004 13.9583C9.54564 13.9583 9.17064 13.5833 9.17064 13.125C9.17064 12.6667 9.5373 12.2917 10.004 12.2917C10.4623 12.2917 10.8373 12.6667 10.8373 13.125C10.8373 13.5833 10.4623 13.9583 10.004 13.9583Z" fill="#f65561"/>
</g>
</svg>
