<svg width="16" height="16" viewBox="0 0 16 16" fill="none" xmlns="http://www.w3.org/2000/svg">
<g id="icon/filled/info_circle">
<path id="icon" fill-rule="evenodd" clip-rule="evenodd" d="M1.6043 8.14101C1.6043 4.60639 4.46968 1.74101 8.0043 1.74101C11.5389 1.74101 14.4043 4.60639 14.4043 8.14102C14.4043 11.6756 11.5389 14.541 8.0043 14.541C4.46967 14.541 1.6043 11.6756 1.6043 8.14101ZM7.2043 4.94101C7.2043 4.49919 7.56247 4.14101 8.0043 4.14101C8.44613 4.14101 8.8043 4.49919 8.8043 4.94101C8.8043 5.38284 8.44612 5.74101 8.0043 5.74101C7.56247 5.74101 7.2043 5.38284 7.2043 4.94101ZM8.0043 12.141C8.44612 12.141 8.8043 11.7828 8.8043 11.341L8.8043 8.14101C8.8043 7.69919 8.44612 7.34101 8.0043 7.34101C7.56247 7.34101 7.2043 7.69919 7.2043 8.14101L7.2043 11.341C7.2043 11.7828 7.56247 12.141 8.0043 12.141Z" fill="#938F8F"/>
</g>
</svg>
