<svg width="18" height="18" viewBox="0 0 18 18" fill="none" xmlns="http://www.w3.org/2000/svg">
<g id=" icon/filled/megaphone" clip-path="url(#clip0_4307_22902)">
<g id="icon">
<path d="M9.59707 2.24024C9.27832 2.32565 9.08632 2.66646 9.17356 2.99201L9.27994 3.38903L0.737982 8.29907C0.500571 8.43928 0.383458 8.71747 0.457925 8.99538L1.60259 13.2673C1.6728 13.5293 1.90767 13.7217 2.1756 13.7265L4.40745 13.7838L4.46915 14.0141C4.98272 16.0552 6.27861 16.1335 7.34241 15.9676C7.36573 15.9613 7.38128 15.9571 7.4046 15.9509C7.42793 15.9446 7.44347 15.9405 7.4668 15.9342C8.43428 15.5644 9.00895 14.6614 9.00316 13.6758L12.0458 13.7115L12.1544 14.1165C12.2416 14.4421 12.5783 14.6412 12.897 14.5558C13.2158 14.4704 13.4078 14.1296 13.3205 13.804L10.3397 2.67953C10.2525 2.35398 9.91583 2.15483 9.59707 2.24024ZM7.08546 14.7598C6.30793 14.8746 5.92681 14.7894 5.65235 13.7651L7.78935 13.6861C7.78976 14.1541 7.54056 14.5613 7.08546 14.7598Z" fill="#fff"/>
<path d="M16.0998 5.95306L14.6538 6.34053C14.335 6.42594 14.143 6.76674 14.2303 7.0923C14.3175 7.41785 14.6542 7.617 14.9729 7.53159L16.419 7.14412C16.7377 7.05871 16.9297 6.7179 16.8425 6.39235C16.7553 6.06679 16.4186 5.86765 16.0998 5.95306Z" fill="#fff"/>
<path d="M13.2121 4.41197L13.9554 3.08092C14.1191 2.79024 14.017 2.4091 13.7298 2.23924C13.4427 2.06938 13.0695 2.16937 12.9057 2.46006L12.1625 3.79111C11.9987 4.08179 12.1008 4.46293 12.388 4.63279C12.6752 4.80265 13.0483 4.70266 13.2121 4.41197Z" fill="#fff"/>
<path d="M14.6887 9.92261C14.4015 9.75275 14.0262 9.8448 13.8646 10.1434C13.7008 10.4341 13.7952 10.8173 14.0901 10.9851L15.3993 11.7662C15.6865 11.9361 16.0618 11.844 16.2234 11.5454C16.3872 11.2547 16.2928 10.8715 15.9979 10.7037L14.6887 9.92261Z" fill="#fff"/>
</g>
</g>
<defs>
<clipPath id="clip0_4307_22902">
<rect width="18" height="18" fill="white"/>
</clipPath>
</defs>
</svg>
