<svg width="18" height="18" viewBox="0 0 18 18" fill="none" xmlns="http://www.w3.org/2000/svg">
<g id="icon/filled/flag">
<g id="icon">
<path d="M13.2645 11.025H3.75V2.925H13.2645C13.9962 2.925 14.472 3.71709 14.1448 4.3903L13.1086 6.5222C12.9701 6.80724 12.9701 7.14276 13.1086 7.4278L14.1448 9.5597C14.472 10.2329 13.9962 11.025 13.2645 11.025Z" fill="#fff"/>
<path fill-rule="evenodd" clip-rule="evenodd" d="M3.75 1.6875C4.06066 1.6875 4.3125 1.93934 4.3125 2.25V2.3625H13.2645C14.4371 2.3625 15.1482 3.61263 14.6507 4.6362L13.6145 6.76809C13.5514 6.89789 13.5514 7.05211 13.6145 7.18191L14.6507 9.3138C15.1482 10.3374 14.4371 11.5875 13.2645 11.5875H4.3125V15.1875H5.25C5.56066 15.1875 5.8125 15.4393 5.8125 15.75C5.8125 16.0607 5.56066 16.3125 5.25 16.3125H2.25C1.93934 16.3125 1.6875 16.0607 1.6875 15.75C1.6875 15.4393 1.93934 15.1875 2.25 15.1875H3.1875V2.25C3.1875 1.93934 3.43934 1.6875 3.75 1.6875ZM4.3125 10.4625H13.2645C13.5552 10.4625 13.7958 10.1284 13.6389 9.80559L12.6027 7.6737C12.3887 7.23341 12.3887 6.71659 12.6027 6.2763L13.6389 4.14441C13.7958 3.82155 13.5552 3.4875 13.2645 3.4875H4.3125V10.4625Z" fill="#fff"/>
</g>
</g>
</svg>
