<svg xmlns="http://www.w3.org/2000/svg" width="24" height="24" viewBox="0 0 24 24" fill="none">
<path fill-rule="evenodd" clip-rule="evenodd" d="M12 3.75C7.44365 3.75 3.75 7.44365 3.75 12C3.75 13.0124 3.93201 13.9806 4.26444 14.8747C4.53181 15.5939 4.68038 16.4224 4.51229 17.2628L4.1767 18.9408C4.07174 19.4656 4.53443 19.9283 5.05922 19.8233L6.73718 19.4877C7.57764 19.3196 8.40613 19.4682 9.1253 19.7356C10.0194 20.068 10.9876 20.25 12 20.25C16.5563 20.25 20.25 16.5563 20.25 12C20.25 7.44365 16.5563 3.75 12 3.75ZM2.25 12C2.25 6.61522 6.61522 2.25 12 2.25C17.3848 2.25 21.75 6.61522 21.75 12C21.75 17.3848 17.3848 21.75 12 21.75C10.8065 21.75 9.66148 21.5352 8.60258 21.1415C8.05379 20.9375 7.51739 20.8614 7.03136 20.9586L5.35339 21.2942C3.77902 21.609 2.39095 20.221 2.70583 18.6466L3.04142 16.9686C3.13862 16.4826 3.06249 15.9462 2.85846 15.3974C2.46478 14.3385 2.25 13.1935 2.25 12Z" fill="#817b7b"/>
<path d="M9 12C9 12.5523 8.55228 13 8 13C7.44772 13 7 12.5523 7 12C7 11.4477 7.44772 11 8 11C8.55228 11 9 11.4477 9 12Z" fill="#817b7b"/>
<path fill-rule="evenodd" clip-rule="evenodd" d="M8 11.2C7.55817 11.2 7.2 11.5582 7.2 12C7.2 12.4418 7.55817 12.8 8 12.8C8.44183 12.8 8.8 12.4418 8.8 12C8.8 11.5582 8.44183 11.2 8 11.2ZM6.8 12C6.8 11.3373 7.33726 10.8 8 10.8C8.66274 10.8 9.2 11.3373 9.2 12C9.2 12.6627 8.66274 13.2 8 13.2C7.33726 13.2 6.8 12.6627 6.8 12Z" fill="#817b7b"/>
<path d="M13 12C13 12.5523 12.5523 13 12 13C11.4477 13 11 12.5523 11 12C11 11.4477 11.4477 11 12 11C12.5523 11 13 11.4477 13 12Z" fill="#817b7b"/>
<path fill-rule="evenodd" clip-rule="evenodd" d="M12 11.2C11.5582 11.2 11.2 11.5582 11.2 12C11.2 12.4418 11.5582 12.8 12 12.8C12.4418 12.8 12.8 12.4418 12.8 12C12.8 11.5582 12.4418 11.2 12 11.2ZM10.8 12C10.8 11.3373 11.3373 10.8 12 10.8C12.6627 10.8 13.2 11.3373 13.2 12C13.2 12.6627 12.6627 13.2 12 13.2C11.3373 13.2 10.8 12.6627 10.8 12Z" fill="#817b7b"/>
<path d="M17 12C17 12.5523 16.5523 13 16 13C15.4477 13 15 12.5523 15 12C15 11.4477 15.4477 11 16 11C16.5523 11 17 11.4477 17 12Z" fill="#817b7b"/>
<path fill-rule="evenodd" clip-rule="evenodd" d="M16 11.2C15.5582 11.2 15.2 11.5582 15.2 12C15.2 12.4418 15.5582 12.8 16 12.8C16.4418 12.8 16.8 12.4418 16.8 12C16.8 11.5582 16.4418 11.2 16 11.2ZM14.8 12C14.8 11.3373 15.3373 10.8 16 10.8C16.6627 10.8 17.2 11.3373 17.2 12C17.2 12.6627 16.6627 13.2 16 13.2C15.3373 13.2 14.8 12.6627 14.8 12Z" fill="#817b7b"/>
</svg>