<svg width="18" height="18" viewBox="0 0 18 18" fill="none" xmlns="http://www.w3.org/2000/svg">
<g id="icon/filled/event">
<g id="icon">
<path d="M14.4881 3.3075L15.5495 3.62756C15.7504 3.68831 15.828 3.93131 15.6992 4.09725L15.018 4.97137L15.0416 6.0795C15.0461 6.28931 14.8385 6.43838 14.6411 6.36638L13.5988 5.98837L12.552 6.35344C12.354 6.42262 12.1481 6.27131 12.1554 6.0615L12.1925 4.95394L11.522 4.07137C11.3949 3.90431 11.4754 3.66187 11.6773 3.60394L12.7427 3.29681L13.3749 2.38612C13.4947 2.214 13.7501 2.21513 13.8677 2.38894L14.4887 3.30694L14.4881 3.3075Z" fill="#fff"/>
<path d="M15.7498 9C15.7498 8.37868 15.2461 7.875 14.6248 7.875C14.0035 7.875 13.4998 8.37868 13.4998 9C13.4998 9.62132 14.0035 10.125 14.6248 10.125C15.2461 10.125 15.7498 9.62132 15.7498 9Z" fill="#fff"/>
<path d="M10.1248 3.375C10.1248 2.75368 9.62111 2.25 8.99979 2.25C8.37847 2.25 7.87479 2.75368 7.87479 3.375C7.87479 3.99632 8.37847 4.5 8.99979 4.5C9.62111 4.5 10.1248 3.99632 10.1248 3.375Z" fill="#fff"/>
<path d="M3.97779 7.98919L1.16304 16.0881C1.00892 16.5324 1.43473 16.9583 1.87911 16.8041L9.97798 13.9894L3.97779 7.98919Z" fill="#fff"/>
<path d="M13.9903 11.7405L6.22723 3.97744C5.93361 3.68381 5.43467 3.79856 5.29798 4.19062L4.30573 7.04475L10.9224 13.6614L13.7771 12.6692C14.1692 12.5331 14.2839 12.0341 13.9903 11.7405Z" fill="#fff"/>
</g>
</g>
</svg>
