<svg width="18" height="18" viewBox="0 0 18 18" fill="none" xmlns="http://www.w3.org/2000/svg">
<g id="icon/outlined/dots_vertical">
<path id="icon" fill-rule="evenodd" clip-rule="evenodd" d="M9 2.4375C9.72487 2.4375 10.3125 3.02513 10.3125 3.75C10.3125 4.47487 9.72487 5.0625 9 5.0625C8.27513 5.0625 7.6875 4.47487 7.6875 3.75C7.6875 3.02513 8.27513 2.4375 9 2.4375ZM9 7.6875C9.72487 7.6875 10.3125 8.27513 10.3125 9C10.3125 9.72487 9.72487 10.3125 9 10.3125C8.27513 10.3125 7.6875 9.72487 7.6875 9C7.6875 8.27513 8.27513 7.6875 9 7.6875ZM9 12.9375C9.72487 12.9375 10.3125 13.5251 10.3125 14.25C10.3125 14.9749 9.72487 15.5625 9 15.5625C8.27513 15.5625 7.6875 14.9749 7.6875 14.25C7.6875 13.5251 8.27513 12.9375 9 12.9375Z" fill="#938F8F"/>
</g>
</svg>
