<svg width="24" height="24" viewBox="0 0 24 24" fill="none" xmlns="http://www.w3.org/2000/svg">
<g id="icon/filled/img_02">
<g id="icon">
<path d="M20.25 3H3.75C3.336 3 3 3.336 3 3.75V17.1967C3.01125 17.2238 3.02625 17.2605 3.0375 17.2875C3.7515 18.0015 4.31325 18.5632 4.875 19.125L6.16725 20.4173C6.351 20.601 6.5445 20.7945 6.75075 21.0008L6.531 20.781C6.672 20.922 6.8625 21.0008 7.06125 21.0008H20.2508C20.6648 21.0008 21.0008 20.6648 21.0008 20.2508V3.75C21.0008 3.336 20.664 3 20.25 3ZM16.0605 9.348C15.4748 8.76225 14.5253 8.76225 13.9395 9.348L10.0155 13.272C9.86925 13.4183 9.6315 13.4183 9.48525 13.272L8.031 11.8178C7.73775 11.5245 7.263 11.5245 6.9705 11.8178L4.50075 14.2875V4.875C4.50075 4.668 4.66875 4.5 4.87575 4.5H19.1257C19.3328 4.5 19.5008 4.668 19.5008 4.875V12.7875L16.0605 9.348Z" fill="white"/>
<path d="M9.75 10.5C10.9926 10.5 12 9.49264 12 8.25C12 7.00736 10.9926 6 9.75 6C8.50736 6 7.5 7.00736 7.5 8.25C7.5 9.49264 8.50736 10.5 9.75 10.5Z" fill="white"/>
</g>
</g>
</svg>
