<svg width="26" height="14" viewBox="0 0 26 14" fill="none" xmlns="http://www.w3.org/2000/svg">
<path d="M0.000976562 7C0.000976562 3.13401 3.13498 0 7.00098 0H19.001C22.867 0 26.001 3.13401 26.001 7C26.001 10.866 22.867 14 19.001 14H7.00098C3.13498 14 0.000976562 10.866 0.000976562 7Z" fill="#A9A5A5"/>
<path d="M7.62991 10.128C7.04858 10.128 6.54458 10.0213 6.11791 9.808C5.69658 9.59467 5.36858 9.30133 5.13391 8.928C4.90458 8.54933 4.78991 8.11467 4.78991 7.624C4.78991 7.128 4.87525 6.67733 5.04591 6.272C5.22191 5.86133 5.46725 5.50667 5.78191 5.208C6.09658 4.90933 6.46991 4.68 6.90191 4.52C7.33391 4.35467 7.80591 4.272 8.31791 4.272C8.89925 4.272 9.40058 4.37867 9.82191 4.592C10.2486 4.80533 10.5766 5.10133 10.8059 5.48C11.0406 5.85333 11.1579 6.28533 11.1579 6.776C11.1579 7.272 11.0699 7.72533 10.8939 8.136C10.7232 8.54133 10.4806 8.89333 10.1659 9.192C9.85125 9.49067 9.47791 9.72267 9.04591 9.888C8.61391 10.048 8.14191 10.128 7.62991 10.128ZM7.78991 8.6C8.02458 8.6 8.22991 8.55467 8.40591 8.464C8.58725 8.37333 8.74191 8.248 8.86991 8.088C8.99791 7.928 9.09391 7.74667 9.15791 7.544C9.22191 7.336 9.25391 7.11733 9.25391 6.888C9.25391 6.66933 9.20858 6.48 9.11791 6.32C9.03258 6.15467 8.90725 6.02667 8.74191 5.936C8.58191 5.84533 8.38725 5.8 8.15791 5.8C7.92858 5.8 7.72325 5.84533 7.54191 5.936C7.36058 6.02667 7.20591 6.152 7.07791 6.312C6.94991 6.472 6.85391 6.656 6.78991 6.864C6.72591 7.06667 6.69391 7.28267 6.69391 7.512C6.69391 7.72533 6.73658 7.91467 6.82191 8.08C6.91258 8.24533 7.03791 8.37333 7.19791 8.464C7.36325 8.55467 7.56058 8.6 7.78991 8.6ZM13.6592 6.784H16.1232L15.8352 8.208H13.3792L13.6592 6.784ZM13.1472 10H11.2592L12.3792 4.4H16.9312L16.6432 5.824H13.9792L13.1472 10ZM18.8076 6.784H21.2716L20.9836 8.208H18.5276L18.8076 6.784ZM18.2956 10H16.4076L17.5276 4.4H22.0796L21.7916 5.824H19.1276L18.2956 10Z" fill="#F7F5F5"/>
</svg>
