<svg width="22" height="14" viewBox="0 0 22 14" fill="none" xmlns="http://www.w3.org/2000/svg">
<rect x="0.000976562" width="22" height="14" rx="7" fill="#EC2A38"/>
<path d="M7.56351 10.128C6.98217 10.128 6.47817 10.0213 6.05151 9.808C5.63017 9.59467 5.30217 9.30133 5.06751 8.928C4.83817 8.54933 4.72351 8.11467 4.72351 7.624C4.72351 7.128 4.80884 6.67733 4.97951 6.272C5.15551 5.86133 5.40084 5.50667 5.71551 5.208C6.03017 4.90933 6.40351 4.68 6.83551 4.52C7.26751 4.35467 7.73951 4.272 8.25151 4.272C8.83284 4.272 9.33417 4.37867 9.75551 4.592C10.1822 4.80533 10.5102 5.10133 10.7395 5.48C10.9742 5.85333 11.0915 6.28533 11.0915 6.776C11.0915 7.272 11.0035 7.72533 10.8275 8.136C10.6568 8.54133 10.4142 8.89333 10.0995 9.192C9.78484 9.49067 9.41151 9.72267 8.97951 9.888C8.54751 10.048 8.07551 10.128 7.56351 10.128ZM7.72351 8.6C7.95817 8.6 8.16351 8.55467 8.33951 8.464C8.52084 8.37333 8.67551 8.248 8.80351 8.088C8.93151 7.928 9.02751 7.74667 9.09151 7.544C9.15551 7.336 9.18751 7.11733 9.18751 6.888C9.18751 6.66933 9.14217 6.48 9.05151 6.32C8.96617 6.15467 8.84084 6.02667 8.67551 5.936C8.51551 5.84533 8.32084 5.8 8.09151 5.8C7.86217 5.8 7.65684 5.84533 7.47551 5.936C7.29417 6.02667 7.13951 6.152 7.01151 6.312C6.88351 6.472 6.78751 6.656 6.72351 6.864C6.65951 7.06667 6.62751 7.28267 6.62751 7.512C6.62751 7.72533 6.67017 7.91467 6.75551 8.08C6.84617 8.24533 6.97151 8.37333 7.13151 8.464C7.29684 8.55467 7.49417 8.6 7.72351 8.6ZM11.1928 10L12.3128 4.4H13.8648L15.9688 7.808H15.3128L15.9928 4.4H17.8328L16.7128 10H15.1608L13.0568 6.592H13.7128L13.0328 10H11.1928Z" fill="white"/>
</svg>
