<svg width="30" height="20" viewBox="0 0 30 20" fill="none" xmlns="http://www.w3.org/2000/svg">
<g clip-path="url(#clip0_755_5125)">
<path d="M29.01 6.00001H28.65C27.34 6.00001 26.27 4.93001 26.27 3.62001V3.26001C26.27 3.12001 26.16 3.01001 26.02 3.01001H4.25001C4.11001 3.01001 4.00001 3.12001 4.00001 3.26001V3.62001C4.00001 4.93001 2.93001 6.00001 1.62001 6.00001H1.26001C1.12001 6.00001 1.01001 6.11001 1.01001 6.25001V14.65C1.01001 14.79 1.12001 14.9 1.26001 14.9H1.62001C2.93001 14.9 4.00001 15.97 4.00001 17.28V17.64C4.00001 17.78 4.11001 17.89 4.25001 17.89H26.02C26.16 17.89 26.27 17.78 26.27 17.64V17.28C26.27 15.97 27.34 14.9 28.65 14.9H29.01C29.15 14.9 29.26 14.79 29.26 14.65V6.25001C29.26 6.11001 29.15 6.00001 29.01 6.00001ZM5.16001 16.67C4.90001 15.18 3.71001 13.98 2.22001 13.73V7.16001C3.71001 6.90001 4.91001 5.71001 5.16001 4.22001H25.09C25.35 5.71001 26.54 6.91001 28.03 7.16001V13.73C26.54 13.99 25.34 15.18 25.09 16.67H5.16001Z" fill="#222222"/>
<path d="M5.83998 4.73999H5.37998C5.29714 4.73999 5.22998 4.80715 5.22998 4.88999V5.31999C5.22998 5.40283 5.29714 5.46999 5.37998 5.46999H5.83998C5.92282 5.46999 5.98998 5.40283 5.98998 5.31999V4.88999C5.98998 4.80715 5.92282 4.73999 5.83998 4.73999Z" fill="#222222"/>
<path d="M5.83998 7.97998H5.37998C5.29714 7.97998 5.22998 8.04714 5.22998 8.12998V9.06998C5.22998 9.15282 5.29714 9.21998 5.37998 9.21998H5.83998C5.92282 9.21998 5.98998 9.15282 5.98998 9.06998V8.12998C5.98998 8.04714 5.92282 7.97998 5.83998 7.97998Z" fill="#222222"/>
<path d="M5.83998 9.84998H5.37998C5.29714 9.84998 5.22998 9.91713 5.22998 9.99998V10.93C5.22998 11.0128 5.29714 11.08 5.37998 11.08H5.83998C5.92282 11.08 5.98998 11.0128 5.98998 10.93V9.99998C5.98998 9.91713 5.92282 9.84998 5.83998 9.84998Z" fill="#222222"/>
<path d="M5.83998 6.10999H5.37998C5.29714 6.10999 5.22998 6.17714 5.22998 6.25999V7.18999C5.22998 7.27283 5.29714 7.33999 5.37998 7.33999H5.83998C5.92282 7.33999 5.98998 7.27283 5.98998 7.18999V6.25999C5.98998 6.17714 5.92282 6.10999 5.83998 6.10999Z" fill="#222222"/>
<path d="M5.83998 13.59H5.37998C5.29714 13.59 5.22998 13.6571 5.22998 13.74V14.67C5.22998 14.7528 5.29714 14.82 5.37998 14.82H5.83998C5.92282 14.82 5.98998 14.7528 5.98998 14.67V13.74C5.98998 13.6571 5.92282 13.59 5.83998 13.59Z" fill="#222222"/>
<path d="M5.83998 11.72H5.37998C5.29714 11.72 5.22998 11.7871 5.22998 11.87V12.8C5.22998 12.8828 5.29714 12.95 5.37998 12.95H5.83998C5.92282 12.95 5.98998 12.8828 5.98998 12.8V11.87C5.98998 11.7871 5.92282 11.72 5.83998 11.72Z" fill="#222222"/>
<path d="M5.83998 15.46H5.37998C5.29714 15.46 5.22998 15.5271 5.22998 15.61V16.04C5.22998 16.1228 5.29714 16.19 5.37998 16.19H5.83998C5.92282 16.19 5.98998 16.1228 5.98998 16.04V15.61C5.98998 15.5271 5.92282 15.46 5.83998 15.46Z" fill="#222222"/>
<path d="M24.67 4.73999H24.21C24.1272 4.73999 24.06 4.80715 24.06 4.88999V5.31999C24.06 5.40283 24.1272 5.46999 24.21 5.46999H24.67C24.7528 5.46999 24.82 5.40283 24.82 5.31999V4.88999C24.82 4.80715 24.7528 4.73999 24.67 4.73999Z" fill="#222222"/>
<path d="M24.67 6.10999H24.21C24.1272 6.10999 24.06 6.17714 24.06 6.25999V7.18999C24.06 7.27283 24.1272 7.33999 24.21 7.33999H24.67C24.7528 7.33999 24.82 7.27283 24.82 7.18999V6.25999C24.82 6.17714 24.7528 6.10999 24.67 6.10999Z" fill="#222222"/>
<path d="M24.67 7.97998H24.21C24.1272 7.97998 24.06 8.04714 24.06 8.12998V9.06998C24.06 9.15282 24.1272 9.21998 24.21 9.21998H24.67C24.7528 9.21998 24.82 9.15282 24.82 9.06998V8.12998C24.82 8.04714 24.7528 7.97998 24.67 7.97998Z" fill="#222222"/>
<path d="M24.67 11.72H24.21C24.1272 11.72 24.06 11.7871 24.06 11.87V12.8C24.06 12.8828 24.1272 12.95 24.21 12.95H24.67C24.7528 12.95 24.82 12.8828 24.82 12.8V11.87C24.82 11.7871 24.7528 11.72 24.67 11.72Z" fill="#222222"/>
<path d="M24.67 9.84998H24.21C24.1272 9.84998 24.06 9.91713 24.06 9.99998V10.93C24.06 11.0128 24.1272 11.08 24.21 11.08H24.67C24.7528 11.08 24.82 11.0128 24.82 10.93V9.99998C24.82 9.91713 24.7528 9.84998 24.67 9.84998Z" fill="#222222"/>
<path d="M24.67 13.59H24.21C24.1272 13.59 24.06 13.6571 24.06 13.74V14.67C24.06 14.7528 24.1272 14.82 24.21 14.82H24.67C24.7528 14.82 24.82 14.7528 24.82 14.67V13.74C24.82 13.6571 24.7528 13.59 24.67 13.59Z" fill="#222222"/>
<path d="M24.67 15.46H24.21C24.1272 15.46 24.06 15.5271 24.06 15.61V16.04C24.06 16.1228 24.1272 16.19 24.21 16.19H24.67C24.7528 16.19 24.82 16.1228 24.82 16.04V15.61C24.82 15.5271 24.7528 15.46 24.67 15.46Z" fill="#222222"/>
<path d="M15.22 7.73004C15.93 7.73004 16.41 7.91004 16.63 8.02004C16.7 8.05004 16.77 8.05004 16.84 8.02004C16.91 7.99004 16.96 7.93004 16.98 7.86004L17.21 7.07004C17.24 6.96004 17.19 6.83004 17.09 6.78004C16.93 6.70004 16.31 6.42004 15.19 6.42004C12.73 6.42004 11.01 8.15004 11.01 10.62C11.01 13.09 12.57 14.68 14.98 14.68C15.96 14.68 16.71 14.48 17.08 14.3C17.19 14.25 17.24 14.13 17.21 14.01L17.01 13.24C16.99 13.17 16.94 13.11 16.87 13.08C16.8 13.05 16.72 13.05 16.66 13.08C16.3 13.26 15.73 13.37 15.18 13.37C13.53 13.37 12.54 12.33 12.54 10.59C12.54 8.85004 13.54 7.74004 15.23 7.74004L15.22 7.73004Z" fill="#222222"/>
</g>
<defs>
<clipPath id="clip0_755_5125">
<rect width="28.26" height="14.89" fill="white" transform="translate(1 3)"/>
</clipPath>
</defs>
</svg>
