<svg width="24" height="24" viewBox="0 0 24 24" fill="none" xmlns="http://www.w3.org/2000/svg">
<g id="icon/filled/run">
<g id="icon">
<path d="M16.7192 1.00012C15.4201 0.987866 14.3538 2.02964 14.3415 3.3288C14.3293 4.62796 15.371 5.69425 16.6702 5.70651C17.9694 5.70651 19.0234 4.66473 19.0356 3.36557C19.0356 2.07867 18.0061 1.01238 16.707 1.00012H16.7192Z" fill="white"/>
<path d="M22.1152 8.51327C21.7108 7.974 20.9754 7.79015 20.3749 8.09656C19.8356 8.37845 19.3086 8.68486 18.7816 8.96675C18.5487 9.10157 18.3158 9.22413 18.0707 9.35895C18.0217 9.28541 17.9726 9.22413 17.9359 9.16285C17.5192 8.53778 17.1147 7.90046 16.698 7.27539C16.6367 7.06704 16.5019 6.87094 16.2935 6.74838L13.4378 5.04476C13.2908 4.95897 13.1437 4.9222 12.9844 4.9222C11.4891 4.9222 9.9816 4.9222 8.48634 4.9222C7.95932 4.9222 7.53035 5.15507 7.26072 5.62081C6.64791 6.71161 6.04735 7.81467 5.4468 8.91772C5.27521 9.23639 5.23844 9.57956 5.32424 9.93499C5.47131 10.4988 5.92479 10.891 6.52535 10.9768C7.06462 11.0503 7.62841 10.7807 7.9103 10.2782C8.35152 9.49376 8.78049 8.70937 9.20946 7.91272C9.28299 7.7779 9.35653 7.74113 9.5036 7.74113C10.2512 7.74113 10.9989 7.74113 11.7465 7.74113C11.8078 7.74113 11.8691 7.74113 11.9548 7.74113C11.9181 7.80241 11.9058 7.85143 11.8813 7.8882C10.5822 10.1556 9.28299 12.423 7.99609 14.6781C7.92255 14.8007 7.83676 14.8252 7.70194 14.8252C6.12089 14.8252 4.52758 14.8252 2.94653 14.8252C2.01506 14.8252 1.36548 15.7077 1.59835 16.5901C1.76994 17.2397 2.32147 17.6441 3.05684 17.6441C4.8585 17.6441 6.66016 17.6441 8.44957 17.6441C9.17269 17.6441 9.68745 17.3745 10.0429 16.7372C10.3125 16.2347 10.6312 15.7444 10.9253 15.2297C10.9866 15.2664 11.0356 15.3032 11.0724 15.34C11.82 15.9283 12.5677 16.5288 13.3275 17.1171C13.4624 17.2274 13.4624 17.3132 13.4133 17.448C12.9231 18.6369 12.4451 19.8258 11.9794 21.0146C11.6362 21.8848 12.0652 22.7182 12.9721 22.9633C12.9966 22.9633 13.0211 22.9879 13.0456 23.0001H13.5114C14.161 22.8285 14.4919 22.375 14.7247 21.7622C15.2763 20.316 15.8768 18.882 16.4529 17.4358C16.7593 16.6759 16.5999 16.0876 15.9504 15.5851C15.1537 14.96 14.3693 14.335 13.5849 13.7222C13.4746 13.6364 13.3521 13.5383 13.2295 13.4403C13.8913 12.3249 14.5286 11.2219 15.1905 10.0943C15.5949 10.7194 15.9749 11.2954 16.3671 11.8837C16.8451 12.6068 17.605 12.8029 18.3526 12.374C19.4434 11.7734 20.5219 11.1729 21.6005 10.5601C21.7598 10.4743 21.9191 10.3517 22.0294 10.2169C22.4707 9.71438 22.4952 8.96675 22.0907 8.43973L22.1152 8.51327Z" fill="white"/>
</g>
</g>
</svg>
