<svg width="14" height="14" viewBox="0 0 14 14" fill="none" xmlns="http://www.w3.org/2000/svg">
<g id="icon">
<g id="icon_2">
<path d="M7 9.62487C6.87925 9.62487 6.76987 9.57587 6.69069 9.49668C6.6115 9.41749 6.5625 9.30812 6.5625 9.18737V6.99987H2.625C2.3835 6.99987 2.1875 7.19587 2.1875 7.43737V9.9718C2.1875 10.03 2.21069 10.0856 2.25137 10.1267L4.31112 12.1864C4.35225 12.2276 4.40781 12.2503 4.466 12.2503H11.3754C11.4962 12.2503 11.6056 12.2013 11.6847 12.1221C11.7639 12.0429 11.8129 11.9336 11.8129 11.8128V7.4378C11.8129 7.1963 11.6169 7.0003 11.3754 7.0003H7.43794V9.1878C7.43794 9.30855 7.38894 9.41793 7.30975 9.49712C7.23056 9.5763 7.12119 9.6253 7.00044 9.6253L7 9.62487Z" fill="white"/>
<path d="M10.703 3.49987C10.8522 3.24262 10.9375 2.9438 10.9375 2.62487C10.9375 1.67374 10.1784 0.889305 9.22731 0.875305C8.27619 0.861305 7.47687 1.33118 7 2.04912C6.52312 1.33118 5.70237 0.861305 4.77269 0.875305C3.822 0.889305 3.0625 1.67418 3.0625 2.62487C3.0625 2.9438 3.14825 3.24262 3.297 3.49987H2.1875C1.946 3.49987 1.75 3.69587 1.75 3.93737V5.68737C1.75 5.92887 1.946 6.12487 2.1875 6.12487H11.8125C12.054 6.12487 12.25 5.92887 12.25 5.68737V3.93737C12.25 3.69587 12.054 3.49987 11.8125 3.49987H10.703ZM6.5625 3.49987H4.83394C4.36013 3.49987 3.95588 3.13193 3.93794 2.65855C3.91913 2.16068 4.31856 1.74987 4.8125 1.74987C5.77762 1.74987 6.5625 2.53474 6.5625 3.49987ZM9.16606 3.49987H7.4375C7.4375 2.53474 8.22238 1.74987 9.1875 1.74987C9.681 1.74987 10.0809 2.16068 10.0621 2.65855C10.0433 3.15643 9.63987 3.49987 9.16606 3.49987Z" fill="white"/>
</g>
</g>
</svg>
