<svg width="32" height="32" viewBox="0 0 32 32" fill="none" xmlns="http://www.w3.org/2000/svg">
<g id="icon/outlined/check_circle">
<path id="icon" fill-rule="evenodd" clip-rule="evenodd" d="M11.2929 15.2929C11.6834 14.9024 12.3166 14.9024 12.7071 15.2929L14.6667 17.2525L19.2929 12.6262C19.6834 12.2357 20.3166 12.2357 20.7071 12.6262C21.0976 13.0168 21.0976 13.6499 20.7071 14.0404L15.3738 19.3738C14.9832 19.7643 14.3501 19.7643 13.9596 19.3738L11.2929 16.7071C10.9024 16.3166 10.9024 15.6834 11.2929 15.2929ZM16 26C21.5228 26 26 21.5228 26 16C26 10.4772 21.5228 6 16 6C10.4772 6 6 10.4772 6 16C6 21.5228 10.4772 26 16 26ZM16 28C22.6274 28 28 22.6274 28 16C28 9.37258 22.6274 4 16 4C9.37258 4 4 9.37258 4 16C4 22.6274 9.37258 28 16 28Z" fill="#938F8F"/>
</g>
</svg>
