<svg width="43" height="16" viewBox="0 0 43 16" fill="none" xmlns="http://www.w3.org/2000/svg">
<g id="icon_collectbook_tag_novel" clip-path="url(#clip0_11155_217813)">
<path id="Vector (Stroke)" fill-rule="evenodd" clip-rule="evenodd" d="M8 0.727273C3.98338 0.727273 0.727273 3.98338 0.727273 8C0.727273 12.0166 3.98338 15.2727 8 15.2727H34.1818C38.1984 15.2727 41.4545 12.0166 41.4545 8C41.4545 3.98338 38.1984 0.727273 34.1818 0.727273H8ZM0 8C0 3.58172 3.58172 0 8 0H34.1818C38.6001 0 42.1818 3.58172 42.1818 8C42.1818 12.4183 38.6001 16 34.1818 16H8C3.58172 16 0 12.4183 0 8Z" fill="#938F8F"/>
<g id="&#236;&#155;&#185;&#236;&#134;&#140;&#236;&#132;&#164;">
<g id="Vector">
<path d="M33.0287 3.64258V8.1557H31.9444V5.92849H30.1868V5.05832H31.9444V3.64258H33.0287ZM25.5874 7.34424C27.0066 6.91261 27.7421 5.8249 27.749 4.6336V3.92918H28.8401V4.6336C28.8332 5.72131 29.548 6.75377 30.9154 7.17158L30.3388 8.01413C29.3823 7.69645 28.6917 7.07145 28.3049 6.27034C27.9182 7.16813 27.1965 7.86564 26.1571 8.2075L25.5874 7.34424ZM27.2138 9.39189V8.54589H33.0287V10.8214H28.2946V11.4982H33.3049V12.358H27.2276V10.0203H31.9513V9.39189H27.2138Z" fill="#938F8F"/>
<path d="M25.2629 10.4969V11.3739H17.1931V10.4969H20.6462V8.44921H21.7235V10.4969H25.2629ZM17.4245 7.76896C19.2753 7.472 20.5944 6.14948 20.6013 4.82352V4.1778H21.7546V4.82352C21.7512 6.15294 23.0875 7.472 24.9487 7.76896L24.4791 8.67366C22.9873 8.38705 21.765 7.5307 21.1779 6.37738C20.5978 7.52379 19.3824 8.39396 17.8941 8.67366L17.4245 7.76896Z" fill="#938F8F"/>
<path d="M16.3645 3.64258V9.08457H15.3217V3.64258H16.3645ZM8.69531 6.9644C9.8728 6.9644 11.8203 6.94023 13.2602 6.71924L13.3327 7.44437C12.7906 7.56178 12.1932 7.6412 11.5993 7.68954V9.03968H10.553V7.75515C9.90042 7.78277 9.28924 7.78277 8.7989 7.78277L8.69531 6.9644ZM9.09587 5.26205C9.09587 4.44714 9.8728 3.9499 11.033 3.9499C12.1863 3.9499 12.9702 4.44714 12.9702 5.26205C12.9702 6.06316 12.1863 6.58111 11.033 6.58111C9.8728 6.58111 9.09587 6.06316 9.09587 5.26205ZM10.0834 5.26205C10.08 5.62808 10.4426 5.81454 11.033 5.81454C11.6166 5.81454 11.9964 5.62808 11.9999 5.26205C11.9964 4.89948 11.6166 4.70266 11.033 4.70611C10.4426 4.70266 10.08 4.89948 10.0834 5.26205ZM10.1767 12.358V9.37462H11.2506V10.0445H15.2837V9.37462H16.3645V12.358H10.1767ZM11.2506 11.5121H15.2837V10.8801H11.2506V11.5121ZM12.2623 8.70128V7.95888H13.6677V3.79451H14.6932V9.0673H13.6677V8.70128H12.2623Z" fill="#938F8F"/>
</g>
</g>
</g>
<defs>
<clipPath id="clip0_11155_217813">
<rect width="42.1818" height="16" fill="white"/>
</clipPath>
</defs>
</svg>
