<svg width="87" height="16" viewBox="0 0 87 16" fill="none" xmlns="http://www.w3.org/2000/svg">
<g id="icon_collectbook_tag_05" clip-path="url(#clip0_2496_32285)">
<path id="Vector (Stroke)" fill-rule="evenodd" clip-rule="evenodd" d="M8.72754 0.727273C4.71092 0.727273 1.45481 3.98338 1.45481 8C1.45481 12.0166 4.71092 15.2727 8.72754 15.2727H78.5457C82.5623 15.2727 85.8185 12.0166 85.8185 8C85.8185 3.98338 82.5623 0.727273 78.5457 0.727273H8.72754ZM0.727539 8C0.727539 3.58172 4.30926 0 8.72754 0H78.5457C82.964 0 86.5457 3.58172 86.5457 8C86.5457 12.4183 82.964 16 78.5457 16H8.72754C4.30926 16 0.727539 12.4183 0.727539 8Z" fill="#EC2A38"/>
<path id="Vector" d="M60.2901 8.03676C60.2901 5.68519 58.8335 4.33789 56.9294 4.33789C55.0102 4.33789 53.5586 5.68519 53.5586 8.03676C53.5586 10.3784 55.0102 11.7356 56.9294 11.7356C58.8335 11.7356 60.2901 10.3883 60.2901 8.03676ZM55.0799 8.03676C55.0799 6.49556 55.8107 5.66531 56.9294 5.66033C58.038 5.66531 58.7737 6.49556 58.7688 8.03676C58.7737 9.57297 58.038 10.4082 56.9294 10.4132C55.8107 10.4082 55.0799 9.57297 55.0799 8.03676ZM67.3696 4.43732H65.8882V9.01119H65.8185L62.6764 4.43732H61.364V11.6362H62.8555V7.06233H62.9151L66.077 11.6362H67.3696V4.43732ZM68.5827 11.6362H73.1765V10.4032H70.0742V4.43732H68.5827V11.6362ZM72.8086 4.43732L75.4336 9.07085V11.6362H76.925V9.07085L79.55 4.43732H77.8697L76.2191 7.53959H76.1494L74.4889 4.43732H72.8086Z" fill="#EC2A38"/>
<path id="Vector_2" fill-rule="evenodd" clip-rule="evenodd" d="M13.1179 8.23555C12.9847 8.02451 12.8233 7.85134 12.6392 7.72417C12.795 7.58619 12.9253 7.42115 13.0272 7.22634C13.1547 6.98554 13.217 6.70145 13.217 6.38219C13.217 6.08457 13.1688 5.80859 13.0726 5.56509C12.9734 5.31617 12.829 5.10513 12.6477 4.93467C12.4636 4.76422 12.2399 4.62894 11.9623 4.52883C11.7102 4.43955 11.427 4.39355 11.1211 4.39355H8V10.0754C8 10.1322 8.01699 10.2729 8.13594 10.3892L8.88367 11.1224L9.11308 11.3497C9.11308 11.3497 9.1159 11.3497 9.11873 11.3524L9.13856 11.3714H9.1414C9.20087 11.4174 9.30849 11.4742 9.4671 11.4742H11.1664C11.4468 11.4742 11.7131 11.4336 11.9595 11.3551L11.9935 11.3443C12.0303 11.3335 12.0643 11.32 12.0983 11.3091C12.373 11.1982 12.6081 11.0413 12.795 10.8438C12.9819 10.649 13.1264 10.4109 13.2227 10.1403C13.3161 9.87245 13.3643 9.58025 13.3643 9.27179C13.3643 8.8443 13.2821 8.49529 13.1179 8.23284V8.23555ZM9.49542 5.89246H11.2854C11.529 5.89246 11.7272 6.15492 11.7272 6.47418C11.7272 6.79344 11.5318 7.05047 11.2854 7.0586H9.4926V5.89246H9.49542ZM11.478 9.96444C11.4355 9.98337 11.3817 9.9969 11.3619 9.9969H9.49825V8.56292H11.3619C11.3959 8.56292 11.4525 8.57104 11.478 8.58186C11.6734 8.66304 11.883 8.95254 11.883 9.27991C11.883 9.6073 11.6734 9.88327 11.478 9.96444Z" fill="#EC2A38"/>
<path id="Vector_3" fill-rule="evenodd" clip-rule="evenodd" d="M31.4317 7.89954C31.4771 7.85895 34.9098 4.5635 34.9098 4.5635L35.0967 4.38492H32.8819L30.4829 6.68471V4.36328H28.9082V9.95311C28.9082 10.0343 28.9393 10.3157 29.2084 10.5294L30.4717 11.636V9.09543L32.9611 11.4764H35.1789L34.9918 11.2978C34.4057 10.735 31.4743 7.93201 31.4262 7.89684L31.4317 7.89954Z" fill="#EC2A38"/>
<path id="Vector_4" fill-rule="evenodd" clip-rule="evenodd" d="M40.463 5.81341C40.2025 5.05314 39.5794 4.5093 38.8402 4.39567C38.7439 4.38214 38.6447 4.37402 38.5513 4.37402H36.9058L36.818 4.38755C36.7359 4.4119 36.6594 4.44978 36.5886 4.50118C36.379 4.66352 36.1694 4.82045 35.9966 4.95573C35.7842 5.11807 35.6171 5.24252 35.5576 5.29394C35.4047 5.41298 35.3877 5.59967 35.3877 5.67542V9.70951V11.5006H36.9624V8.80313H38.5513C39.0753 8.80313 39.5737 8.58668 39.9561 8.19165C40.1828 7.95897 40.3583 7.67218 40.463 7.35833C40.548 7.10941 40.5905 6.84967 40.5905 6.58992C40.5905 6.33018 40.548 6.06774 40.463 5.81882V5.81341ZM38.421 7.26633H36.9567L36.9483 5.87834C36.9483 5.87834 36.951 5.87834 36.9596 5.87834H38.421C38.7523 5.87834 39.0214 6.1895 39.0214 6.57369C39.0214 6.95789 38.758 7.26092 38.4239 7.26903L38.421 7.26633Z" fill="#EC2A38"/>
<path id="Vector_5" fill-rule="evenodd" clip-rule="evenodd" d="M46.2959 11.3742L43.8574 4.98076L43.628 4.38281H42.4412L39.7874 11.339L39.7534 11.4391H39.7563L39.7393 11.4905H40.5295L40.5125 11.4851L41.0024 11.4905C41.2376 11.4905 41.4527 11.3579 41.5265 11.1658C41.5746 11.0441 41.8437 10.3379 41.9286 10.1133H44.1462C44.2312 10.3379 44.506 11.0441 44.5484 11.1658C44.6136 11.3579 44.8005 11.4878 45.0101 11.4878H46.1798L46.3497 11.4797L46.2959 11.3742ZM42.5007 8.59007C42.614 8.25727 42.9001 7.39958 43.0332 7.00457C43.1634 7.39147 43.4552 8.25457 43.5685 8.59007H42.5007Z" fill="#EC2A38"/>
<path id="Vector_6" fill-rule="evenodd" clip-rule="evenodd" d="M47.9626 9.99099C47.9626 9.68795 47.9626 4.46879 47.9626 4.46879V4.36328H46.3623V10.0451C46.3652 10.1181 46.3878 10.2616 46.4926 10.3995C46.5124 10.4266 46.5351 10.4537 46.5635 10.4807L47.5123 11.3465C47.5123 11.3465 47.6283 11.4547 47.8039 11.5007L51.636 11.5061V9.9937H47.9626V9.99099Z" fill="#EC2A38"/>
<path id="Vector_7" fill-rule="evenodd" clip-rule="evenodd" d="M20.4964 6.49059C20.3236 6.05498 20.0744 5.67348 19.7601 5.35963C19.4456 5.04577 19.0689 4.79956 18.6442 4.62912C18.2164 4.45866 17.7463 4.37207 17.245 4.37207C16.7437 4.37207 16.2706 4.45866 15.8402 4.62912C15.4126 4.79956 15.033 5.04577 14.7186 5.35963C14.4043 5.67348 14.1579 6.05227 13.9822 6.49059C13.8095 6.92619 13.7217 7.4105 13.7217 7.93539C13.7217 8.46027 13.8095 8.95271 13.9822 9.3883C14.1579 9.82391 14.4043 10.2027 14.7186 10.5138C15.033 10.825 15.4097 11.0685 15.8402 11.239C16.2706 11.4094 16.7437 11.496 17.245 11.496C17.7463 11.496 18.2164 11.4094 18.6442 11.239C19.0718 11.0685 19.4456 10.825 19.7601 10.5138C20.0744 10.2027 20.3236 9.82391 20.4964 9.3883C20.6692 8.95271 20.757 8.46298 20.757 7.93539C20.757 7.40779 20.6692 6.92619 20.4964 6.49059ZM19.0463 8.72814C18.9698 8.97165 18.8481 9.1881 18.6894 9.36936C18.5309 9.55064 18.3326 9.69675 18.0946 9.80768C17.8596 9.91591 17.5791 9.97002 17.2564 9.97002C16.9335 9.97002 16.6389 9.91591 16.3953 9.80768C16.1518 9.69946 15.9479 9.55335 15.7921 9.36936C15.6334 9.1881 15.5117 8.96894 15.4351 8.72814C15.3559 8.48192 15.3162 8.21677 15.3162 7.93539C15.3162 7.654 15.3559 7.39697 15.4351 7.15076C15.5146 6.90726 15.6334 6.6881 15.7921 6.50411C15.9479 6.32013 16.1518 6.17131 16.3953 6.0631C16.6389 5.95486 16.9278 5.90075 17.2564 5.90075C17.5848 5.90075 17.8596 5.95486 18.0946 6.0631C18.3297 6.17131 18.5309 6.32013 18.6894 6.50411C18.8481 6.69081 18.9698 6.90726 19.0463 7.15076C19.1256 7.39697 19.1652 7.65942 19.1652 7.93539C19.1652 8.21136 19.1256 8.48192 19.0463 8.72814Z" fill="#EC2A38"/>
<path id="Vector_8" fill-rule="evenodd" clip-rule="evenodd" d="M28.0463 6.49059C27.8735 6.05498 27.6271 5.67619 27.3127 5.35963C26.9956 5.04577 26.6188 4.79956 26.194 4.62912C25.7663 4.45866 25.2962 4.37207 24.7949 4.37207C24.2936 4.37207 23.8206 4.45866 23.39 4.62912C22.9624 4.79956 22.5829 5.04577 22.2684 5.35963C21.9541 5.67348 21.7077 6.05498 21.5349 6.49059C21.3621 6.92619 21.2744 7.4132 21.2744 7.93539C21.2744 8.45757 21.3621 8.95271 21.5349 9.3883C21.7077 9.82391 21.9569 10.2027 22.2714 10.5138C22.5857 10.825 22.9624 11.0685 23.393 11.239C23.8234 11.4094 24.2964 11.496 24.7978 11.496C25.299 11.496 25.772 11.4094 26.1969 11.239C26.6216 11.0685 26.9983 10.825 27.3127 10.5138C27.6271 10.2027 27.8735 9.82391 28.0463 9.3883C28.219 8.95 28.3069 8.46298 28.3069 7.93539C28.3069 7.40779 28.219 6.9289 28.0463 6.49059ZM26.5962 8.72814C26.5169 8.97165 26.3979 9.1881 26.2394 9.37207C26.0807 9.55335 25.8824 9.69946 25.6446 9.81038C25.4094 9.91862 25.1262 9.97272 24.8062 9.97272C24.4862 9.97272 24.1887 9.91862 23.948 9.81038C23.7044 9.70216 23.5006 9.55606 23.3448 9.37207C23.1834 9.1881 23.0644 8.97165 22.9851 8.73085C22.9057 8.48462 22.8661 8.21947 22.8661 7.93809C22.8661 7.65671 22.9057 7.39968 22.9851 7.15347C23.0644 6.90996 23.1834 6.6908 23.3448 6.50682C23.5006 6.32283 23.7044 6.17402 23.948 6.0658C24.1887 5.95757 24.4776 5.90346 24.8062 5.90346C25.1348 5.90346 25.4094 5.95757 25.6446 6.0658C25.8824 6.17402 26.0807 6.32283 26.2394 6.50682C26.3979 6.69351 26.5197 6.90996 26.5962 7.15347C26.6754 7.39968 26.7151 7.66483 26.7151 7.93809C26.7151 8.21136 26.6754 8.48192 26.5962 8.73085V8.72814Z" fill="#EC2A38"/>
</g>
<defs>
<clipPath id="clip0_2496_32285">
<rect width="85.8182" height="16" fill="white" transform="translate(0.727539)"/>
</clipPath>
</defs>
</svg>
