<svg width="18" height="19" viewBox="0 0 18 19" fill="none" xmlns="http://www.w3.org/2000/svg">
<g id="icon/sns/apple_white">
<path id="path4" d="M15.4666 14.0372C15.2242 14.6137 14.9373 15.1443 14.6049 15.6322C14.1518 16.2972 13.7808 16.7576 13.4949 17.0132C13.0517 17.4329 12.5768 17.6478 12.0683 17.66C11.7033 17.66 11.263 17.553 10.7506 17.3361C10.2364 17.1202 9.76395 17.0132 9.33192 17.0132C8.87882 17.0132 8.39287 17.1202 7.87309 17.3361C7.35252 17.553 6.93316 17.6661 6.61253 17.6773C6.1249 17.6987 5.63886 17.4777 5.1537 17.0132C4.84405 16.7352 4.45674 16.2585 3.99276 15.5833C3.49494 14.8622 3.08567 14.026 2.76504 13.0727C2.42165 12.043 2.24951 11.0459 2.24951 10.0806C2.24951 8.97483 2.4816 8.02112 2.94647 7.22191C3.31182 6.57996 3.79787 6.07356 4.40619 5.70182C5.01451 5.33007 5.6718 5.14063 6.37965 5.12851C6.76696 5.12851 7.27486 5.25185 7.90604 5.49425C8.53543 5.73746 8.93956 5.8608 9.11674 5.8608C9.24921 5.8608 9.69816 5.71658 10.4592 5.42907C11.1789 5.16243 11.7864 5.05202 12.284 5.09551C13.6324 5.20754 14.6455 5.75478 15.3192 6.74067C14.1132 7.49293 13.5167 8.54655 13.5285 9.89819C13.5394 10.951 13.9104 11.8271 14.6395 12.5227C14.9699 12.8456 15.339 13.0951 15.7495 13.2723C15.6605 13.5382 15.5665 13.7928 15.4666 14.0372ZM12.374 1.5088C12.374 2.33399 12.0812 3.10447 11.4975 3.81761C10.7931 4.6654 9.94113 5.1553 9.01722 5.07799C9.00545 4.979 8.99862 4.8748 8.99862 4.76532C8.99862 3.97314 9.3336 3.12535 9.92847 2.43217C10.2255 2.08119 10.6032 1.78937 11.0612 1.55657C11.5183 1.32725 11.9506 1.20043 12.3572 1.17871C12.3691 1.28903 12.374 1.39936 12.374 1.5088Z" fill="white"/>
</g>
</svg>
