<svg width="19" height="19" viewBox="0 0 19 19" fill="none" xmlns="http://www.w3.org/2000/svg">
<g id="icon/filled/home_logo">
<path id="icon" fill-rule="evenodd" clip-rule="evenodd" d="M14.2853 10.0355C14.0259 9.59727 13.7104 9.24289 13.3448 8.97795C13.653 8.69445 13.905 8.34964 14.1064 7.94745C14.3488 7.45077 14.4771 6.8652 14.4771 6.20258C14.4771 5.58439 14.3803 5.01852 14.1936 4.51452C14.0023 3.99927 13.7233 3.56164 13.3594 3.21064C13.0028 2.85852 12.5618 2.58008 12.0257 2.37027C11.5313 2.18408 10.9761 2.08789 10.3843 2.08789H4.29639V13.8458C4.29639 13.96 4.3307 14.2508 4.56076 14.495L6.02045 16.0126L6.46651 16.4811C6.46651 16.4862 6.47157 16.4862 6.47607 16.4885L6.51489 16.525H6.51995C6.63864 16.6229 6.84732 16.741 7.15501 16.741H10.4766C11.0222 16.741 11.5408 16.66 12.0184 16.4958L12.0864 16.4738C12.1517 16.4491 12.2198 16.4271 12.2878 16.3979C12.8261 16.165 13.2846 15.8433 13.6479 15.4371C14.0113 15.031 14.2954 14.5428 14.4844 13.9786C14.6661 13.4251 14.7634 12.8204 14.7634 12.1803C14.7634 11.2983 14.6008 10.5755 14.2858 10.036L14.2853 10.0355ZM7.21295 5.18952H10.7044C11.1819 5.18952 11.5701 5.72895 11.5701 6.39552C11.5701 7.06208 11.1921 7.58689 10.7072 7.60152H7.21126L7.21351 5.18952H7.21295ZM11.0801 13.609C10.9974 13.6495 10.8984 13.6765 10.8568 13.6765H7.22026L7.21295 10.7116L7.21801 10.7076H10.8574C10.9254 10.7076 11.0318 10.7273 11.0807 10.7493C11.4638 10.9152 11.8738 11.5148 11.8738 12.1943C11.8738 12.8738 11.4688 13.4397 11.0807 13.609H11.0801Z" fill="white"/>
</g>
</svg>
