<svg width="16" height="16" viewBox="0 0 16 16" fill="none" xmlns="http://www.w3.org/2000/svg">
<path id="icon" fill-rule="evenodd" clip-rule="evenodd" d="M8.00005 15.2C11.9765 15.2 15.2 11.9764 15.2 7.99999C15.2 4.02354 11.9765 0.799988 8.00005 0.799988C4.0236 0.799988 0.800049 4.02354 0.800049 7.99999C0.800049 11.9764 4.0236 15.2 8.00005 15.2ZM6.83645 5.56359C6.48497 5.21212 5.91513 5.21212 5.56365 5.56359C5.21218 5.91506 5.21218 6.48491 5.56365 6.83638L6.72726 7.99999L5.56365 9.16359C5.21218 9.51506 5.21218 10.0849 5.56365 10.4364C5.91512 10.7879 6.48497 10.7879 6.83644 10.4364L8.00005 9.27278L9.16365 10.4364C9.51512 10.7879 10.085 10.7879 10.4364 10.4364C10.7879 10.0849 10.7879 9.51506 10.4364 9.16359L9.27284 7.99999L10.4364 6.83638C10.7879 6.48491 10.7879 5.91506 10.4364 5.56359C10.085 5.21212 9.51512 5.21212 9.16365 5.56359L8.00005 6.7272L6.83645 5.56359Z" fill="#A9A5A5"/>
</svg>
