<svg width="18" height="18" viewBox="0 0 18 18" fill="none" xmlns="http://www.w3.org/2000/svg">
<g id="icon/filled/exclamation_circle">
<path id="icon" fill-rule="evenodd" clip-rule="evenodd" d="M16.2 8.99999C16.2 12.9764 12.9765 16.2 9.00005 16.2C5.0236 16.2 1.80005 12.9764 1.80005 8.99999C1.80005 5.02354 5.0236 1.79999 9.00005 1.79999C12.9765 1.79999 16.2 5.02354 16.2 8.99999ZM9.90005 12.6C9.90005 13.097 9.49711 13.5 9.00005 13.5C8.50299 13.5 8.10005 13.097 8.10005 12.6C8.10005 12.1029 8.50299 11.7 9.00005 11.7C9.49711 11.7 9.90005 12.1029 9.90005 12.6ZM9.00005 4.49999C8.50299 4.49999 8.10005 4.90293 8.10005 5.39999V8.99999C8.10005 9.49704 8.50299 9.89999 9.00005 9.89999C9.49711 9.89999 9.90005 9.49704 9.90005 8.99999V5.39999C9.90005 4.90293 9.49711 4.49999 9.00005 4.49999Z" fill="#C12631"/>
</g>
</svg>
