<svg width="19" height="19" viewBox="0 0 19 19" fill="none" xmlns="http://www.w3.org/2000/svg">
<g id="icon/sns/facebook">
<circle id="Ellipse 96" cx="9.49951" cy="9.42871" r="8.25" fill="white"/>
<path id="path14" d="M17.7495 9.42992C17.7495 4.87282 14.0559 1.17855 9.49951 1.17855C4.94316 1.17855 1.24951 4.87282 1.24951 9.42992C1.24951 13.5484 4.26642 16.962 8.21045 17.5811V11.8151H6.11572V9.42992H8.21045V7.61204C8.21045 5.54405 9.44212 4.40174 11.3266 4.40174C12.2292 4.40174 13.1733 4.56291 13.1733 4.56291V6.59352H12.133C11.1082 6.59352 10.7886 7.22956 10.7886 7.8821V9.42992H13.0767L12.7109 11.8151H10.7886V17.5811C14.7326 16.962 17.7495 13.5484 17.7495 9.42992Z" fill="#1877F2"/>
</g>
</svg>
