<svg width="24" height="24" viewBox="0 0 24 24" fill="none" xmlns="http://www.w3.org/2000/svg">
<g id="icon/sns/google">
<g id="Vector">
<path fill-rule="evenodd" clip-rule="evenodd" d="M20 12.1818C20 11.6146 19.9481 11.0691 19.8516 10.5455H12.1633V13.64H16.5566C16.3673 14.64 15.7922 15.4873 14.9276 16.0546V18.0618H17.5659C19.1095 16.6691 20 14.6182 20 12.1818Z" fill="#4285F4"/>
<path fill-rule="evenodd" clip-rule="evenodd" d="M12.1633 20C14.3673 20 16.2152 19.2837 17.5659 18.0618L14.9276 16.0546C14.1967 16.5346 13.2616 16.8182 12.1633 16.8182C10.0371 16.8182 8.23748 15.4109 7.59555 13.52H4.86828V15.5927C6.21151 18.2073 8.97217 20 12.1633 20Z" fill="#34A853"/>
<path fill-rule="evenodd" clip-rule="evenodd" d="M7.59555 13.52C7.43228 13.04 7.33952 12.5272 7.33952 11.9999C7.33952 11.4727 7.43228 10.9599 7.59555 10.4799V8.40722H4.86827C4.3154 9.48722 4 10.709 4 11.9999C4 13.2909 4.3154 14.5127 4.86828 15.5927L7.59555 13.52Z" fill="#FBBC05"/>
<path fill-rule="evenodd" clip-rule="evenodd" d="M12.1633 7.18181C13.3618 7.18181 14.4378 7.58545 15.2839 8.37818L17.6252 6.08363C16.2115 4.79273 14.3636 4 12.1633 4C8.97217 4 6.2115 5.79268 4.86827 8.40722L7.59555 10.4799C8.23748 8.58904 10.0371 7.18181 12.1633 7.18181Z" fill="#EA4335"/>
</g>
</g>
</svg>
