<svg width="18" height="18" viewBox="0 0 18 18" fill="none" xmlns="http://www.w3.org/2000/svg">
<g id="icon/outlined/hash">
<g id="icon">
<path fill-rule="evenodd" clip-rule="evenodd" d="M7.7506 2.44518C8.05706 2.49605 8.26427 2.78572 8.2134 3.09219L6.22166 15.0922C6.17079 15.3987 5.88111 15.6059 5.57465 15.555C5.26818 15.5042 5.06097 15.2145 5.11184 14.908L7.10359 2.90798C7.15445 2.60152 7.44413 2.39431 7.7506 2.44518ZM12.4255 2.44518C12.732 2.49605 12.9392 2.78572 12.8883 3.09219L10.8966 15.0922C10.8457 15.3987 10.556 15.6059 10.2496 15.555C9.9431 15.5042 9.7359 15.2145 9.78676 14.908L11.7785 2.90798C11.8294 2.60152 12.1191 2.39431 12.4255 2.44518Z" fill="#EC2A38"/>
<path fill-rule="evenodd" clip-rule="evenodd" d="M3.18774 6.75007C3.18774 6.43941 3.43958 6.18757 3.75024 6.18757H14.2502C14.5609 6.18757 14.8127 6.43941 14.8127 6.75007C14.8127 7.06073 14.5609 7.31257 14.2502 7.31257H3.75024C3.43958 7.31257 3.18774 7.06073 3.18774 6.75007ZM3.18774 11.2501C3.18774 10.9394 3.43958 10.6876 3.75024 10.6876H14.2502C14.5609 10.6876 14.8127 10.9394 14.8127 11.2501C14.8127 11.5607 14.5609 11.8126 14.2502 11.8126H3.75024C3.43958 11.8126 3.18774 11.5607 3.18774 11.2501Z" fill="#EC2A38"/>
</g>
</g>
</svg>
