<svg width="18" height="18" viewBox="0 0 18 18" fill="none" xmlns="http://www.w3.org/2000/svg">
<g id="icon/outlined/hash">
<g id="icon">
<path fill-rule="evenodd" clip-rule="evenodd" d="M7.75069 2.44518C8.05716 2.49605 8.26436 2.78572 8.21349 3.09219L6.22175 15.0922C6.17088 15.3987 5.88121 15.6059 5.57474 15.555C5.26827 15.5042 5.06107 15.2145 5.11193 14.908L7.10368 2.90798C7.15454 2.60152 7.44422 2.39431 7.75069 2.44518ZM12.4256 2.44518C12.7321 2.49605 12.9393 2.78572 12.8884 3.09219L10.8967 15.0922C10.8458 15.3987 10.5561 15.6059 10.2497 15.555C9.94319 15.5042 9.73599 15.2145 9.78686 14.908L11.7786 2.90798C11.8295 2.60152 12.1191 2.39431 12.4256 2.44518Z" fill="#938F8F"/>
<path fill-rule="evenodd" clip-rule="evenodd" d="M3.18784 6.75007C3.18784 6.43941 3.43968 6.18757 3.75034 6.18757H14.2503C14.561 6.18757 14.8128 6.43941 14.8128 6.75007C14.8128 7.06073 14.561 7.31257 14.2503 7.31257H3.75034C3.43968 7.31257 3.18784 7.06073 3.18784 6.75007ZM3.18784 11.2501C3.18784 10.9394 3.43968 10.6876 3.75034 10.6876H14.2503C14.561 10.6876 14.8128 10.9394 14.8128 11.2501C14.8128 11.5607 14.561 11.8126 14.2503 11.8126H3.75034C3.43968 11.8126 3.18784 11.5607 3.18784 11.2501Z" fill="#938F8F"/>
</g>
</g>
</svg>
