<svg width="14" height="14" viewBox="0 0 14 14" fill="none" xmlns="http://www.w3.org/2000/svg">
<g id="icon/filled/info_circle">
<path id="icon" fill-rule="evenodd" clip-rule="evenodd" d="M1.39766 7.00156C1.39766 3.90877 3.90486 1.40156 6.99766 1.40156C10.0905 1.40156 12.5977 3.90877 12.5977 7.00156C12.5977 10.0944 10.0905 12.6016 6.99766 12.6016C3.90486 12.6016 1.39766 10.0944 1.39766 7.00156ZM6.29766 4.20156C6.29766 3.81496 6.61106 3.50156 6.99766 3.50156C7.38426 3.50156 7.69766 3.81496 7.69766 4.20156C7.69766 4.58816 7.38426 4.90156 6.99766 4.90156C6.61106 4.90156 6.29766 4.58816 6.29766 4.20156ZM6.99766 10.5016C7.38426 10.5016 7.69766 10.1882 7.69766 9.80156L7.69766 7.00156C7.69766 6.61496 7.38426 6.30156 6.99766 6.30156C6.61106 6.30156 6.29766 6.61496 6.29766 7.00156L6.29766 9.80156C6.29766 10.1882 6.61106 10.5016 6.99766 10.5016Z" fill="#534C4C"/>
</g>
</svg>
