<svg width="16" height="16" viewBox="0 0 16 16" fill="none" xmlns="http://www.w3.org/2000/svg">
<g id="icon/filled/info_circle">
<path id="icon" fill-rule="evenodd" clip-rule="evenodd" d="M1.59893 7.9999C1.59893 4.46528 4.4643 1.5999 7.99893 1.5999C11.5335 1.5999 14.3989 4.46528 14.3989 7.9999C14.3989 11.5345 11.5335 14.3999 7.99893 14.3999C4.4643 14.3999 1.59892 11.5345 1.59893 7.9999ZM7.19893 4.7999C7.19893 4.35807 7.5571 3.9999 7.99893 3.9999C8.44075 3.9999 8.79893 4.35807 8.79893 4.7999C8.79893 5.24173 8.44075 5.5999 7.99893 5.5999C7.5571 5.5999 7.19893 5.24173 7.19893 4.7999ZM7.99893 11.9999C8.44075 11.9999 8.79893 11.6417 8.79893 11.1999L8.79893 7.9999C8.79893 7.55807 8.44075 7.1999 7.99893 7.1999C7.5571 7.1999 7.19893 7.55807 7.19893 7.9999L7.19893 11.1999C7.19893 11.6417 7.5571 11.9999 7.99893 11.9999Z" fill="#D4D2D2"/>
</g>
</svg>
