<svg width="21" height="20" viewBox="0 0 21 20" fill="none" xmlns="http://www.w3.org/2000/svg">
<g id="icon/outlined/plus">
<path id="icon" fill-rule="evenodd" clip-rule="evenodd" d="M10.4995 4.375C10.8447 4.375 11.1245 4.65482 11.1245 5V9.375H15.4995C15.8447 9.375 16.1245 9.65482 16.1245 10C16.1245 10.3452 15.8447 10.625 15.4995 10.625H11.1245V15C11.1245 15.3452 10.8447 15.625 10.4995 15.625C10.1543 15.625 9.87451 15.3452 9.87451 15V10.625L5.49951 10.625C5.15433 10.625 4.87451 10.3452 4.87451 10C4.87451 9.65482 5.15433 9.375 5.49951 9.375L9.87451 9.375V5C9.87451 4.65482 10.1543 4.375 10.4995 4.375Z" fill="#817B7B"/>
</g>
</svg>
