<svg width="16" height="16" viewBox="0 0 16 16" fill="none" xmlns="http://www.w3.org/2000/svg">
<g id="icon/outlined/list_search">
<g id="icon">
<path fill-rule="evenodd" clip-rule="evenodd" d="M0 2.61181C0 2.27392 0.265313 2 0.592593 2H6.59477C6.92205 2 7.18736 2.27392 7.18736 2.61181C7.18736 2.9497 6.92205 3.22361 6.59477 3.22361H0.592593C0.265313 3.22361 0 2.9497 0 2.61181ZM0 8C0 7.66211 0.265313 7.38819 0.592593 7.38819H4.34395C4.67123 7.38819 4.93654 7.66211 4.93654 8C4.93654 8.33789 4.67123 8.61181 4.34395 8.61181H0.592593C0.265313 8.61181 0 8.33789 0 8ZM0 13.3882C0 13.0503 0.265313 12.7764 0.592593 12.7764H8.64702C8.9743 12.7764 9.23962 13.0503 9.23962 13.3882C9.23962 13.7261 8.9743 14 8.64702 14H0.592593C0.265313 14 0 13.7261 0 13.3882Z" fill="#817B7B"/>
<path fill-rule="evenodd" clip-rule="evenodd" d="M10.3461 3.96421C8.60159 3.96421 7.18736 5.42429 7.18736 7.22539C7.18736 9.02649 8.60159 10.4866 10.3461 10.4866C12.0907 10.4866 13.5049 9.02649 13.5049 7.22539C13.5049 5.42429 12.0907 3.96421 10.3461 3.96421ZM6.00217 7.22539C6.00217 4.74851 7.94703 2.7406 10.3461 2.7406C12.7452 2.7406 14.6901 4.74851 14.6901 7.22539C14.6901 9.70227 12.7452 11.7102 10.3461 11.7102C7.94703 11.7102 6.00217 9.70227 6.00217 7.22539Z" fill="#817B7B"/>
<path fill-rule="evenodd" clip-rule="evenodd" d="M14.9884 13.0773L12.271 10.2718L13.109 9.40655L15.8264 12.2121C16.0579 12.451 16.0579 12.8384 15.8264 13.0773C15.595 13.3162 15.2198 13.3162 14.9884 13.0773Z" fill="#817B7B"/>
</g>
</g>
</svg>
