<svg width="100" height="19" viewBox="0 0 100 19" fill="none" xmlns="http://www.w3.org/2000/svg">
<g id="bp_logo">
<g id="Vector">
<path fill-rule="evenodd" clip-rule="evenodd" d="M12.1945 10.2736C11.8947 9.77599 11.5311 9.36771 11.1164 9.06788C11.4673 8.74254 11.7607 8.35339 11.9904 7.89408C12.2774 7.32632 12.4178 6.65648 12.4178 5.90372C12.4178 5.20198 12.3093 4.55129 12.0924 3.97715C11.8692 3.39024 11.5438 2.89265 11.1355 2.49075C10.7209 2.08885 10.2169 1.76988 9.59173 1.53385C9.02397 1.32333 8.38603 1.21488 7.69706 1.21488H0.666992V14.6243C0.666992 14.7583 0.705268 15.0964 0.973202 15.3707L2.65098 17.0931L3.2315 17.6864C3.32081 17.7757 3.60788 17.9288 3.96513 17.9288H7.79275C8.42431 17.9288 9.02397 17.8331 9.57897 17.6481L9.65553 17.6226C9.73846 17.5971 9.81501 17.5652 9.89156 17.5397C10.5104 17.2781 11.0399 16.9081 11.4609 16.4424C11.8819 15.9831 12.2073 15.4217 12.4242 14.7838C12.6347 14.1522 12.7431 13.4633 12.7431 12.736C12.7431 11.7281 12.5581 10.9051 12.1881 10.2863L12.1945 10.2736ZM4.0353 4.74905H8.06706C8.61569 4.74905 9.06225 5.36785 9.06225 6.12061C9.06225 6.87338 8.62207 7.47942 8.06706 7.49856H4.0353V4.74905ZM8.50086 14.35C8.40517 14.3947 8.28396 14.4266 8.23931 14.4266H4.04168V11.0455H8.23931C8.31586 11.0455 8.44345 11.0646 8.50086 11.0901C8.94104 11.2815 9.41311 11.9641 9.41311 12.736C9.41311 13.5079 8.94104 14.1586 8.50086 14.35Z" fill="#C1C1C1"/>
<path fill-rule="evenodd" clip-rule="evenodd" d="M53.4438 9.48254C53.5459 9.38685 61.2649 1.62953 61.2649 1.62953L61.686 1.2085H56.6973L51.3131 6.6182V1.2085H47.7662V13.8078C47.7662 13.9991 47.7853 14.7009 48.4424 15.3771L51.2876 18.2988V12.3086L56.8951 17.9224H61.8901L61.4691 17.5014C60.1485 16.1745 53.5459 9.56547 53.4374 9.48254H53.4438Z" fill="#C1C1C1"/>
<path fill-rule="evenodd" clip-rule="evenodd" d="M73.7876 4.6087C73.2007 2.8161 71.7973 1.53385 70.1323 1.26591C69.9154 1.23402 69.6921 1.21488 69.4816 1.21488H65.9857C65.9857 1.21488 65.386 1.25953 65.0479 1.58488C64.5503 2.06333 63.2553 3.33921 62.8725 3.71559C62.56 4.02818 62.375 4.10473 62.375 4.83836L62.3558 14.3053V17.9288H65.9027V11.4984H69.4816C70.6618 11.4984 71.7845 11.1029 72.6457 10.1715C73.1561 9.62289 73.5516 8.94668 73.7876 8.20667C73.979 7.61977 74.0747 7.052 74.0747 6.4332C74.0747 5.8144 73.979 5.20198 73.7876 4.61508V4.6087ZM65.89 7.98977L65.8708 4.75543C65.8708 4.75543 65.8772 4.75543 65.8964 4.75543H69.1881C69.9345 4.75543 70.5405 5.48906 70.5405 6.39493C70.5405 7.3008 69.9473 7.97063 69.1945 7.98977H65.89Z" fill="#C1C1C1"/>
<path fill-rule="evenodd" clip-rule="evenodd" d="M80.9325 1.2085H78.2404L72.1545 17.9161H74.9997C75.5292 17.9161 75.9758 17.6035 76.1416 17.1505C76.2501 16.8635 76.7158 15.5174 77.0985 14.4202H82.0872C82.4317 15.3962 82.942 16.8699 83.0569 17.1824C83.2163 17.6354 83.5991 17.9161 84.0712 17.9161H87.0312L80.9325 1.2085ZM78.2787 11.0391L79.5865 7.30717L80.8943 11.0391H78.2787Z" fill="#C1C1C1"/>
<path fill-rule="evenodd" clip-rule="evenodd" d="M28.8129 6.15887C28.4237 5.13179 27.8623 4.2323 27.1542 3.49229C26.4461 2.75228 25.5977 2.17176 24.6408 1.76986C23.6775 1.36796 22.6185 1.16382 21.4894 1.16382C20.3602 1.16382 19.2948 1.36796 18.3252 1.76986C17.3619 2.17176 16.5071 2.75228 15.799 3.49229C15.0908 4.2323 14.5358 5.12541 14.1403 6.15887C13.7512 7.18595 13.5534 8.32785 13.5534 9.56545C13.5534 10.803 13.7512 11.9641 14.1403 12.9912C14.5358 14.0183 15.0908 14.9114 15.799 15.645C16.5071 16.3786 17.3555 16.9528 18.3252 17.3547C19.2948 17.7566 20.3602 17.9607 21.4894 17.9607C22.6185 17.9607 23.6775 17.7566 24.6408 17.3547C25.604 16.9528 26.4461 16.3786 27.1542 15.645C27.8623 14.9114 28.4237 14.0183 28.8129 12.9912C29.202 11.9641 29.3998 10.8094 29.3998 9.56545C29.3998 8.32147 29.202 7.18595 28.8129 6.15887ZM25.5466 11.4346C25.3744 12.0087 25.1001 12.5191 24.7428 12.9465C24.3856 13.3739 23.939 13.7184 23.4032 13.98C22.8737 14.2351 22.2421 14.3627 21.5149 14.3627C20.7876 14.3627 20.1242 14.2351 19.5755 13.98C19.0269 13.7248 18.5676 13.3803 18.2167 12.9465C17.8595 12.5191 17.5852 12.0024 17.4129 11.4346C17.2343 10.8541 17.145 10.2289 17.145 9.56545C17.145 8.902 17.2343 8.29596 17.4129 7.71543C17.5916 7.14129 17.8595 6.62456 18.2167 6.19076C18.5676 5.75697 19.0269 5.4061 19.5755 5.15093C20.1242 4.89575 20.7749 4.76816 21.5149 4.76816C22.2549 4.76816 22.8737 4.89575 23.4032 5.15093C23.9326 5.4061 24.3856 5.75697 24.7428 6.19076C25.1001 6.63094 25.3744 7.14129 25.5466 7.71543C25.7253 8.29596 25.8146 8.91475 25.8146 9.56545C25.8146 10.2161 25.7253 10.8541 25.5466 11.4346Z" fill="#C1C1C1"/>
<path fill-rule="evenodd" clip-rule="evenodd" d="M45.8202 6.15887C45.4311 5.13179 44.8761 4.23868 44.1679 3.49229C43.4535 2.75228 42.605 2.17176 41.6481 1.76986C40.6848 1.36796 39.6258 1.16382 38.4967 1.16382C37.3675 1.16382 36.3022 1.36796 35.3325 1.76986C34.3692 2.17176 33.5144 2.75228 32.8063 3.49229C32.0982 4.2323 31.5432 5.13179 31.154 6.15887C30.7649 7.18595 30.5671 8.33423 30.5671 9.56545C30.5671 10.7967 30.7649 11.9641 31.154 12.9912C31.5432 14.0183 32.1046 14.9114 32.8127 15.645C33.5208 16.3786 34.3692 16.9528 35.3389 17.3547C36.3086 17.7566 37.3739 17.9607 38.5031 17.9607C39.6322 17.9607 40.6976 17.7566 41.6545 17.3547C42.6114 16.9528 43.4598 16.3786 44.1679 15.645C44.8761 14.9114 45.4311 14.0183 45.8202 12.9912C46.2093 11.9577 46.4071 10.8094 46.4071 9.56545C46.4071 8.32147 46.2093 7.19232 45.8202 6.15887ZM42.554 11.4346C42.3753 12.0087 42.1074 12.5191 41.7502 12.9529C41.3929 13.3803 40.9464 13.7248 40.4105 13.9864C39.881 14.2415 39.2431 14.3691 38.5222 14.3691C37.8013 14.3691 37.1315 14.2415 36.5893 13.9864C36.0406 13.7312 35.5813 13.3867 35.2304 12.9529C34.8668 12.5191 34.5989 12.0087 34.4203 11.441C34.2416 10.8605 34.1523 10.2353 34.1523 9.57183C34.1523 8.90838 34.2416 8.30234 34.4203 7.72181C34.5989 7.14767 34.8668 6.63094 35.2304 6.19714C35.5813 5.76335 36.0406 5.41248 36.5893 5.15731C37.1315 4.90213 37.7822 4.77454 38.5222 4.77454C39.2622 4.77454 39.881 4.90213 40.4105 5.15731C40.9464 5.41248 41.3929 5.76335 41.7502 6.19714C42.1074 6.63732 42.3817 7.14767 42.554 7.72181C42.7326 8.30234 42.8219 8.92751 42.8219 9.57183C42.8219 10.2161 42.7326 10.8541 42.554 11.441V11.4346Z" fill="#C1C1C1"/>
<path fill-rule="evenodd" clip-rule="evenodd" d="M87.0691 1.20848V14.6179C87.0691 14.7519 87.1074 15.09 87.3754 15.3643L89.0531 17.0867L89.6337 17.68C89.723 17.7693 90.01 17.9224 90.3673 17.9224H98.9539V14.4265H90.5906C90.5906 13.712 90.5906 1.39986 90.5906 1.39986V1.20848H87.0691Z" fill="#C1C1C1"/>
</g>
</g>
</svg>
