<svg width="112" height="21" viewBox="0 0 112 21" fill="none" xmlns="http://www.w3.org/2000/svg">
<g id="bp_logo">
<g id="Vector">
<path fill-rule="evenodd" clip-rule="evenodd" d="M13.6579 10.9765C13.3221 10.4192 12.9148 9.96192 12.4504 9.62611C12.8434 9.26172 13.172 8.82589 13.4293 8.31145C13.7508 7.67556 13.908 6.92534 13.908 6.08225C13.908 5.29631 13.7865 4.56753 13.5436 3.92449C13.2935 3.26716 12.9291 2.70985 12.4718 2.25973C12.0074 1.8096 11.443 1.45235 10.7428 1.18799C10.1069 0.952209 9.3924 0.830746 8.62075 0.830746H0.74707V15.8493C0.74707 15.9994 0.78994 16.378 1.09003 16.6853L2.96913 18.6144L3.61932 19.2789C3.71935 19.3789 4.04087 19.5504 4.44098 19.5504H8.72792C9.43526 19.5504 10.1069 19.4432 10.7285 19.236L10.8142 19.2074C10.9071 19.1788 10.9929 19.1431 11.0786 19.1145C11.7716 18.8216 12.3647 18.4072 12.8362 17.8856C13.3078 17.3712 13.6722 16.7424 13.9151 16.0279C14.1509 15.3206 14.2724 14.5489 14.2724 13.7344C14.2724 12.6055 14.0652 11.6838 13.6508 10.9908L13.6579 10.9765ZM4.51958 4.78902H9.03515C9.64961 4.78902 10.1498 5.48207 10.1498 6.32517C10.1498 7.16827 9.65676 7.84703 9.03515 7.86847H4.51958V4.78902ZM9.521 15.5421C9.41383 15.5921 9.27808 15.6278 9.22806 15.6278H4.52672V11.841H9.22806C9.3138 11.841 9.4567 11.8625 9.521 11.891C10.014 12.1054 10.5427 12.8699 10.5427 13.7344C10.5427 14.599 10.014 15.3277 9.521 15.5421Z" fill="white"/>
<path fill-rule="evenodd" clip-rule="evenodd" d="M59.8571 10.0905C59.9714 9.98335 68.6168 1.29516 68.6168 1.29516L69.0883 0.823598H63.501L57.4707 6.88247V0.823598H53.4982V14.9348C53.4982 15.1491 53.5196 15.9351 54.2555 16.6924L57.4421 19.9648V13.2557L63.7225 19.5432H69.317L68.8454 19.0717C67.3664 17.5855 59.9714 10.1834 59.85 10.0905H59.8571Z" fill="white"/>
<path fill-rule="evenodd" clip-rule="evenodd" d="M82.6422 4.63183C81.9849 2.62412 80.413 1.18799 78.5482 0.887905C78.3053 0.852181 78.0552 0.830746 77.8194 0.830746H73.904C73.904 0.830746 73.2324 0.880761 72.8537 1.24515C72.2964 1.78102 70.846 3.21 70.4173 3.63155C70.0672 3.98165 69.86 4.06738 69.86 4.88905L69.8385 15.4921V19.5504H73.8111V12.3483H77.8194C79.1412 12.3483 80.3987 11.9053 81.3633 10.8622C81.9349 10.2477 82.3778 9.49036 82.6422 8.66155C82.8566 8.00422 82.9637 7.36833 82.9637 6.67527C82.9637 5.98222 82.8566 5.29631 82.6422 4.63898V4.63183ZM73.7968 8.41863L73.7754 4.79616C73.7754 4.79616 73.7825 4.79616 73.804 4.79616H77.4907C78.3267 4.79616 79.0054 5.61783 79.0054 6.6324C79.0054 7.64698 78.341 8.39719 77.4979 8.41863H73.7968Z" fill="white"/>
<path fill-rule="evenodd" clip-rule="evenodd" d="M90.6445 0.823598H87.6293L80.8131 19.5361H83.9997C84.5927 19.5361 85.0929 19.186 85.2786 18.6787C85.4001 18.3572 85.9217 16.8496 86.3504 15.6207H91.9377C92.3235 16.7138 92.8951 18.3643 93.0237 18.7144C93.2023 19.2217 93.631 19.5361 94.1598 19.5361H97.475L90.6445 0.823598ZM87.6722 11.8339L89.1369 7.65412L90.6016 11.8339H87.6722Z" fill="white"/>
<path fill-rule="evenodd" clip-rule="evenodd" d="M32.2705 6.36801C31.8346 5.21769 31.2059 4.21025 30.4128 3.38145C29.6197 2.55264 28.6694 1.90245 27.5977 1.45232C26.5188 1.0022 25.3328 0.77356 24.0681 0.77356C22.8035 0.77356 21.6103 1.0022 20.5242 1.45232C19.4454 1.90245 18.488 2.55264 17.6949 3.38145C16.9018 4.21025 16.2802 5.21054 15.8372 6.36801C15.4014 7.51834 15.1799 8.79728 15.1799 10.1834C15.1799 11.5695 15.4014 12.8699 15.8372 14.0202C16.2802 15.1705 16.9018 16.1708 17.6949 16.9925C18.488 17.8141 19.4382 18.4572 20.5242 18.9073C21.6103 19.3574 22.8035 19.5861 24.0681 19.5861C25.3328 19.5861 26.5188 19.3574 27.5977 18.9073C28.6766 18.4572 29.6197 17.8141 30.4128 16.9925C31.2059 16.1708 31.8346 15.1705 32.2705 14.0202C32.7063 12.8699 32.9278 11.5766 32.9278 10.1834C32.9278 8.79013 32.7063 7.51834 32.2705 6.36801ZM28.6123 12.2768C28.4194 12.9199 28.1121 13.4915 27.712 13.9702C27.3119 14.4489 26.8118 14.8347 26.2116 15.1277C25.6186 15.4135 24.9112 15.5564 24.0967 15.5564C23.2822 15.5564 22.5391 15.4135 21.9246 15.1277C21.3102 14.8419 20.7958 14.456 20.4028 13.9702C20.0027 13.4915 19.6954 12.9127 19.5025 12.2768C19.3025 11.6267 19.2024 10.9265 19.2024 10.1834C19.2024 9.44032 19.3025 8.76155 19.5025 8.11137C19.7026 7.46833 20.0027 6.88959 20.4028 6.40374C20.7958 5.91789 21.3102 5.52492 21.9246 5.23912C22.5391 4.95332 23.2679 4.81043 24.0967 4.81043C24.9255 4.81043 25.6186 4.95332 26.2116 5.23912C26.8046 5.52492 27.3119 5.91789 27.712 6.40374C28.1121 6.89674 28.4194 7.46833 28.6123 8.11137C28.8123 8.76155 28.9124 9.45461 28.9124 10.1834C28.9124 10.9122 28.8123 11.6267 28.6123 12.2768Z" fill="white"/>
<path fill-rule="evenodd" clip-rule="evenodd" d="M51.3187 6.36801C50.8828 5.21769 50.2612 4.2174 49.4681 3.38145C48.6679 2.55264 47.7176 1.90245 46.6459 1.45232C45.567 1.0022 44.381 0.77356 43.1163 0.77356C41.8517 0.77356 40.6585 1.0022 39.5725 1.45232C38.4936 1.90245 37.5362 2.55264 36.7431 3.38145C35.95 4.21025 35.3284 5.21769 34.8926 6.36801C34.4567 7.51834 34.2352 8.80442 34.2352 10.1834C34.2352 11.5624 34.4567 12.8699 34.8926 14.0202C35.3284 15.1705 35.9571 16.1708 36.7502 16.9925C37.5433 17.8141 38.4936 18.4572 39.5796 18.9073C40.6656 19.3574 41.8588 19.5861 43.1235 19.5861C44.3881 19.5861 45.5813 19.3574 46.6531 18.9073C47.7248 18.4572 48.6751 17.8141 49.4681 16.9925C50.2612 16.1708 50.8828 15.1705 51.3187 14.0202C51.7545 12.8627 51.976 11.5766 51.976 10.1834C51.976 8.79013 51.7545 7.52549 51.3187 6.36801ZM47.6605 12.2768C47.4604 12.9199 47.1603 13.4915 46.7602 13.9773C46.3601 14.456 45.86 14.8419 45.2598 15.1348C44.6668 15.4206 43.9523 15.5635 43.1449 15.5635C42.3375 15.5635 41.5873 15.4206 40.98 15.1348C40.3655 14.849 39.8511 14.4632 39.4581 13.9773C39.0509 13.4915 38.7508 12.9199 38.5507 12.284C38.3507 11.6338 38.2507 10.9336 38.2507 10.1905C38.2507 9.44746 38.3507 8.7687 38.5507 8.11851C38.7508 7.47547 39.0509 6.89674 39.4581 6.41088C39.8511 5.92503 40.3655 5.53206 40.98 5.24626C41.5873 4.96047 42.3161 4.81757 43.1449 4.81757C43.9737 4.81757 44.6668 4.96047 45.2598 5.24626C45.86 5.53206 46.3601 5.92503 46.7602 6.41088C47.1603 6.90388 47.4676 7.47547 47.6605 8.11851C47.8605 8.7687 47.9606 9.4689 47.9606 10.1905C47.9606 10.9122 47.8605 11.6267 47.6605 12.284V12.2768Z" fill="white"/>
<path fill-rule="evenodd" clip-rule="evenodd" d="M97.5175 0.82358V15.8422C97.5175 15.9922 97.5603 16.3709 97.8604 16.6781L99.7395 18.6072L100.39 19.2717C100.49 19.3717 100.811 19.5432 101.211 19.5432H110.828V15.6278H101.461C101.461 14.8276 101.461 1.03793 101.461 1.03793V0.82358H97.5175Z" fill="white"/>
</g>
</g>
</svg>
